<?xml version="1.0" encoding="UTF-8" standalone="no"?>
<!-- Created with Inkscape (http://www.inkscape.org/) -->

<svg
   xmlns:osb="http://www.openswatchbook.org/uri/2009/osb"
   xmlns:dc="http://purl.org/dc/elements/1.1/"
   xmlns:cc="http://creativecommons.org/ns#"
   xmlns:rdf="http://www.w3.org/1999/02/22-rdf-syntax-ns#"
   xmlns:svg="http://www.w3.org/2000/svg"
   xmlns="http://www.w3.org/2000/svg"
   xmlns:xlink="http://www.w3.org/1999/xlink"
   xmlns:sodipodi="http://sodipodi.sourceforge.net/DTD/sodipodi-0.dtd"
   xmlns:inkscape="http://www.inkscape.org/namespaces/inkscape"
   width="744.09448819"
   height="1052.3622047"
   id="svg2"
   version="1.1"
   inkscape:version="0.48.2 r9819"
   sodipodi:docname="flowmatic-logo-3.svg">
  <defs
     id="defs4">
    <linearGradient
       id="linearGradient3958"
       osb:paint="gradient">
      <stop
         id="stop3970"
         offset="0"
         style="stop-color:#00a1e8;stop-opacity:1;" />
      <stop
         style="stop-color:#0033ff;stop-opacity:1;"
         offset="1"
         id="stop3962" />
    </linearGradient>
    <inkscape:path-effect
       effect="skeletal"
       id="path-effect3846"
       is_visible="true"
       pattern="m 361.74405,193.90043 a 356.1576,12.294972 0 0 1 -712.31519,0 356.1576,12.294972 0 1 1 712.31519,0 z"
       copytype="single_stretched"
       prop_scale="1"
       scale_y_rel="false"
       spacing="0"
       normal_offset="0"
       tang_offset="0"
       prop_units="false"
       vertical_pattern="false"
       fuse_tolerance="0" />
    <inkscape:path-effect
       effect="spiro"
       id="path-effect3838"
       is_visible="true" />
    <inkscape:path-effect
       effect="spiro"
       id="path-effect3834"
       is_visible="true" />
    <inkscape:path-effect
       effect="spiro"
       id="path-effect2993"
       is_visible="true" />
    <radialGradient
       inkscape:collect="always"
       xlink:href="#linearGradient3958"
       id="radialGradient3968"
       cx="284.41113"
       cy="453.98621"
       fx="284.41113"
       fy="453.98621"
       r="314.31253"
       gradientTransform="matrix(1,0,0,0.64712391,0,160.20088)"
       gradientUnits="userSpaceOnUse" />
  </defs>
  <sodipodi:namedview
     id="base"
     pagecolor="#ffffff"
     bordercolor="#666666"
     borderopacity="1.0"
     inkscape:pageopacity="0.0"
     inkscape:pageshadow="2"
     inkscape:zoom="0.72169881"
     inkscape:cx="434.37446"
     inkscape:cy="487.30244"
     inkscape:document-units="px"
     inkscape:current-layer="layer1"
     showgrid="false"
     inkscape:window-width="1920"
     inkscape:window-height="1148"
     inkscape:window-x="0"
     inkscape:window-y="23"
     inkscape:window-maximized="1"
     showguides="false"
     inkscape:guide-bbox="true">
    <sodipodi:guide
       orientation="0,1"
       position="190.51966,635.82999"
       id="guide3818" />
    <sodipodi:guide
       orientation="0,1"
       position="188.17032,643.26954"
       id="guide3820" />
    <sodipodi:guide
       orientation="1,0"
       position="142.35835,623.07647"
       id="guide3822" />
    <sodipodi:guide
       orientation="1,0"
       position="149.46228,613.67914"
       id="guide3824" />
    <sodipodi:guide
       orientation="1,0"
       position="162.77516,635.82999"
       id="guide3826" />
    <sodipodi:guide
       orientation="1,0"
       position="238.77122,776.80587"
       id="guide3935" />
  </sodipodi:namedview>
  <metadata
     id="metadata7">
    <rdf:RDF>
      <cc:Work
         rdf:about="">
        <dc:format>image/svg+xml</dc:format>
        <dc:type
           rdf:resource="http://purl.org/dc/dcmitype/StillImage" />
        <dc:title></dc:title>
      </cc:Work>
    </rdf:RDF>
  </metadata>
  <g
     inkscape:label="Layer 1"
     inkscape:groupmode="layer"
     id="layer1">
    <path
       sodipodi:type="arc"
       style="opacity:0.5;fill:url(#radialGradient3968);fill-opacity:1;stroke:none"
       id="path3956"
       sodipodi:cx="284.41113"
       sodipodi:cy="453.98621"
       sodipodi:rx="314.31253"
       sodipodi:ry="203.39915"
       d="m 598.72366,453.98621 a 314.31253,203.39915 0 1 1 -628.625058,0 314.31253,203.39915 0 1 1 628.625058,0 z"
       transform="matrix(0.99340585,-0.41083513,0.45612357,0.86714566,-1044.1915,252.99065)" />
    <path
       style="fill:#000000;fill-opacity:1;stroke:none"
       d="m 102.70731,400.3175 c 0.42819,0.35857 -0.46588,2.29548 -2.56766,5.84674 -2.101794,3.55126 -5.42043,8.71964 -9.578949,15.63772 -4.158519,6.91808 -9.1728,15.58949 -14.212319,26.19466 -2.519759,5.30259 -5.037231,11.08902 -7.385555,17.38183 -2.348324,6.29282 -4.528032,13.09213 -6.319373,20.41819 -1.465162,5.9633 -2.667395,12.26457 -3.43201,18.84629 -0.764614,6.58171 -1.09187,13.44414 -0.764742,20.49686 0.538235,11.81528 2.91117,24.25899 7.800114,36.31626 4.423309,10.95798 10.978967,21.66659 19.493907,31.29706 8.231758,9.33088 18.380027,17.68131 29.859027,24.84129 12.10362,7.58129 25.61576,13.75527 40.19173,18.60461 14.57598,4.84934 30.2152,8.37436 46.38729,10.81752 17.7825,2.64569 36.23004,3.87162 55.11029,3.77093 18.88026,-0.1007 38.19242,-1.52708 57.65182,-4.07676 21.07535,-2.7752 42.30469,-6.92683 63.44994,-12.37898 21.14525,-5.45214 42.20551,-12.20398 62.93682,-20.11043 20.35389,-7.77386 40.38091,-16.6565 59.78343,-26.6548 19.40251,-9.9983 38.17916,-21.11247 56.05939,-33.3055 15.882,-10.84589 31.07778,-22.49549 45.21121,-34.9647 14.13344,-12.46921 27.20294,-25.75839 38.90119,-39.84802 10.1493,-12.28462 19.3381,-25.11288 26.95571,-38.36542 7.61761,-13.25253 13.66225,-26.92919 17.67247,-40.90973 3.67037,-12.69332 5.67764,-25.54055 5.55561,-38.01102 -0.1056,-12.43488 -2.28276,-24.60052 -6.34712,-35.72675 -4.24549,-11.69235 -10.60441,-22.36862 -18.20888,-31.58143 -8.43717,-10.24471 -18.49766,-18.76477 -29.02971,-25.8292 -2e-5,-10e-6 -4e-5,-2e-5 -6e-5,-4e-5 -14.20455,-9.56154 -29.19697,-16.3974 -43.88466,-21.54944 -14.68769,-5.15204 -29.07359,-8.61884 -42.47769,-11.14623 -18.09954,-3.38634 -34.5045,-4.98805 -48.77465,-5.82709 -14.27015,-0.83905 -26.41141,-0.91088 -36.20039,-0.86442 -9.78899,0.0465 -17.23142,0.21604 -22.2315,0.15992 -5.00008,-0.0561 -7.56145,-0.33513 -7.64397,-0.94494 -0.0826,-0.61014 2.31606,-1.5519 7.21169,-2.71053 4.89564,-1.15862 12.29127,-2.53768 22.15872,-3.76882 9.86745,-1.23113 22.21225,-2.31957 36.8969,-2.57553 14.68464,-0.25596 31.71552,0.31612 50.75428,2.80247 14.0945,1.82119 29.39135,4.7287 45.30856,9.59538 15.9172,4.86668 32.45849,11.69212 48.63385,21.66177 2e-5,10e-6 4e-5,2e-5 7e-5,4e-5 12.03395,7.44322 23.75055,16.78225 33.99849,28.43769 9.24832,10.53975 17.09869,22.95823 22.58374,36.88903 5.20185,13.27417 8.16594,27.72633 8.59276,42.56147 0.41073,14.81673 -1.57954,29.82939 -5.56315,44.4136 -4.38483,15.93807 -10.88078,31.3912 -19.02403,46.16177 -8.14324,14.77058 -17.93201,28.85815 -28.75115,42.07859 -12.40452,15.2279 -26.20396,29.54127 -41.07347,42.88764 -14.86952,13.34636 -30.80745,25.72594 -47.42191,37.13175 -18.70497,12.85842 -38.33147,24.54219 -58.59093,35.00075 -20.25946,10.45857 -41.15045,19.6921 -62.35844,27.70162 -21.5934,8.16662 -43.58003,15.08714 -65.69234,20.61515 -22.11232,5.52801 -44.3493,9.66273 -66.44496,12.33215 -20.3806,2.47485 -40.71019,3.69895 -60.66316,3.48649 -19.95297,-0.21245 -39.52828,-1.86226 -58.44758,-5.02055 -17.21114,-2.83602 -34.01153,-7.03477 -49.8019,-12.76212 C 133.18369,650.04495 118.40429,642.7891 105.05024,634.00368 92.338997,625.61178 81.081489,615.67884 71.881075,604.5781 62.352778,593.06073 55.235877,580.34846 50.58236,567.40473 c -5.104428,-14.25796 -7.185881,-28.58139 -7.139764,-41.972 0.03382,-7.97014 0.783454,-15.58275 2.009307,-22.77779 1.225853,-7.19503 2.928159,-13.9728 4.912705,-20.3037 2.438445,-7.74763 5.246563,-14.83251 8.203615,-21.30615 2.957052,-6.47363 6.063575,-12.33617 9.152905,-17.63703 6.178659,-10.60173 12.253201,-18.96302 17.407456,-25.42374 5.154255,-6.46073 9.404464,-11.02328 12.401079,-13.91438 2.996617,-2.8911 4.749187,-4.11124 5.177647,-3.75244 z"
       id="path3840"
       inkscape:connector-curvature="0"
       sodipodi:nodetypes="cssssc"
       inkscape:path-effect="#path-effect3846"
       inkscape:original-d="m 436.66775,228.85044 c 41.55851,-5.24127 80.89608,-4.9271 115.93632,0.6141 70.08049,11.08242 122.97174,43.07307 142.06286,93.34513 38.18224,100.5441 -73.29486,236.13984 -248.99111,302.86156 C 269.97959,692.39295 96.596816,664.97448 58.414581,564.43037 39.323461,514.15831 57.647187,455.12335 102.70572,400.31618" />
    <g
       id="g3985">
      <path
         sodipodi:nodetypes="cssccssccccccscccssc"
         d="m 235.59798,279.69 c 0.25425,-1.52554 3.17871,-2.21913 3.17871,-4.25319 0,-8.26333 -10.29876,-13.72985 -22.00114,-13.72985 -8.39046,0 -19.3235,3.43248 -23.13735,21.61181 l -29.25118,125.68204 c -13.93868,0.6112 -22.70741,4.99388 -21.86607,19.06925 0.49305,8.24861 7.24632,13.72985 15.00114,13.72985 8.26333,0 18.81499,-3.43248 22.75596,-21.61181 l 18.38354,-79.70441 15.40749,0 0.8899,-5.08513 -15.28036,0 12.26606,-52.07979 c 1.77979,-8.51759 7.15039,-13.57897 12.32918,-13.0482 4.87297,0.49943 7.93231,3.62064 8.40067,6.94604 0.86599,1.79648 1.08346,2.47339 2.92345,2.47339 z m -72.82282,136.84219 c -2.79682,12.69758 -5.50733,13.9533 -8.17702,13.9533 -2.79682,0 -4.58089,-2.08369 -5.08514,-3.79056 -2.41196,-8.16436 6.54595,-10.44319 13.26216,-10.16274 z"
         style="font-size:127.12830353px;font-style:normal;font-variant:normal;font-weight:normal;font-stretch:normal;text-align:start;line-height:125%;letter-spacing:0px;word-spacing:0px;writing-mode:lr-tb;text-anchor:start;fill:#000000;stroke:none;font-family:'Lobster 1.3';-inkscape-font-specification:'Lobster 1.3,'"
         id="path3020"
         inkscape:connector-curvature="0" />
      <path
         d="m 216.15025,312.51546 -14.11124,66.10672 c -0.50851,2.41543 -0.76277,4.57662 -0.76277,6.48354 0,9.53462 5.97504,13.85699 15.76391,13.85699 9.916,0 24.28151,-16.90807 30.12941,-22.75597 l -4.32237,0 c -5.08512,4.0681 -11.6958,11.18729 -16.78093,11.18729 -4.958,0 -6.35642,-1.90693 -6.35642,-4.70375 0,-1.01702 0.25426,-2.16118 0.63564,-4.0681 l 14.61976,-68.64928 -18.81499,2.54256"
         style="font-size:127.12830353px;font-style:normal;font-variant:normal;font-weight:normal;font-stretch:normal;text-align:start;line-height:125%;letter-spacing:0px;word-spacing:0px;writing-mode:lr-tb;text-anchor:start;fill:#000000;fill-opacity:1;stroke:none;font-family:'Lobster 1.3';-inkscape-font-specification:'Lobster 1.3,'"
         id="path3022"
         inkscape:connector-curvature="0" />
      <path
         d="m 267.35912,334.12727 c -17.54368,0 -33.43474,13.47563 -33.43474,44.74917 0,15.12825 5.84792,20.84904 19.45063,20.84904 12.71282,0 26.56982,-12.58573 28.98525,-38.13849 7.37344,-2.03405 13.98412,-6.2293 17.92509,-11.18729 l -0.50851,-2.6697 c -4.70374,1.90692 -7.37345,6.22929 -13.34847,6.22929 -1.7798,0 -2.92395,-0.38139 -3.68672,-1.14416 -0.25426,-9.28035 -3.30535,-18.68786 -15.38253,-18.68786 m -8.00908,53.26676 c -4.958,0 -8.5176,-2.03406 -8.5176,-9.66175 0,-10.17025 5.08515,-36.10444 17.0352,-36.10444 3.55959,0 4.958,2.41544 5.33939,6.61067 -3.43247,1.27129 -5.59365,5.21227 -5.59365,8.89899 0,3.05107 1.65267,5.72077 5.33939,5.72077 -1.52554,12.33143 -5.84791,24.53576 -13.60273,24.53576"
         style="font-size:127.12830353px;font-style:normal;font-variant:normal;font-weight:normal;font-stretch:normal;text-align:start;line-height:125%;letter-spacing:0px;word-spacing:0px;writing-mode:lr-tb;text-anchor:start;fill:#000000;fill-opacity:1;stroke:none;font-family:'Lobster 1.3';-inkscape-font-specification:'Lobster 1.3,'"
         id="path3024"
         inkscape:connector-curvature="0" />
      <path
         d="m 365.44457,332.85599 c -4.19523,0 -7.24631,3.55959 -7.24631,6.22929 0,3.55959 1.65267,7.11918 5.33939,7.11918 0.76277,0 1.90692,-0.25426 2.66969,-0.50851 0,13.85697 -8.51761,41.69808 -20.97617,41.69808 -3.68672,0 -4.83087,-1.65267 -4.83087,-4.0681 0,-1.39841 0.25425,-2.92396 0.63564,-4.70375 l 9.15324,-43.22362 -18.30648,0 -9.15324,43.22362 c -0.38138,1.52554 -0.63564,3.05108 -0.63564,4.32236 -3.05108,2.54256 -6.22929,4.44949 -8.89898,4.44949 -5.08513,0 -6.35642,-2.03405 -6.35642,-4.83087 0,-1.14416 0.25426,-2.54257 0.50852,-3.94098 l 9.15323,-43.22362 -18.30647,0 -9.15324,43.22362 c -0.50851,2.41543 -0.76277,4.57662 -0.76277,6.48354 0,9.53462 6.10217,13.85699 15.89104,13.85699 5.33938,0 12.20432,-5.08514 18.17935,-10.55165 1.27128,7.2463 6.86493,10.55165 15.50965,10.55165 25.67989,0 35.72305,-34.83318 35.72305,-54.66517 0,-6.61067 -2.6697,-11.44155 -8.13621,-11.44155"
         style="font-size:127.12830353px;font-style:normal;font-variant:normal;font-weight:normal;font-stretch:normal;text-align:start;line-height:125%;letter-spacing:0px;word-spacing:0px;writing-mode:lr-tb;text-anchor:start;fill:#000000;fill-opacity:1;stroke:none;font-family:'Lobster 1.3';-inkscape-font-specification:'Lobster 1.3,'"
         id="path3026"
         inkscape:connector-curvature="0" />
      <path
         d="m 462.42757,354.34067 c 0.12713,-1.01702 0.25426,-1.90692 0.25426,-2.92395 0,-8.64471 -7.62771,-16.01816 -14.61976,-16.01816 -6.22928,0 -12.96709,3.94098 -18.56073,8.39046 -2.79682,-4.958 -7.88196,-8.39046 -12.5857,-8.39046 -5.46651,0 -11.31443,3.05108 -16.39955,6.7378 l 1.39841,-6.7378 -18.30648,0 -13.4756,63.56415 18.30648,0 10.93303,-51.35984 c 2.54256,-1.77979 4.70375,-2.66969 7.75483,-2.66969 3.43246,0 5.8479,2.92395 5.8479,7.50057 0,1.01702 -0.12713,2.16118 -0.38139,3.30533 l -9.15323,43.22363 18.4336,0 9.40749,-44.62204 c 0.12713,-0.88989 0.25426,-1.77979 0.25426,-2.66969 0,-1.52554 -0.25426,-2.92395 -0.63564,-4.44949 2.41544,-1.52554 4.57662,-2.28831 7.37344,-2.28831 3.43246,0 5.8479,2.92395 5.8479,7.50057 0,1.01702 -0.12712,2.16118 -0.38138,3.30533 l -4.83088,22.8831 c -0.50851,2.41543 -0.76277,4.44949 -0.76277,6.48354 0,9.53462 5.84792,13.85699 15.76391,13.85699 9.916,0 21.35756,-16.52669 27.20546,-23.39161 l -5.97503,0 c -2.92395,5.46651 -8.26335,12.96709 -13.34847,12.96709 -4.0681,0 -5.21226,-2.28832 -5.21226,-5.21226 0,-1.52554 0.25425,-3.17821 0.63564,-4.70375 l 5.21226,-24.28151"
         style="font-size:127.12830353px;font-style:normal;font-variant:normal;font-weight:normal;font-stretch:normal;text-align:start;line-height:125%;letter-spacing:0px;word-spacing:0px;writing-mode:lr-tb;text-anchor:start;fill:#000000;fill-opacity:1;stroke:none;font-family:'Lobster 1.3';-inkscape-font-specification:'Lobster 1.3,'"
         id="path3028"
         inkscape:connector-curvature="0" />
      <path
         d="m 510.74823,335.39856 -0.76276,3.30533 c -2.28831,-1.90692 -5.46653,-3.17821 -8.5176,-3.17821 -25.42564,0 -33.30762,26.18846 -33.30762,48.0545 0,7.50057 3.55961,16.1453 15.76391,16.1453 7.75482,0 13.47561,-5.21227 17.28945,-10.42452 1.65267,6.61066 7.24632,9.66175 15.50966,9.66175 9.91599,0 24.28151,-16.90807 30.1294,-22.75597 l -4.32236,0 c -5.08513,4.0681 -11.69581,11.18729 -16.78094,11.18729 -5.08512,0 -6.35641,-2.03405 -6.35641,-4.83087 0,-1.14416 0.25426,-2.54257 0.50851,-3.94098 l 9.15324,-43.22362 -18.30648,0 m -8.26333,7.24631 c 1.77979,0 4.19523,0.50851 6.22928,2.28831 l -7.11918,33.689 c -0.38139,1.52554 -0.63564,2.92395 -0.76277,4.19523 -2.41544,3.55959 -5.21227,6.35642 -8.13621,6.35642 -3.17821,0 -7.37345,-1.39842 -7.37345,-9.02611 0,-17.28943 7.62771,-37.50285 17.16233,-37.50285"
         style="font-size:127.12830353px;font-style:normal;font-variant:normal;font-weight:normal;font-stretch:normal;text-align:start;line-height:125%;letter-spacing:0px;word-spacing:0px;writing-mode:lr-tb;text-anchor:start;fill:#000000;fill-opacity:1;stroke:none;font-family:'Lobster 1.3';-inkscape-font-specification:'Lobster 1.3,'"
         id="path3030"
         inkscape:connector-curvature="0" />
      <path
         d="m 548.23321,317.85485 -3.81384,17.54371 -4.19524,0 -1.01703,5.08513 4.19524,0 c -2.16118,10.93302 -8.77185,37.88424 -8.77185,44.62203 0,9.53462 5.97504,13.85699 15.76391,13.85699 9.91599,0 24.28151,-16.90807 30.1294,-22.75597 l -4.32236,0 c -5.08513,4.0681 -11.69581,11.18729 -16.78093,11.18729 -5.08513,0 -6.35642,-1.90693 -6.35642,-4.83087 0,-0.63564 -0.12712,-1.90697 8.64472,-42.07947 l 7.6277,0 1.01703,-5.08513 -7.6277,0 c 2.41544,-11.44154 4.32236,-20.08628 4.32236,-20.08628 l -18.81499,2.54257"
         style="font-size:127.12830353px;font-style:normal;font-variant:normal;font-weight:normal;font-stretch:normal;text-align:start;line-height:125%;letter-spacing:0px;word-spacing:0px;writing-mode:lr-tb;text-anchor:start;fill:#000000;fill-opacity:1;stroke:none;font-family:'Lobster 1.3';-inkscape-font-specification:'Lobster 1.3,'"
         id="path3032"
         inkscape:connector-curvature="0" />
      <path
         d="m 580.13845,335.39856 -9.15323,43.22362 c -0.50852,2.41543 -0.76277,4.57662 -0.76277,6.48354 0,9.53462 6.10217,13.85699 15.89103,13.85699 9.916,0 24.28152,-16.90807 30.12941,-22.75597 l -4.32236,0 c -5.08513,4.0681 -11.69581,11.18729 -16.78094,11.18729 -5.08512,0 -6.35641,-2.03405 -6.35641,-4.83087 0,-1.14416 0.25426,-2.54257 0.50851,-3.94098 l 9.15324,-43.22362 -18.30648,0 m 2.41544,-16.78094 c 0,5.59364 4.4495,10.04314 10.04314,10.04314 5.59364,0 10.17026,-4.4495 10.17026,-10.04314 0,-5.59364 -4.57662,-10.17026 -10.17026,-10.17026 -5.59364,0 -10.04314,4.57662 -10.04314,10.17026"
         style="font-size:127.12830353px;font-style:normal;font-variant:normal;font-weight:normal;font-stretch:normal;text-align:start;line-height:125%;letter-spacing:0px;word-spacing:0px;writing-mode:lr-tb;text-anchor:start;fill:#000000;fill-opacity:1;stroke:none;font-family:'Lobster 1.3';-inkscape-font-specification:'Lobster 1.3,'"
         id="path3034"
         inkscape:connector-curvature="0" />
      <path
         d="m 623.30248,398.96271 c 16.01815,0 25.42566,-7.24633 25.42566,-18.30648 -4.958,4.32236 -10.93304,7.50057 -17.79796,7.50057 -7.75482,0 -9.15324,-7.37345 -9.15324,-13.60273 0,-13.72984 6.86494,-34.45177 17.54371,-34.45177 2.79682,0 4.70374,1.27129 4.70374,4.32237 0,1.01702 -0.25425,2.16118 -0.63564,3.55959 l 7.24632,0 c 0.50851,-1.65267 0.63564,-2.79683 0.63564,-4.19524 0,-6.99205 -7.11919,-8.77185 -13.98412,-8.77185 -24.66286,0 -32.67197,24.53578 -32.67197,43.0965 0,15.00112 8.13622,20.84904 18.68786,20.84904"
         style="font-size:127.12830353px;font-style:normal;font-variant:normal;font-weight:normal;font-stretch:normal;text-align:start;line-height:125%;letter-spacing:0px;word-spacing:0px;writing-mode:lr-tb;text-anchor:start;fill:#000000;fill-opacity:1;stroke:none;font-family:'Lobster 1.3';-inkscape-font-specification:'Lobster 1.3,'"
         id="path3036"
         inkscape:connector-curvature="0" />
      <path
         sodipodi:nodetypes="ccccc"
         inkscape:connector-curvature="0"
         id="rect3815"
         d="m 180.40608,409.13602 463.4559,0 -1.72325,7.48259 -461.73265,0 z"
         style="fill:#000000;stroke:none" />
      <path
         sodipodi:nodetypes="ccccc"
         inkscape:connector-curvature="0"
         id="rect3930"
         d="m 168.93353,335.39886 34.04109,0 0,5.05778 -35.27414,0 z"
         style="fill:#000000;fill-opacity:1;stroke:none" />
      <path
         transform="matrix(0.75570978,0,0,0.77791798,184.12514,68.160146)"
         d="m 72.310933,266.60416 a 7.7921267,7.7921267 0 1 1 -15.584253,0 7.7921267,7.7921267 0 1 1 15.584253,0 z"
         sodipodi:ry="7.7921267"
         sodipodi:rx="7.7921267"
         sodipodi:cy="266.60416"
         sodipodi:cx="64.518806"
         id="path3933"
         style="fill:#000000;fill-opacity:1;stroke:none"
         sodipodi:type="arc" />
    </g>
  </g>
</svg>
