<?xml version="1.0" encoding="UTF-8" standalone="no"?>
<!-- Created with Inkscape (http://www.inkscape.org/) -->

<svg
   xmlns:osb="http://www.openswatchbook.org/uri/2009/osb"
   xmlns:dc="http://purl.org/dc/elements/1.1/"
   xmlns:cc="http://creativecommons.org/ns#"
   xmlns:rdf="http://www.w3.org/1999/02/22-rdf-syntax-ns#"
   xmlns:svg="http://www.w3.org/2000/svg"
   xmlns="http://www.w3.org/2000/svg"
   xmlns:xlink="http://www.w3.org/1999/xlink"
   xmlns:sodipodi="http://sodipodi.sourceforge.net/DTD/sodipodi-0.dtd"
   xmlns:inkscape="http://www.inkscape.org/namespaces/inkscape"
   width="744.09448819"
   height="1052.3622047"
   id="svg2"
   version="1.1"
   inkscape:version="0.48.2 r9819"
   sodipodi:docname="flowmatic-logo-4.svg">
  <sodipodi:namedview
     id="base"
     pagecolor="#ffffff"
     bordercolor="#666666"
     borderopacity="1.0"
     inkscape:pageopacity="0.0"
     inkscape:pageshadow="2"
     inkscape:zoom="1.2225842"
     inkscape:cx="1424.7656"
     inkscape:cy="767.04831"
     inkscape:document-units="px"
     inkscape:current-layer="layer1"
     showgrid="false"
     inkscape:window-width="1920"
     inkscape:window-height="1148"
     inkscape:window-x="0"
     inkscape:window-y="23"
     inkscape:window-maximized="1"
     showguides="false"
     inkscape:guide-bbox="true">
    <sodipodi:guide
       id="guide3818"
       position="190.51966,635.82999"
       orientation="0,1" />
    <sodipodi:guide
       id="guide3820"
       position="188.17032,643.26954"
       orientation="0,1" />
    <sodipodi:guide
       id="guide3822"
       position="142.35835,623.07647"
       orientation="1,0" />
    <sodipodi:guide
       id="guide3824"
       position="149.46228,613.67914"
       orientation="1,0" />
    <sodipodi:guide
       id="guide3826"
       position="162.77516,635.82999"
       orientation="1,0" />
    <sodipodi:guide
       id="guide3935"
       position="238.77122,776.80587"
       orientation="1,0" />
  </sodipodi:namedview>
  <defs
     id="defs4">
    <inkscape:path-effect
       is_visible="true"
       id="path-effect3060"
       effect="spiro" />
    <linearGradient
       osb:paint="gradient"
       id="linearGradient3958">
      <stop
         style="stop-color:#00a1e8;stop-opacity:1;"
         offset="0"
         id="stop3970" />
      <stop
         id="stop3962"
         offset="1"
         style="stop-color:#0033ff;stop-opacity:1;" />
    </linearGradient>
    <inkscape:path-effect
       fuse_tolerance="0"
       vertical_pattern="false"
       prop_units="false"
       tang_offset="0"
       normal_offset="0"
       spacing="0"
       scale_y_rel="false"
       prop_scale="1"
       copytype="single_stretched"
       pattern="m 493.18122,424.55145 a 356.1576,12.294972 0 0 1 -712.31519,0 356.1576,12.294972 0 1 1 712.31519,0 z"
       is_visible="true"
       id="path-effect3846"
       effect="skeletal" />
    <inkscape:path-effect
       is_visible="true"
       id="path-effect3838"
       effect="spiro" />
    <inkscape:path-effect
       is_visible="true"
       id="path-effect3834"
       effect="spiro" />
    <inkscape:path-effect
       is_visible="true"
       id="path-effect2993"
       effect="spiro" />
    <radialGradient
       gradientUnits="userSpaceOnUse"
       gradientTransform="matrix(1,0,0,0.64712391,0,160.20088)"
       r="314.31253"
       fy="453.98621"
       fx="284.41113"
       cy="453.98621"
       cx="284.41113"
       id="radialGradient3968"
       xlink:href="#linearGradient3958"
       inkscape:collect="always" />
  </defs>
  <metadata
     id="metadata7">
    <rdf:RDF>
      <cc:Work
         rdf:about="">
        <dc:format>image/svg+xml</dc:format>
        <dc:type
           rdf:resource="http://purl.org/dc/dcmitype/StillImage" />
        <dc:title />
      </cc:Work>
    </rdf:RDF>
  </metadata>
  <g
     id="layer1"
     inkscape:groupmode="layer"
     inkscape:label="Layer 1">
    <path
       inkscape:connector-curvature="0"
       id="path3840"
       d="m 1067.8307,449.77451 c 0.632,0.19262 -0.6823,1.48912 -3.7743,3.90316 -3.0922,2.41406 -7.9749,5.94812 -14.093,10.65594 -6.118,4.70785 -13.4942,10.59304 -20.9036,17.70335 -3.7045,3.55512 -7.4048,7.41612 -10.8542,11.58387 -3.4497,4.16778 -6.6498,8.64242 -9.2758,13.41922 -2.148,3.88882 -3.9074,7.97037 -5.0208,12.19438 -1.1136,4.22398 -1.5812,8.59055 -1.0832,13.02523 0.8192,7.43015 4.3457,15.11119 11.5821,22.34684 6.547,6.57754 16.2385,12.82703 28.817,18.2381 12.1605,5.24413 27.1451,9.71512 44.0897,13.32683 17.8666,3.8283 37.8077,6.65395 59.3146,8.55683 21.5071,1.90283 44.5793,2.88312 68.4349,3.13657 26.2313,0.25291 53.4403,-0.44528 81.2843,-2.01712 27.8444,-1.57186 56.3225,-4.01673 85.0156,-7.18381 31.0759,-3.43881 62.3756,-7.76052 93.5486,-12.89806 31.173,-5.13755 62.2178,-11.09036 92.7751,-17.7472 30.0009,-6.54281 59.5173,-13.76079 88.1104,-21.63458 28.5931,-7.87376 56.2608,-16.40332 82.6039,-25.54365 23.3992,-8.12862 45.7843,-16.71081 66.6014,-25.72653 20.8168,-9.01571 40.0628,-18.46504 57.2849,-28.31115 14.9413,-8.58071 28.4651,-17.42853 39.6708,-26.4192 11.2058,-8.99071 20.0908,-18.12397 25.9748,-27.28693 5.3856,-8.32167 8.318,-16.60783 8.111,-24.4856 -0.1828,-7.85658 -3.4199,-15.37739 -9.4382,-22.08998 -6.2864,-7.05627 -14.8695,-14.11896 -26.1046,-19.33858 -12.4652,-5.80577 -25.6851,-12.02692 -41.2329,-15.65382 -20.8995,-5.21968 -27.6606,-5.99049 -39.0024,-7.6706 -28.4696,-5.14869 -51.4718,-6.79245 -51.1034,-8.50533 0.5544,-2.57754 23.6983,-1.65453 30.2282,-1.55864 23.4854,1.80667 47.8948,4.80242 71.772,9.81605 0,3e-5 0,3e-5 0,3e-5 17.7636,3.74656 35.0632,8.71752 50.2024,15.27092 13.6619,5.92758 25.2667,13.15511 33.3859,21.52817 7.7005,7.98033 12.1032,16.88449 12.7647,26.23357 0.6379,9.3387 -2.265,18.99314 -8.1084,28.53582 -6.4322,10.431 -15.9789,20.72395 -27.9564,30.71675 -11.9776,9.99282 -26.3836,19.68509 -42.3107,28.9112 -18.2614,10.62248 -38.5816,20.77792 -60.4822,30.40727 -21.9006,9.62928 -45.3786,18.73243 -69.8569,27.27371 -27.5581,9.62709 -56.4779,18.5848 -86.3338,26.81814 -29.8557,8.23333 -60.6454,15.74229 -91.9057,22.50238 -31.8278,6.89024 -64.2386,13.02374 -96.8378,18.28652 -32.5991,5.2628 -65.3848,9.6543 -97.9656,13.1077 -30.0517,3.19335 -60.0311,5.59154 -89.4579,7.05101 -29.4268,1.45946 -58.2998,1.97965 -86.2089,1.49334 -25.3889,-0.41894 -50.175,-1.73262 -73.4748,-4.0938 -23.3,-2.36117 -45.1122,-5.7699 -64.8257,-10.2599 -18.7646,-4.29246 -35.3888,-9.67574 -48.9813,-15.962 -14.0773,-6.52354 -24.60064,-13.99551 -31.49176,-21.81063 -7.55875,-8.61036 -10.65951,-17.50363 -10.62038,-25.97681 0.0326,-5.04377 1.1216,-9.91861 2.91403,-14.56737 1.79211,-4.64874 4.28811,-9.07162 7.20108,-13.23443 3.57961,-5.09514 7.70556,-9.80059 12.05263,-14.13135 4.3469,-4.33078 8.9157,-8.28695 13.4605,-11.88651 9.0892,-7.19908 18.0297,-12.9728 25.6172,-17.47092 7.5875,-4.4981 13.8458,-7.72342 18.259,-9.79138 4.413,-2.06799 6.9952,-2.97971 7.6279,-2.78702 z"
       style="fill:#000000;fill-opacity:1;stroke:none"
       sodipodi:nodetypes="ccsccccccccscscscscscsccccccscccccccscscscscscsccccccccscc" />
    <path
       style="fill:#000000;fill-opacity:1;stroke:none"
       d="m 1100.1459,826.00857 c 0.4754,0.24703 -0.6183,1.54687 -3.1519,3.9251 -2.5336,2.37824 -6.5173,5.83667 -11.5259,10.46894 -5.0087,4.63229 -11.0605,10.44071 -17.214,17.55619 -3.0766,3.55772 -6.169,7.44259 -9.0872,11.6716 -2.9182,4.22905 -5.6631,8.80229 -7.9844,13.73583 -1.8975,4.01574 -3.5075,8.26279 -4.6284,12.70415 -1.121,4.44134 -1.753,9.07715 -1.645,13.84866 0.1695,7.99352 2.4102,16.43157 7.5382,24.63543 4.6376,7.45566 11.7195,14.76567 21.0789,21.36785 9.0476,6.39657 20.3201,12.15094 33.1569,17.11478 13.5342,5.2554 28.7295,9.57451 45.1894,13.00955 16.46,3.43501 34.1837,5.98616 52.5566,7.81163 20.2041,1.9797 41.221,3.00673 62.7818,3.14154 21.561,0.13481 43.6649,-0.622 65.9792,-2.13661 24.168,-1.64968 48.5636,-4.22828 72.912,-7.68698 24.3487,-3.4587 48.6491,-7.79697 72.6175,-12.91936 23.5323,-5.0368 46.7333,-10.82669 69.2633,-17.37756 22.53,-6.55085 44.3874,-13.8628 65.2619,-21.91378 18.5422,-7.16168 36.3311,-14.8741 52.9381,-23.15204 16.6069,-8.27793 32.0298,-17.12165 45.9173,-26.52123 12.0509,-8.19596 23.0256,-16.76976 32.2224,-25.64727 9.1968,-8.87753 16.6135,-18.05867 21.7189,-27.46712 4.6688,-8.54188 7.4444,-17.20567 7.7748,-25.63764 0.3476,-8.40773 -1.6799,-16.65571 -5.9016,-24.22125 -4.407,-7.95023 -11.2653,-15.23627 -19.601,-21.5463 -9.2475,-7.01659 -20.4135,-12.8847 -32.1727,-17.77376 0,-10e-6 -10e-5,-3e-5 -10e-5,-4e-5 -15.8584,-6.6167 -32.719,-11.3992 -49.2951,-15.04006 -16.576,-3.64086 -32.871,-6.13918 -48.0803,-7.99186 -20.5381,-2.48383 -39.2086,-3.74295 -55.4704,-4.46351 -16.2617,-0.72058 -30.1217,-0.89961 -41.3003,-0.97339 -11.1786,-0.0738 -19.6827,-0.0391 -25.3895,-0.13077 -5.7069,-0.0917 -8.6209,-0.30782 -8.6922,-0.72097 -0.071,-0.41339 2.7029,-1.02428 8.3363,-1.75496 5.6334,-0.73068 14.1295,-1.58352 25.4423,-2.30979 11.3129,-0.7263 25.4489,-1.32947 42.2251,-1.34473 16.7763,-0.0152 36.2002,0.55454 57.8446,2.44001 16.0243,1.38267 33.3804,3.51267 51.371,6.97383 17.9907,3.46115 36.6201,8.25325 54.7134,15.16701 0,3e-5 0,4e-5 0,5e-5 13.4598,5.1613 26.4858,11.60085 37.7479,19.59064 10.1625,7.22475 18.6582,15.70462 24.3962,25.18149 5.4395,9.02989 8.2795,18.83211 8.2081,28.866 -0.089,10.02126 -2.927,20.14919 -8.0246,29.96603 -5.6067,10.7278 -13.6057,21.10509 -23.4597,31.00321 -9.8542,9.89815 -21.5613,19.31687 -34.4123,28.13828 -14.7368,10.16153 -31.0318,19.68978 -48.5122,28.55283 -17.4803,8.86302 -36.1441,17.06096 -55.5438,24.59331 -21.8412,8.49194 -44.6904,16.17986 -68.2161,23.03266 -23.5257,6.85281 -47.7263,12.87066 -72.2429,18.05759 -24.9624,5.28901 -50.3269,9.73135 -75.7826,13.23092 -25.4556,3.4996 -51.0009,6.056 -76.3298,7.6232 -23.3634,1.4541 -46.6215,2.0632 -69.3953,1.7052 -22.7739,-0.3581 -45.0624,-1.6838 -66.5452,-4.0222 -19.5445,-2.1023 -38.5687,-5.1214 -56.3821,-9.16301 -17.8134,-4.04164 -34.4149,-9.10578 -49.3315,-15.18865 -14.1973,-5.80994 -26.6769,-12.64606 -36.7636,-20.24958 -10.4455,-7.88871 -18.0926,-16.55931 -22.9185,-25.35991 -5.2911,-9.69394 -7.1282,-19.39968 -6.5712,-28.4519 0.3388,-5.38783 1.4814,-10.5263 3.1521,-15.37733 1.6705,-4.85101 3.8695,-9.41482 6.3738,-13.67351 3.0761,-5.21159 6.5491,-9.97113 10.1692,-14.31586 3.6201,-4.34473 7.3878,-8.27471 11.1149,-11.82516 7.4539,-7.1009 14.7046,-12.68827 20.8329,-17.00066 6.1284,-4.31239 11.1531,-7.35123 14.6834,-9.27354 3.5304,-1.92233 5.5774,-2.72839 6.053,-2.48122 z"
       id="path3053"
       inkscape:connector-curvature="0" />
    <path
       style="font-size:127.12830353px;font-style:normal;font-variant:normal;font-weight:normal;font-stretch:normal;text-align:start;line-height:125%;letter-spacing:0px;word-spacing:0px;writing-mode:lr-tb;text-anchor:start;fill:#000000;stroke:none;font-family:'Lobster 1.3';-inkscape-font-specification:'Lobster 1.3,'"
       d="m 1203.0897,766.86959 c -8.3206,1.31825 -18.9514,6.44564 -21.5097,25.18293 l -8.517,53.88058 -12.4579,1.97373 -0.8988,5.24742 12.5199,-1.98357 -11.1912,70.87979 c -13.7815,2.79977 -22.1604,8.53996 -20.3785,22.45121 1.0442,8.15243 8.1105,12.58048 15.8007,11.36209 8.1945,-1.29828 18.4205,-6.39301 21.1048,-25.15028 l 0.5659,-3.68207 457.1921,-72.43442 1.2305,-7.75794 -457.1921,72.43442 11.0588,-70.98486 4.2766,-0.67755 7.1586,-1.13416 -5.5196,39.35114 c -0.3417,2.48985 -0.4366,4.66932 -0.3083,6.57191 0.6419,9.51299 6.8456,12.90695 16.553,11.36898 5.3412,-0.84624 11.662,-6.86322 17.1763,-13.27796 2.7971,7.6357 8.7864,9.9209 18.9153,8.31615 12.6069,-1.99736 25.5168,-16.72052 26.1918,-42.59482 4.036,-1.79318 7.7814,-4.24502 10.9269,-7.02525 l -3.1795,22.97208 c -0.3416,2.48985 -0.4366,4.66932 -0.3082,6.57191 0.6418,9.51299 6.9695,12.88731 16.6768,11.34934 5.295,-0.83889 11.7677,-7.00318 17.325,-13.39604 1.7485,7.03012 7.5093,9.46147 16.082,8.10327 25.4661,-4.03467 33.1079,-40.36208 31.7728,-60.14908 -0.445,-6.59567 -3.4394,-11.02013 -8.8604,-10.16127 -4.1603,0.65912 -6.9486,4.71125 -6.7689,7.37489 0.2396,3.55152 2.1229,6.8485 5.7789,6.26926 0.7564,-0.11979 1.8901,-0.57877 2.6294,-0.95228 0.9328,13.82553 -5.6618,42.96608 -18.0166,44.92349 -3.656,0.57924 -4.8854,-0.9184 -5.048,-3.32835 -0.094,-1.39524 0.046,-2.93939 0.3042,-4.77506 l 6.1705,-44.55928 -18.16,2.87715 -6.1705,44.55928 c -0.2755,1.582 -0.4151,3.13251 -0.3295,4.40091 -2.8545,3.01616 -5.8838,5.43847 -8.5312,5.85791 -5.0428,0.79894 -6.4287,-1.0456 -6.617,-3.83607 -0.077,-1.14157 0.073,-2.57195 0.2307,-4.00713 l 6.1705,-44.55927 -18.16,2.87715 -2.1695,15.65875 c -2.2864,2.08291 -4.5811,4.12915 -8.233,4.70772 -1.765,0.27963 -2.9269,0.0669 -3.7346,-0.57426 -0.8769,-9.21935 -4.5594,-18.12207 -16.5361,-16.22458 -17.3975,2.75636 -32.2208,18.69448 -30.1154,49.89707 0.1132,1.67739 0.2888,3.21499 0.5325,4.6425 -2.6482,2.60613 -5.3375,4.72166 -7.7676,5.10666 -4.9167,0.77898 -6.4203,-0.92087 -6.6086,-3.71135 -0.069,-1.01471 0.096,-2.18896 0.3463,-4.15148 l 9.8812,-70.79828 -18.4854,5.48122 -3.3233,23.62511 -8.2123,1.3011 -3.254,0.51554 8.641,-53.90022 c 1.1916,-8.77789 6.1923,-14.65696 11.3637,-14.94106 1.6111,-0.0885 3.0173,0.15608 4.2389,0.62043 -0.8306,1.20761 -1.2903,2.69367 -1.1872,4.22168 0.2253,3.34016 3.0091,5.63668 6.2342,5.12571 3.2251,-0.51097 5.6743,-3.63655 5.4489,-6.97671 0,-0.0416 -0.01,-0.0834 -0.01,-0.12471 -0.011,-0.16505 -0.046,-0.33246 -0.065,-0.49395 -0.9349,-7.90609 -11.3031,-11.53898 -22.6757,-9.73717 z m 375.8282,-12.4326 c -5.5471,0.87883 -9.6385,6.15948 -9.2619,11.74043 0.3766,5.58095 5.076,9.31128 10.623,8.43245 5.5471,-0.87885 9.8039,-6.02815 9.4274,-11.6091 -0.3766,-5.58095 -5.2415,-9.44263 -10.7885,-8.56378 z m -24.8558,10.87071 -18.5165,5.48612 -2.5984,18.12166 -4.1526,0.65791 -0.6509,5.20813 4.1526,-0.65792 c -1.2794,10.22699 -5.2947,34.20707 -5.6757,43.53553 -2.9539,3.03569 -5.9537,5.63861 -8.6736,6.06954 -5.0428,0.79893 -6.4287,-1.04561 -6.617,-3.83608 -0.077,-1.14157 0.073,-2.57193 0.2308,-4.00712 l 6.1704,-44.55928 -18.16,2.87715 -0.5207,3.42282 c -2.3977,-1.54307 -5.6492,-2.31925 -8.6748,-1.83989 -25.2139,3.99472 -31.2715,31.37088 -29.7995,53.18732 0.035,0.51818 0.096,1.02888 0.1672,1.54914 -1.9065,2.31489 -4.0013,4.03727 -6.1567,4.37876 -4.0342,0.63916 -5.2988,-1.47458 -5.4957,-4.39188 -0.1027,-1.52208 0.029,-3.19306 0.3043,-4.77507 l 3.5406,-25.0461 c 0.058,-1.03468 0.1187,-1.95539 0.05,-2.97011 -0.5819,-8.6251 -8.6465,-14.76446 -15.5803,-13.66591 -6.1774,0.97871 -12.5966,5.9542 -17.8441,11.27243 -3.1073,-4.50733 -8.3882,-7.11637 -13.0527,-6.37735 -5.421,0.85886 -10.9918,4.79895 -15.7864,9.27624 l 0.9113,-6.91953 -18.16,2.87715 -9.0775,65.53442 18.16,-2.87715 7.3878,-52.97688 c 2.4016,-2.17522 4.481,-3.38849 7.5066,-3.86786 3.4039,-0.53928 5.9919,1.99862 6.3,6.56485 0.069,1.01472 0.026,2.18241 -0.1489,3.36391 l -6.1704,44.55928 18.2839,-2.89679 6.3238,-46.00162 c 0.066,-0.90784 0.1269,-1.8328 0.067,-2.72068 -0.1028,-1.52208 -0.4377,-2.86707 -0.9186,-4.32924 2.2926,-1.90157 4.3865,-2.99536 7.16,-3.43479 3.4039,-0.53928 5.9919,1.99862 6.3,6.56485 0.069,1.01472 0.026,2.18241 -0.1489,3.36391 l -3.2634,23.58413 c -0.3417,2.48984 -0.4452,4.54247 -0.3083,6.5719 0.6419,9.51299 6.7195,12.92692 16.553,11.36898 4.9271,-0.78062 9.9518,-5.76385 14.4136,-11.51673 2.0405,5.08904 6.6312,8.93882 15.418,7.54671 7.6903,-1.21839 13.0056,-7.29814 16.4368,-13.09777 2.0839,6.336 7.8265,8.49737 16.021,7.19908 5.3899,-0.85395 11.771,-6.97854 17.3208,-13.45841 1.726,7.06453 7.5572,9.5169 16.0862,8.16564 5.9166,-0.93739 12.9863,-8.24011 18.8827,-15.37604 1.2102,8.31399 7.3838,11.21453 16.5386,9.76412 5.8483,-0.92657 12.8249,-8.06699 18.6805,-15.12341 3.1703,8.12173 10.0927,10.56477 18.1973,9.28074 15.8848,-2.51668 24.7065,-11.22758 23.9619,-22.26264 -4.6258,5.09153 -10.3205,9.1981 -17.1283,10.27667 -7.6902,1.21839 -9.5758,-5.90918 -9.9952,-12.12433 -0.9243,-13.69869 4.475,-35.46718 15.0648,-37.14496 2.7736,-0.43942 4.7665,0.54835 4.9719,3.59251 0.069,1.01471 -0.129,2.17119 -0.413,3.62635 l 7.1896,-1.13908 c 0.393,-1.72881 0.463,-2.88587 0.3689,-4.28111 -0.4707,-6.97619 -7.6647,-7.60912 -14.4725,-6.53055 -24.4575,3.87488 -30.7327,29.60813 -29.4832,48.12674 0.099,1.46354 0.2584,2.81289 0.4946,4.08127 -3.1371,3.2933 -6.392,6.21225 -9.2907,6.6715 -5.0427,0.79895 -6.4287,-1.04559 -6.617,-3.83606 -0.077,-1.14157 0.073,-2.57195 0.2308,-4.00713 l 6.1705,-44.55927 -18.1601,2.87715 -6.1394,44.55436 c -0.1202,0.87562 -0.2078,1.69772 -0.2698,2.5007 -3.5416,3.85039 -7.3231,7.55725 -10.6363,8.08217 -5.0428,0.79894 -6.4201,-0.91877 -6.617,-3.83607 -0.043,-0.6342 -0.244,-1.89874 5.7504,-43.35828 l 7.5615,-1.19798 0.6508,-5.20814 -7.5615,1.198 c 1.6251,-11.79509 2.9549,-20.73063 2.9549,-20.73063 z m -294.9247,73.25932 c 3.5299,-0.55926 5.0846,1.6446 5.7452,5.7704 -3.3183,1.80769 -5.1979,6.05536 -4.9497,9.73372 0.2054,3.04414 1.9973,5.45035 5.6533,4.8711 -0.6827,12.54315 -4.1367,25.42416 -11.827,26.64255 -4.9167,0.77897 -8.5679,-0.71967 -9.0814,-8.33006 -0.6847,-10.14718 2.609,-36.81019 14.4596,-38.68771 z m 232.7406,-35.83393 c 1.765,-0.27964 4.1836,-0.15717 6.3205,1.29902 l -4.7977,34.73051 c -0.2756,1.582 -0.4214,3.00746 -0.4619,4.29583 -2.1557,3.93102 -4.7596,7.18261 -7.6592,7.642 -3.1517,0.49934 -7.408,-0.24166 -7.9215,-7.85205 -1.164,-17.2502 5.0646,-38.6173 14.5198,-40.11531 z m -333.1891,127.25206 c 0.4301,-0.0714 0.8552,-0.12165 1.2726,-0.17016 -1.9187,13.10819 -4.5314,14.80399 -7.1789,15.22343 -2.7735,0.43941 -4.693,-1.37978 -5.308,-3.00356 -2.7576,-7.28146 4.7625,-10.97799 11.2143,-12.04975 z"
       id="path3055"
       inkscape:connector-curvature="0" />
    <path
       inkscape:connector-curvature="0"
       inkscape:original-d="m 2538.4265,107.75325 -11.8975,-359.04475 703.7515,36.32212 3.398,222.1014652 z"
       inkscape:path-effect="#path-effect3060"
       id="path3058"
       d="m 2538.4265,107.75325 -11.8975,-359.04475 703.7515,36.32212 3.398,222.1014652 -695.252,100.6211648"
       style="fill:none;stroke:#000000;stroke-width:1.38888884px;stroke-linecap:butt;stroke-linejoin:miter;stroke-opacity:1"
       sodipodi:nodetypes="ccccc" />
    <path
       inkscape:connector-curvature="0"
       id="path3160"
       d="m 1184.1736,224.47798 c -16.4411,1.56506 -37.7337,9.46454 -42.0154,41.22133 0,0 -14.8478,92.19828 -14.8478,92.19828 0,0 -26.3964,4.42826 -26.3964,4.42826 0,0 -1.6505,9.20172 -1.6505,9.20172 0,0 26.5726,-4.59019 26.5726,-4.59019 0,0 -19.8911,123.68321 -19.8911,123.68321 -29.901,8.26844 -48.337,20.58418 -43.5001,44.66689 2.8218,14.05011 18.7893,19.55816 35.5132,15.00424 17.4838,-4.76084 38.646,-16.455 43.2034,-48.90406 0,0 0.9723,-6.36119 0.9723,-6.36119 0,0 610.3384,-151.10805 610.3384,-151.10805 0,0 0.9403,-8.61149 0.9403,-8.61149 0,0 -609.1548,146.32942 -609.1548,146.32942 0,0 18.8129,-121.13089 18.8129,-121.13089 0,0 8.5267,-1.4729 8.5267,-1.4729 0,0 14.0861,-2.43324 14.0861,-2.43324 0,0 -8.9138,65.86002 -8.9138,65.86002 -0.5519,4.18686 -0.6308,7.82101 -0.2816,10.95893 1.7443,15.66806 14.0768,20.13172 32.6928,15.84552 10.0701,-2.31859 21.6008,-13.08569 31.4793,-24.22206 5.4583,11.74693 16.3975,14.40254 34.3319,10.26006 21.7796,-5.03065 42.9708,-29.35565 43.0505,-68.88267 6.6252,-3.04431 12.6926,-7.03935 17.7239,-11.4592 0,0 -4.2885,34.97095 -4.2885,34.97095 -0.4611,3.80037 -0.5306,7.10599 -0.245,9.96765 1.4259,14.29052 11.833,18.53913 27.2751,14.98368 8.2939,-1.90961 18.1231,-11.75424 26.4228,-21.71295 2.9183,10.06036 11.7156,12.93185 24.4439,10.00124 36.5638,-8.41856 46.0645,-59.73921 43.5738,-87.30066 -0.8324,-9.21166 -5.1642,-15.37442 -12.7828,-14.11553 -5.9017,0.97517 -9.7631,6.75916 -9.4158,10.53643 0.4627,5.03315 3.2706,9.65257 8.4602,8.72675 1.0691,-0.19065 2.6593,-0.86928 3.6921,-1.41542 1.7674,19.39807 -6.6173,60.84662 -24.367,64.73175 -5.3357,1.16794 -7.1972,-0.86495 -7.5203,-4.30784 -0.1869,-1.99405 -0.034,-4.22214 0.2834,-6.87785 0,0 7.5214,-64.15433 7.5214,-64.15433 0,0 -26.8987,4.51254 -26.8987,4.51254 0,0 -7.7835,65.35253 -7.7835,65.35253 -0.364,2.33646 -0.5213,4.61522 -0.3444,6.4606 -4.2683,4.69221 -8.8529,8.55667 -12.945,9.45238 -7.8562,1.71958 -10.1073,-0.86576 -10.5094,-4.98564 -0.1645,-1.68615 0.018,-3.82349 0.2129,-5.96826 0,0 8.0148,-66.39361 8.0148,-66.39361 0,0 -28.784,4.82883 -28.784,4.82883 0,0 -2.9111,23.70954 -2.9111,23.70954 -3.6467,3.28071 -7.3254,6.52165 -13.3227,7.63724 -2.9151,0.54226 -4.856,0.29479 -6.2281,-0.63104 -1.838,-14.0428 -8.385,-27.53549 -28.7634,-24.14251 -30.5548,5.0874 -56.8953,31.47406 -51.5689,81.37801 0.2852,2.67249 0.6789,5.11144 1.1926,7.36329 -4.7659,4.55726 -9.6582,8.35706 -14.175,9.34569 -9.2139,2.01683 -12.1442,-0.51302 -12.6344,-5.02311 -0.1793,-1.64067 0.078,-3.57497 0.4604,-6.803 0,0 15.2721,-115.59328 15.2721,-115.59328 0,0 -34.9584,9.22362 -34.9584,9.22362 0,0 -5.3236,39.1963 -5.3236,39.1963 0,0 -16.1586,2.71076 -16.1586,2.71076 0,0 -6.4876,1.08837 -6.4876,1.08837 0,0 14.5049,-90.26761 14.5049,-90.26761 1.9158,-14.57998 11.4361,-24.06582 21.4526,-24.21398 3.0964,-0.0458 5.8052,0.44286 8.1634,1.27911 -1.5296,1.93185 -2.3381,4.34508 -2.0674,6.85903 0.5912,5.49223 6.0081,9.37591 12.0904,8.67758 6.0384,-0.69328 10.4681,-5.64866 9.8929,-11.07019 -0,-0.0674 -0.023,-0.13566 -0.024,-0.20259 -0.028,-0.26801 -0.1012,-0.54118 -0.1442,-0.8039 -2.1136,-12.88008 -21.903,-19.58415 -43.874,-17.49266 0,0 0,1.5e-4 0,1.5e-4 m 514.9625,5.84769 c -5.3146,0.7505 -9.1732,6.72842 -8.6969,13.2709 0.4758,6.53632 5.0898,11.03478 10.3878,10.18117 5.2514,-0.8461 9.1654,-6.63528 8.706,-13.06906 -0.4598,-6.43974 -5.1293,-11.12692 -10.3969,-10.38301 0,0 0,0 0,0 m -24.0473,11.62718 c 0,0 -18.6073,5.83019 -18.6073,5.83019 0,0 -2.2836,21.72355 -2.2836,21.72355 0,0 -4.2784,0.71774 -4.2784,0.71774 0,0 -0.5624,6.27949 -0.5624,6.27949 0,0 4.282,-0.73969 4.282,-0.73969 -1.0998,12.30171 -4.7388,41.24128 -4.9317,52.5038 -3.0093,3.76123 -6.0907,7.01779 -8.9403,7.64155 -5.318,1.16401 -6.8339,-1.03483 -7.0974,-4.4364 -0.1078,-1.39205 0.02,-3.14436 0.1557,-4.9025 0,0 5.5498,-54.40958 5.5498,-54.40958 0,0 -19.4221,3.25827 -19.4221,3.25827 0,0 -0.4882,4.22974 -0.4882,4.22974 -2.6562,-1.93848 -6.2453,-2.94282 -9.5749,-2.38383 -28.436,4.77394 -34.7829,39.77481 -32.5128,67.59395 0.054,0.65939 0.1378,1.30792 0.2338,1.96805 -2.1618,3.05088 -4.5661,5.36376 -7.0858,5.91808 -4.7422,1.04323 -6.2959,-1.60917 -6.6056,-5.35796 -0.1617,-1.95671 -0.049,-4.11681 0.2368,-6.16836 0,0 3.5415,-32.36088 3.5415,-32.36088 0.042,-1.33234 0.09,-2.518 -0.018,-3.82302 -0.9111,-11.10266 -10.6813,-19.05455 -19.0274,-17.65438 -7.5241,1.26225 -15.3228,7.8186 -21.7295,14.89406 -4.0384,-5.96788 -10.8131,-9.43471 -16.7655,-8.43613 -6.9827,1.17142 -14.1413,6.53725 -20.3287,12.67986 0,0 0.9979,-9.43691 0.9979,-9.43691 0,0 -24.3454,4.08421 -24.3454,4.08421 0,0 -10.4338,91.48879 -10.4338,91.48879 0,0 24.6795,-5.68228 24.6795,-5.68228 0,0 8.2402,-72.75519 8.2402,-72.75519 3.1116,-3.01032 5.8147,-4.6962 9.7674,-5.39639 4.4203,-0.78297 7.8483,2.59404 8.3795,8.73284 0.1186,1.36342 0.097,2.93536 -0.094,4.52963 0,0 -6.7006,60.37817 -6.7006,60.37817 0,0 23.3493,-5.37603 23.3493,-5.37603 0,0 6.6427,-61.25886 6.6427,-61.25886 0.057,-1.20244 0.1074,-2.42735 0.01,-3.60085 -0.1708,-2.01219 -0.6267,-3.78695 -1.2688,-5.71616 2.8093,-2.54515 5.3828,-4.0122 8.8046,-4.61833 4.1759,-0.7397 7.4135,2.55982 7.9131,8.53031 0.1117,1.32607 0.091,2.85414 -0.091,4.40306 0,0 -3.3528,30.98478 -3.3528,30.98478 -0.3514,3.2789 -0.4225,5.97338 -0.1993,8.62385 1.0452,12.4105 8.5375,16.43702 20.2983,13.72918 5.8156,-1.33901 11.5874,-8.04442 16.6375,-15.64184 2.491,6.3596 7.8708,10.9605 17.8305,8.66001 8.5931,-1.9848 14.3422,-9.84817 17.9827,-17.21112 2.4312,7.74278 8.7292,10.1067 17.5094,8.0851 5.7092,-1.31451 12.2894,-9.04379 17.9321,-17.0911 1.941,8.43757 7.9949,11.12159 16.6396,9.13123 5.926,-1.36444 12.8067,-10.25082 18.4662,-18.81151 1.3507,9.69443 7.4117,12.85325 16.1761,10.83533 5.5322,-1.27375 11.9516,-9.68101 17.2671,-17.87974 3.078,9.16026 9.4639,11.7251 16.778,10.0411 14.072,-3.23998 21.6169,-13.06267 20.7852,-25.21994 -3.9414,5.67737 -8.868,10.3178 -14.8802,11.63821 -6.868,1.50837 -8.6975,-6.47937 -9.1883,-13.47577 -1.0833,-15.44567 3.4056,-39.8985 12.8304,-41.52308 2.4432,-0.42112 4.2146,0.72678 4.4474,4.11558 0.078,1.12923 -0.076,2.41061 -0.3006,4.02272 0,0 6.2655,-1.12854 6.2655,-1.12854 0.3124,-1.90334 0.3536,-3.18082 0.2483,-4.72524 -0.5274,-7.72726 -6.8313,-8.63839 -12.8325,-7.63386 -22.0894,3.69758 -27.432,32.98394 -25.9244,54.13564 0.1192,1.66888 0.2924,3.2061 0.5352,4.64913 -2.8571,3.81921 -5.8455,7.23049 -8.56,7.82466 -4.7521,1.0402 -6.1047,-1.05559 -6.3376,-4.274 -0.095,-1.31707 0.02,-2.97209 0.1425,-4.63252 0,0 4.996,-51.38238 4.996,-51.38238 0,0 -17.342,2.90929 -17.342,2.90929 0,0 -5.1031,52.14188 -5.1031,52.14188 -0.1002,1.02856 -0.1696,1.99385 -0.2142,2.93626 -3.4034,4.60342 -7.0664,9.07046 -10.3497,9.78913 -5.0316,1.10134 -6.4535,-0.8959 -6.7128,-4.35649 -0.056,-0.75253 -0.2856,-2.25038 4.8753,-51.50196 0,0 7.4947,-1.29462 7.4947,-1.29462 0,0 0.5373,-6.1251 0.5373,-6.1251 0,0 -7.4886,1.2563 -7.4886,1.2563 1.3802,-13.93655 2.5222,-24.47219 2.5222,-24.47219 0,0 2e-4,1e-5 2e-4,1e-5 m -384.4363,98.3345 c 6.0441,-1.05094 8.7937,2.27548 10.0915,8.60961 -5.5974,3.00537 -8.6497,9.71988 -8.0677,15.40717 0.4812,4.70315 3.6572,8.27611 9.8704,7.06611 -0.6411,19.38998 -5.9979,39.66461 -19.2191,42.55851 -8.5683,1.87547 -15.0812,0.0164 -16.325,-11.88808 -1.6618,-15.90481 3.0193,-58.1661 23.6499,-61.75332 0,0 0,0 0,0 m 320.0626,-54.35298 c 1.9388,-0.33908 4.5977,-0.17475 6.9691,1.63892 0,0 -4.4433,43.11506 -4.4433,43.11506 -0.2657,1.97218 -0.3925,3.74606 -0.4068,5.34609 -2.2819,4.96846 -5.0844,9.12931 -8.2951,9.83768 -3.508,0.774 -8.3104,0.0478 -9.0755,-9.4961 -1.7384,-21.6819 4.765,-48.60762 15.2516,-50.44165 0,0 0,0 0,0 m -509.3765,218.97256 c 0.9229,-0.23405 1.8352,-0.43004 2.7301,-0.62085 -3.4052,23.15963 -8.9644,26.84548 -14.7061,28.34518 -6.0544,1.5814 -10.3898,-1.03113 -11.843,-3.69293 -6.5454,-11.99047 9.8603,-20.49022 23.819,-24.03147 0,0 0,7e-5 0,7e-5"
       style="font-size:127.12830353px;font-style:normal;font-variant:normal;font-weight:normal;font-stretch:normal;text-align:start;line-height:125%;letter-spacing:0px;word-spacing:0px;writing-mode:lr-tb;text-anchor:start;fill:#000000;stroke:none;font-family:'Lobster 1.3';-inkscape-font-specification:'Lobster 1.3,'" />
  </g>
</svg>
