<?xml version="1.0" encoding="UTF-8" standalone="no"?>
<!-- Created with Inkscape (http://www.inkscape.org/) -->

<svg
   xmlns:osb="http://www.openswatchbook.org/uri/2009/osb"
   xmlns:dc="http://purl.org/dc/elements/1.1/"
   xmlns:cc="http://creativecommons.org/ns#"
   xmlns:rdf="http://www.w3.org/1999/02/22-rdf-syntax-ns#"
   xmlns:svg="http://www.w3.org/2000/svg"
   xmlns="http://www.w3.org/2000/svg"
   xmlns:sodipodi="http://sodipodi.sourceforge.net/DTD/sodipodi-0.dtd"
   xmlns:inkscape="http://www.inkscape.org/namespaces/inkscape"
   sodipodi:docname="flowmatic-logo-5.svg"
   inkscape:version="0.48.2 r9819"
   version="1.1"
   id="svg2"
   height="1052.3622047"
   width="744.09448819">
  <sodipodi:namedview
     id="base"
     pagecolor="#ffffff"
     bordercolor="#666666"
     borderopacity="1.0"
     inkscape:pageopacity="0.0"
     inkscape:pageshadow="2"
     inkscape:zoom="0.2007171"
     inkscape:cx="569.83689"
     inkscape:cy="1578.3808"
     inkscape:document-units="px"
     inkscape:current-layer="layer2"
     showgrid="false"
     inkscape:window-width="1920"
     inkscape:window-height="1148"
     inkscape:window-x="0"
     inkscape:window-y="23"
     inkscape:window-maximized="1"
     showguides="false"
     inkscape:guide-bbox="true">
    <sodipodi:guide
       orientation="0,1"
       position="190.51966,635.82999"
       id="guide3818" />
    <sodipodi:guide
       orientation="0,1"
       position="188.17032,643.26954"
       id="guide3820" />
    <sodipodi:guide
       orientation="1,0"
       position="142.35835,623.07647"
       id="guide3822" />
    <sodipodi:guide
       orientation="1,0"
       position="149.46228,613.67914"
       id="guide3824" />
    <sodipodi:guide
       orientation="1,0"
       position="162.77516,635.82999"
       id="guide3826" />
    <sodipodi:guide
       orientation="1,0"
       position="238.77122,776.80587"
       id="guide3935" />
  </sodipodi:namedview>
  <defs
     id="defs4">
    <inkscape:path-effect
       effect="spiro"
       id="path-effect3060"
       is_visible="true" />
    <linearGradient
       id="linearGradient3958"
       osb:paint="gradient">
      <stop
         id="stop3970"
         offset="0"
         style="stop-color:#00a1e8;stop-opacity:1;" />
      <stop
         style="stop-color:#0033ff;stop-opacity:1;"
         offset="1"
         id="stop3962" />
    </linearGradient>
    <inkscape:path-effect
       effect="skeletal"
       id="path-effect3846"
       is_visible="true"
       pattern="m 493.18122,424.55145 a 356.1576,12.294972 0 0 1 -712.31519,0 356.1576,12.294972 0 1 1 712.31519,0 z"
       copytype="single_stretched"
       prop_scale="1"
       scale_y_rel="false"
       spacing="0"
       normal_offset="0"
       tang_offset="0"
       prop_units="false"
       vertical_pattern="false"
       fuse_tolerance="0" />
    <inkscape:path-effect
       effect="spiro"
       id="path-effect3838"
       is_visible="true" />
    <inkscape:path-effect
       effect="spiro"
       id="path-effect3834"
       is_visible="true" />
    <inkscape:path-effect
       effect="spiro"
       id="path-effect2993"
       is_visible="true" />
  </defs>
  <metadata
     id="metadata7">
    <rdf:RDF>
      <cc:Work
         rdf:about="">
        <dc:format>image/svg+xml</dc:format>
        <dc:type
           rdf:resource="http://purl.org/dc/dcmitype/StillImage" />
        <dc:title />
      </cc:Work>
    </rdf:RDF>
  </metadata>
  <g
     inkscape:label="Layer"
     id="layer2"
     inkscape:groupmode="layer">
    <rect
       y="-547.70172"
       x="619.73883"
       height="831.0943"
       width="1866.1666"
       id="rect3233"
       style="fill:#544e1c;fill-opacity:1" />
  </g>
  <path
     inkscape:connector-curvature="0"
     style="opacity:0.22477064;fill:none;stroke:#fff200;stroke-width:2.45700288;stroke-miterlimit:4;stroke-opacity:1;stroke-dasharray:none"
     d="m 2055.871,-261.54532 c 3.6151,1.86695 10.7084,2.78248 21.7287,3.40132 11.027,0.61912 25.9746,0.95032 44.1418,1.82176 18.1801,0.87213 39.5959,2.29742 62.5369,5.12354 23.0155,2.83502 47.6287,7.10111 71.3873,13.5256 23.9505,6.47654 47.1427,15.19362 66.6868,26.64575 19.835,11.62244 36.0256,26.15443 45.5605,43.7627 9.754,18.01257 12.588,39.3929 5.7061,63.8881 -7.0979,25.265228 -24.6179,54.037286 -54.7206,85.541187 -31.282,32.738135 -76.3623,68.616023 -136.1917,106.22842 -62.5065,39.295513 -141.2942,80.581863 -235.3283,121.753463 -98.4042,43.08502 -213.3036,85.9443 -340.8283,125.84925 -132.9751,41.6103 -278.6077,79.66493 -429.7578,111.20656 -156.0723,32.5684 -315.81577,57.72484 -469.63214,73.07487 -156.34773,15.60254 -303.6154,20.77266 -432.22484,14.58996 C 146.73105,528.7041 39.725497,511.3816 -39.622669,483.86532 -117.18377,456.96887 -166.84174,420.83689 -186.95168,377.88161 -206.29504,336.56308 -198.01614,289.52097 -164.72733,239.69195 -133.03138,192.24691 -78.929566,142.67331 -7.4952386,93.654847 60.265556,47.157277 143.4399,1.2782177 236.19071,-41.918893 324.32621,-82.966468 421.3011,-121.688 521.55741,-156.69145 c 95.82411,-33.4561 195.19809,-63.7143 293.31695,-89.96658 94.57183,-25.30333 188.73924,-47.09447 278.60674,-65.03549 87.46,-17.46039 171.6484,-31.43982 249.6127,-41.97379 76.6283,-10.35338 147.9523,-17.48011 211.966,-21.71439 63.4995,-4.20021 120.3439,-5.59668 169.4873,-4.75989 49.1332,0.83667 90.9135,3.90317 125.2732,8.45783 34.557,4.58094 61.7864,10.67954 82.581,17.46636 20.9892,6.85046 35.4935,14.40831 45.2595,21.86676 9.8688,7.53693 14.9277,14.96315 17.5211,21.62738 2.6179,6.72703 2.7511,12.65802 2.9254,17.42657 0.1756,4.8005 0.423,8.40577 2.937,10.81839 2.5223,2.42049 7.3414,3.63525 15.8544,4.01929 8.5156,0.38408 20.7188,-0.0568 36.9278,-0.65707 16.1885,-0.59927 36.3622,-1.34707 59.7173,-1.42161 23.338,-0.0746 49.8798,0.53382 77.8567,2.65419 28.0375,2.12504 57.6089,5.78744 86.2412,11.69372 28.8441,5.94996 56.8857,14.22264 81.2399,25.29694 24.7079,11.23522 45.7797,25.44736 60.2107,42.80032 14.7627,17.75135 22.6675,38.94248 20.9013,63.33565 -1.8226,25.1697 -13.9849,53.951258 -38.7244,85.606587 -25.7299,32.922855 -65.252,69.160874 -119.6819,107.365683 -56.944,39.969337 -130.4049,82.21387 -219.6282,124.69067 -93.5616,44.54201 -204.3255,89.26617 -328.7967,131.4801 -130.1548,44.14138 -274.3343,85.20407 -425.7501,120.19183 -156.8969,36.25432 -319.41774,65.48512 -478.07767,85.15046 -161.91487,20.06884 -316.77702,29.79603 -454.72277,28.04075 -138.06341,-1.75682 -256.28743,-14.98265 -347.62462,-38.89812 -89.59598,-23.45993 -151.56296,-56.75016 -183.66785,-97.52322 -30.96563,-39.32581 -33.68033,-85.01804 -10.40889,-134.08521 22.19752,-46.8027 67.82771,-96.2442 131.904536,-145.53013 C 25.653184,84.937927 102.90966,38.436741 190.67443,-5.5974973 274.09311,-47.451246 367.13798,-87.150376 464.12155,-123.2196 c 92.6744,-34.46664 189.43832,-65.80896 285.36559,-93.16637 92.40481,-26.35294 184.74531,-49.21775 273.04116,-68.22975 85.8568,-18.48679 168.6507,-33.50097 245.3893,-45.06992 75.3414,-11.35827 145.5227,-19.50416 208.5421,-24.77529 62.4307,-5.22183 118.3465,-7.67251 166.7449,-7.93095 48.3124,-0.25785 89.462,1.65846 123.4522,5.00066 34.1229,3.35515 61.1988,8.1527 82.2044,13.56454 21.1581,5.45109 36.2243,11.52691 47.0152,17.43529 10.8792,5.95672 17.4399,11.73309 22.0563,16.70739 4.6481,5.00875 7.3481,9.18787 10.5958,12.21124 3.2611,3.03582 7.0946,4.89507 13.6067,5.62137 6.517,0.72708 15.7195,0.31964 28.8789,-0.81551 13.1337,-1.13293 30.1923,-2.98175 51.3655,-4.86579 21.1045,-1.87802 46.2906,-3.7811 74.6519,-4.89061 28.2946,-1.10682 59.7952,-1.41562 92.6706,-0.11188 32.9056,1.30488 67.3127,4.24106 100.7258,9.49628 33.6294,5.28927 66.4432,12.97074 95.5597,23.50973 29.5221,10.68582 55.4498,24.40144 74.7866,41.309 19.7756,17.29115 32.7999,38.07543 36.2495,62.13098 3.5594,24.82345 -3.0757,53.33965 -22.2013,84.848606 -19.9009,32.786745 -53.4853,69.034902 -102.0154,107.456605 -50.8231,40.237295 -118.246,83.004909 -201.7809,126.334349 -87.7434,45.51215 -193.1991,91.60028 -313.2572,135.63233 -125.8478,46.15547 -266.8985,89.73642 -416.7739,127.74273 -155.805,39.50996 -319.1115,72.47586 -480.66292,96.24139 C 794.83002,536.51354 634.2126,550.75477 488.50627,553.53892 342.0798,556.3369 213.79018,547.50411 111.21423,527.61091 10.211325,508.0229 -63.834879,478.10274 -108.07772,440.09482 c -42.8038,-36.77189 -57.03321,-80.52953 -44.52785,-128.26027 11.95429,-45.62743 48.20966,-94.42717 103.94088,-143.51189 C 4.3189284,121.65759 74.679623,74.921702 156.48213,30.393677 234.28209,-11.955551 322.50638,-52.35787 415.36484,-89.253752 504.10456,-124.5131 597.50586,-156.7487 690.53124,-185.0452 c 89.58163,-27.24886 179.47108,-51.0517 265.60751,-71.01532 83.70405,-19.39984 164.57985,-35.34711 239.59575,-47.86005 73.5831,-12.27413 142.1672,-21.35762 203.7565,-27.5919 60.9429,-6.16895 115.5209,-9.60476 162.7772,-10.89632 47.1052,-1.28742 87.2424,-0.46148 120.4912,1.72024 33.3218,2.1865 59.8817,5.73393 80.7454,9.81251 20.9734,4.10005 36.2525,8.73438 47.7325,13.12249 11.5481,4.41405 19.2766,8.56845 25.5983,11.86849 6.3508,3.31467 11.2999,5.75469 17.3235,7.03212 6.0339,1.27946 13.1561,1.38752 23.392,0.4085 10.2192,-0.97739 23.5322,-3.0318 41.091,-5.72493 17.4843,-2.68169 39.1554,-5.98441 65.077,-9.2112 25.7851,-3.2099 55.7744,-6.33524 88.9597,-8.55734 33.0498,-2.21302 69.3348,-3.52514 106.9595,-3.13348 37.605,0.39159 76.7062,2.49662 114.7797,6.98769 38.2769,4.51509 75.7508,11.48076 109.5378,21.35043 34.2301,9.99887 64.9331,23.06774 89.1215,39.36726 24.7242,16.66056 42.8369,36.85083 51.5096,60.36457 8.9479,24.25905 7.8989,52.2689 -5.4872,83.36686 -13.9322,32.364721 -41.3519,68.306716 -83.647,106.6009047 -44.3232,40.1300333 -105.1899,83.0115123 -182.3586,126.7585853 -81.1598,46.00989 -180.3476,92.9643 -294.8342,138.31104 -120.2545,47.63138 -256.6737,93.20006 -403.3303,133.73534 -152.9023,42.26173 -315.0448,78.52741 -477.4969,106.06404 -167.03478,28.3133 -331.40841,46.89088 -483.06461,54.19107 -153.02491,7.36615 -289.90114,3.09674 -402.60952,-12.45998 C 100.33901,524.18775 14.805592,498.09266 -41.376935,463.38518 -95.917178,429.69222 -121.90169,388.44156 -120.68142,342.63052 -119.51171,298.7253 -93.378815,251.10627 -46.872518,202.73121 -2.5831914,156.66154 59.958558,110.12405 134.84841,65.49314 206.14339,23.00438 288.65216,-17.780889 376.51263,-55.220293 c 83.99735,-35.793261 173.24895,-68.692297 262.62363,-97.725417 86.06241,-27.95718 172.83373,-52.53107 256.17731,-73.29816 80.95927,-20.17292 159.34873,-36.9269 232.09813,-50.27061 71.3119,-13.08007 137.8028,-23.00054 197.4829,-30.10733 58.9971,-7.02553 111.7887,-11.36296 157.4675,-13.61319 45.4762,-2.2402 84.1846,-2.43448 116.2878,-1.35255 32.1231,1.08265 57.7742,3.4372 78.1174,6.22916 20.4112,2.80129 35.5342,6.03727 47.3501,8.93615 11.8605,2.90977 20.4115,5.46943 28.1145,7.10948 7.7189,1.64341 14.6,2.35421 23.1061,1.88245 8.4982,-0.47121 18.6204,-2.12228 32.3166,-4.82743 13.6392,-2.69379 30.8031,-6.42135 52.5282,-10.71051 21.581,-4.26068 47.6344,-9.06094 78.1003,-13.6849 30.2399,-4.58965 64.8317,-8.99735 102.6638,-12.40121 37.6066,-3.38351 78.5011,-5.77405 120.7198,-6.37697 42.1304,-0.60234 85.7714,0.58311 128.3681,4.21384 42.769,3.64587 84.7643,9.79023 123.0996,18.87747 38.7984,9.19688 74.1542,21.49283 103.0903,37.04734 29.5546,15.88704 52.6605,35.32522 66.491,58.12315 14.2618,23.50951 18.7653,50.80598 11.1341,81.26369 -7.9407,31.69394 -29.1027,67.051379 -64.9794,104.910089 -37.6085,39.6859677 -91.5832,82.307708 -161.9029,126.067338 -74.0244,46.064713 -166.2054,93.407723 -274.1807,139.572163 -113.6043,48.57111 -244.1047,95.58096 -386.0456,138.11763 -148.3626,44.46135 -307.5098,83.51997 -468.921,114.4039 -166.528,31.86307 -332.5913,54.47604 -488.23068,66.13483 -157.66673,11.8107 -301.38323,12.13854 -422.79614,1.10687 C 206.28217,533.45698 110.21451,511.54318 42.648878,480.59665 -23.18171,450.44471 -60.843554,412.23529 -71.14731,368.91157 -81.050729,327.26804 -65.580313,281.37976 -29.016449,234.2475 5.8792034,189.26609 59.778183,143.39635 126.86934,99.095247 190.8283,56.862584 266.75184,16.057427 348.74659,-21.599265 427.19518,-57.6274 511.49731,-90.920219 596.44663,-120.44949 c 81.82371,-28.44286 164.77708,-53.58708 244.65669,-74.97807 77.58632,-20.77681 152.88054,-38.18373 222.77938,-52.21956 68.4884,-13.75268 132.3479,-24.38759 189.5981,-32.25612 56.5532,-7.77278 107.0703,-12.91135 150.6962,-16.03017 43.3863,-3.10182 80.2123,-4.23342 110.7281,-4.17945 30.4924,0.0539 54.8102,1.28131 74.2218,2.83991 19.4435,1.56092 34.0142,3.44615 45.7906,4.88952 11.796,1.44593 20.8086,2.43889 29.5556,2.43269 8.7446,-0.006 17.2342,-1.01635 27.9261,-3.24288 10.6557,-2.21903 23.493,-5.63946 40.3924,-10.09398 16.7872,-4.42483 37.5532,-9.85288 63.2218,-15.77663 25.4369,-5.8703 55.6556,-12.2105 90.4717,-18.2832 34.4813,-6.01427 73.4847,-11.75965 115.7928,-16.40798 41.9723,-4.61141 87.3049,-8.14665 133.9631,-9.81646 46.4804,-1.66349 94.502,-1.47558 141.4751,1.21277 47.0951,2.69527 93.458,7.93115 136.198,16.14162 43.2033,8.29954 83.0605,19.71771 116.6043,34.41358 34.2273,14.99537 62.1825,33.55054 81.0473,55.48786 19.4393,22.60563 29.3835,49.01535 27.4366,78.63825 -2.025,30.81238 -16.9511,65.34628 -46.3571,102.501478 -30.8243,38.947466 -77.7361,80.9780847 -140.9079,124.383723 -66.5346,45.716126 -151.1881,93.004379 -251.9386,139.513339 -106.1371,48.99534 -229.6706,96.90598 -365.6213,140.90346 -142.4071,46.08683 -296.9113,87.38542 -455.4656,121.1231 -164.0816,34.91365 -329.7893,61.1556 -487.382,76.89307 C 731.08142,543.64296 582.45875,548.46487 454.0312,542.01074 326.03853,535.57824 220.72253,518.08299 142.68361,491.25873 66.355868,465.02241 17.438047,430.32348 -4.3116689,390.01283 -25.286104,351.13974 -20.762758,307.52145 5.3558554,262.17049 30.344765,218.78138 74.924795,174.07203 133.44302,130.56417 189.32632,89.015407 257.85909,48.590258 333.15947,11.081448 c 72.12411,-35.926617 150.68724,-69.304998 230.43317,-99.052249 76.85829,-28.669959 155.27651,-54.149299 230.99684,-75.951619 73.55969,-21.18021 145.11986,-39.05689 211.54942,-53.61857 65.0774,-14.26542 125.7307,-25.46769 179.9908,-33.96437 53.573,-8.38908 101.2871,-14.20802 142.3437,-18.08729 40.7965,-3.85467 75.2462,-5.82509 103.6943,-6.71353 28.391,-0.88677 50.912,-0.71043 68.9472,-0.32185 18.0361,0.38771 31.6271,0.97578 42.9599,1.00209 11.3299,0.0265 20.4199,-0.51732 29.8561,-2.15567 9.4124,-1.63429 19.1757,-4.35791 31.751,-8.34696 12.5022,-3.96588 27.7692,-9.16881 47.6188,-15.39865 19.6671,-6.17271 43.7937,-13.33091 73.1933,-20.92942 29.0622,-7.51134 63.2397,-15.43402 102.2245,-23.0062 38.5202,-7.48201 81.7546,-14.61725 128.3763,-20.56834 46.1555,-5.89151 95.7616,-10.63121 146.7076,-13.43223 50.6588,-2.78523 102.9018,-3.66032 154.1015,-1.98455 51.2499,1.6772 101.8192,5.93021 148.8072,13.18535 47.4319,7.32364 91.62,17.77822 129.6058,31.52234 38.7146,14.00787 71.3419,31.57335 95.074,52.53161 24.4315,21.57639 39.6481,46.95725 43.2437,75.58443 3.7373,29.75645 -5.0688,63.26703 -28.0609,99.4909 -24.0934,37.958958 -63.9155,79.112211 -119.8029,121.841411 -58.8724,45.011245 -135.6797,91.844939 -228.7109,138.262089 -98.0891,48.94073 -213.8565,97.23686 -342.7859,142.16266 -135.2866,47.14123 -283.7315,90.10783 -437.8,126.16119 -159.8687,37.41066 -323.2836,66.79384 -480.8226,86.22534 C 875.89004,525.34845 724.39682,534.43148 590.82776,532.47189 457.17771,530.51107 344.18107,517.5408 256.90384,495.08145 171.20042,473.02727 111.79092,442.21916 79.007781,405.38054 47.281693,369.73089 40.866574,328.88692 56.292626,285.84016 71.093119,244.53892 105.87304,201.48869 155.19983,159.255 202.40474,118.83787 262.8451,79.220187 330.69836,42.256558 395.78499,6.8001367 467.86118,-26.321186 541.65053,-55.97293 c 71.18326,-28.604636 144.35221,-54.14923 215.21028,-76.11696 68.87008,-21.35142 136.03873,-39.48333 198.35444,-54.37491 61.05445,-14.59008 117.89555,-26.18544 168.57215,-35.15131 50.0216,-8.84988 94.3662,-15.20544 132.2981,-19.7156 37.6678,-4.47884 69.2063,-7.17073 95.0634,-8.89931 25.7794,-1.7235 46.0006,-2.50548 62.1738,-3.21431 16.1509,-0.70783 28.2989,-1.35367 38.7507,-2.69937 10.4296,-1.34286 19.1854,-3.38879 28.9321,-6.64276 9.7013,-3.23895 20.3876,-7.66898 34.5315,-13.42938 14.0283,-5.71321 31.435,-12.71397 53.9788,-20.74769 22.2811,-7.94016 49.5316,-16.86055 82.4552,-26.17613 32.4641,-9.18572 70.4038,-18.73436 113.384,-27.8567 42.3678,-8.99248 89.662,-17.56821 140.4455,-24.87767 50.1662,-7.22064 103.8885,-13.2197 158.9766,-17.21019 54.6713,-3.96035 110.9809,-5.95666 166.2574,-5.35446 55.2354,0.60167 109.8464,3.80951 160.9202,10.0438 51.4772,6.28352 99.815,15.70472 142.0618,28.42178 43.0003,12.94372 80.0985,29.43447 108.5007,49.31901 29.2063,20.44742 49.4842,44.68593 58.4269,72.1877 9.287,28.56019 6.4128,60.88482 -10.3124,95.98955 -17.515,36.76332 -50.34,76.798698 -98.9469,118.575553 -51.1949,44.000614 -120.0189,90.030092 -205.0381,135.964607 -89.6835,48.4546 -197.1263,96.66044 -318.2521,142.00941 -127.2654,47.64771 -268.4934,91.71573 -416.6778,129.5284 -154.1168,39.3265 -313.4772,71.30923 -469.0656,93.97064 C 1023.369,500.77036 871.04603,513.76938 734.30487,516.09353 596.95275,518.42816 478.05339,509.95448 383.04223,491.97399 289.37132,474.24667 220.55684,447.60099 177.48679,414.60304 135.652,382.551 118.61902,344.92787 123.39471,304.6688 c 4.59653,-38.74768 29.32956,-79.65306 69.04675,-120.13159 38.1024,-38.83278 89.89514,-77.20039 149.66445,-113.19968 57.43732,-34.594462 122.35386,-67.0877293 189.4868,-96.299743 64.84468,-28.216321 132.07912,-53.524726 197.38624,-75.379657 63.52666,-21.25899 125.6454,-39.40057 183.19386,-54.3955 56.40647,-14.69725 108.80989,-26.48273 155.28269,-35.73084 45.8726,-9.12878 86.2505,-15.85163 120.4653,-20.83906 33.9633,-4.95068 62.017,-8.22491 84.7182,-10.67134 22.6148,-2.43715 39.9903,-4.07025 53.7726,-5.78621 13.7463,-1.71144 23.947,-3.51634 33.0403,-6.17939 9.0595,-2.65309 17.0359,-6.16087 26.6842,-11.01005 9.5838,-4.81668 20.819,-10.94431 36.1992,-18.48517 15.218,-7.46138 34.4641,-16.27679 59.4416,-26.14547 24.6253,-9.72928 54.7615,-20.44665 91.0049,-31.52398 35.6488,-10.89547 77.1595,-22.11534 123.9702,-32.83965 46.0328,-10.54609 97.2255,-20.61274 152.0263,-29.33462 54.0138,-8.59669 111.7035,-15.90709 170.7964,-21.14122 58.5253,-5.18387 118.7519,-8.35342 177.9605,-8.87827 59.0549,-0.52345 117.545,1.58665 172.5415,6.74535 55.3388,5.19081 107.64,13.52229 153.9601,25.15212 47.0747,11.81936 88.4291,27.16891 121.2858,45.90563 33.7418,19.2414 58.8408,42.24946 72.8982,68.52394 14.5817,27.25455 17.3958,58.26494 6.7232,92.09931 -11.1673,35.40196 -37.1831,74.12358 -78.6298,114.718334 -43.632,42.735099 -104.4913,87.662635 -181.384,132.77461 -81.1195,47.591506 -179.9041,95.281636 -292.6838,140.588976 -118.6033,47.6469 -251.7241,92.27496 -392.883,131.29628 -147.0862,40.65966 -300.8628,74.67391 -452.777,100.04737 -155.9677,26.05043 -307.1573,42.52993 -445.09719,48.81692 C 742.43076,499.7039 619.53213,495.56982 518.4952,482.04932 418.48641,468.66658 341.63241,446.3334 289.33134,417.43623 238.33455,389.25959 211.32224,355.22254 205.796,318.1726 200.45893,282.39313 215.16526,244.08378 245.0924,205.82216 273.88272,169.01417 316.65779,132.33881 367.86276,97.731827 417.17621,64.403381 474.37392,32.927704 534.2395,4.5229197 592.15849,-22.958082 652.83064,-47.701503 711.94081,-69.136647 c 57.56359,-20.874396 113.99415,-38.750093 166.13027,-53.591693 51.13806,-14.55745 98.47308,-26.30028 140.10822,-35.6149 41.1097,-9.19713 76.8999,-16.09025 106.7759,-21.37426 29.6533,-5.24467 53.6113,-8.9374 72.5518,-11.95605 18.858,-3.00558 32.7973,-5.36086 43.6147,-7.97626 10.7782,-2.60575 18.4814,-5.47966 25.6959,-9.39303 7.1771,-3.89289 13.8877,-8.81281 22.9935,-15.23023 9.0272,-6.3621 20.4079,-14.17513 36.667,-23.50393 16.052,-9.20966 36.8199,-19.85717 63.9583,-31.59323 26.6898,-11.54204 59.4699,-24.0933 98.8279,-36.97962 38.6153,-12.64316 83.5099,-25.58151 133.9913,-37.96117 49.5209,-12.1442 104.4583,-23.75251 163.14,-33.94073 57.706,-10.01883 119.2241,-18.69074 182.1904,-25.21976 62.2299,-6.45266 126.2319,-10.84315 189.2326,-12.54294 62.7158,-1.69214 124.9274,-0.72516 183.6859,3.31205 59.0193,4.05508 115.0994,11.2513 165.301,21.74611 50.9363,10.64856 96.3272,24.80591 133.4113,42.33834 38.0267,17.97788 67.6901,39.68924 86.6041,64.65919 19.5933,25.86689 27.8149,55.46522 22.9292,87.91207 -5.1058,33.91231 -24.5742,71.16549 -59.072,110.392793 -36.2882,41.263647 -89.3284,84.843896 -158.1336,128.845831 -72.5682,46.408633 -162.5585,93.213396 -266.6723,138.064466 -109.5434,47.19025 -233.9271,91.87878 -367.1836,131.58319 -139.0532,41.43138 -285.9761,76.90814 -432.7179,104.44862 -151.0304,28.3454 -299.2797,47.80667 -436.5205,57.64643 -138.81881,9.95297 -263.77506,9.88623 -369.0134,0.68201 -104.5676,-9.14573 -187.88126,-27.14218 -248.09399,-51.79774 -58.94049,-24.13421 -94.99762,-54.31797 -110.17453,-87.8192 -14.70876,-32.46816 -9.72633,-67.78551 10.49421,-103.40823 19.51095,-34.37379 53.11861,-68.93267 95.47132,-101.72628 40.88936,-31.660493 89.95734,-61.722496 142.07057,-88.939768 50.51626,-26.3832763 104.0894,-50.212974 156.42639,-70.897879 51.04275,-20.173366 101.19316,-37.4814 147.30446,-51.885272 45.27463,-14.142571 86.92461,-25.581321 123.09148,-34.717121 35.73279,-9.02621 66.30249,-15.86322 91.19879,-21.23466 24.715,-5.33237 43.938,-9.25207 58.477,-12.67109 14.4709,-3.40316 24.3424,-6.32792 31.5747,-9.71277 7.2,-3.36987 11.8086,-7.20411 16.5751,-12.28474 4.7359,-5.04724 9.6507,-11.31763 17.7261,-19.26707 7.9912,-7.86663 19.0793,-17.3472 35.8297,-28.46814 16.5004,-10.95505 38.4505,-23.45127 67.4597,-37.08814 28.4604,-13.37893 63.6319,-27.80304 105.8938,-42.54796 41.3603,-14.43046 89.4505,-29.137 143.444,-43.22748 52.8358,-13.78837 111.3687,-26.99037 173.801,-38.69935 61.2503,-11.48723 126.4636,-21.57018 193.181,-29.44385 65.7924,-7.76454 133.4348,-13.42067 200.0957,-16.33952 66.2246,-2.89975 132.0069,-3.11568 194.3723,-0.23937 62.5246,2.88371 122.2031,8.90797 176.0971,18.23023 54.5879,9.44223 103.7945,22.36935 144.8768,38.65576 42.0572,16.67282 76.0191,37.04015 99.5177,60.6494 24.3063,24.42054 37.6305,52.53591 38.2331,83.50765 0.6288,32.3279 -12.6061,67.99539 -40.4352,105.71071 -29.2431,39.631877 -74.7115,81.668902 -135.5901,124.3246307 -64.1713,44.9629563 -145.4019,90.5707563 -240.723,134.6057593 -100.304,46.33716 -215.5632,90.63857 -340.2956,130.54059 -130.2924,41.68064 -269.3669,78.07092 -409.6906,107.23155 -144.7246,30.07515 -288.4358,51.9826 -423.2299,64.90296 -136.7552,13.10836 -261.87462,16.7419 -369.4555,11.59848 C 698.67431,438.02932 610.62054,424.27095 544.01526,403.87557 478.56576,383.83424 434.65666,357.6614 410.76224,327.94986 387.5193,299.04832 383.36335,267.0451 394.23423,234.42434 c 10.52468,-31.58043 35.05735,-63.63482 68.49227,-94.21831 32.36919,-29.60849 73.07864,-57.868553 117.11266,-83.517625 42.78161,-24.919492 88.84161,-47.4764293 133.9336,-67.065491 44.056,-19.138983 87.41011,-35.556736 126.94239,-49.214563 38.86801,-13.428367 74.25379,-24.275033 104.34559,-32.958792 29.75813,-8.587439 54.48322,-15.112829 73.75376,-20.332659 19.1393,-5.18418 32.9685,-9.10961 42.4363,-12.72797 9.4239,-3.60155 14.5575,-6.91543 17.5402,-10.91442 2.968,-3.97901 3.8348,-8.64227 5.5338,-14.78723 1.6858,-6.09772 4.2243,-13.64109 10.7333,-23.07353 6.4307,-9.31894 16.744,-20.44053 33.5595,-33.35201 16.5307,-12.69277 39.294,-27.05152 69.8591,-42.62158 29.9163,-15.2397 67.2114,-31.57627 112.1537,-48.23119 43.8747,-16.25922 94.9675,-32.78564 152.3129,-48.64458 55.9768,-15.48031 117.9579,-30.32973 184.0141,-43.61501 64.6512,-13.00271 133.4323,-24.54625 203.7836,-33.8138 69.22,-9.11856 140.3756,-16.08318 210.5708,-20.26253 69.59,-4.14329 138.7982,-5.57794 204.6222,-3.89676 65.8624,1.68221 128.9649,6.50457 186.3687,14.62462 58.0349,8.20934 110.8409,19.87854 155.6929,34.88913 45.8358,15.33982 83.8298,34.33094 111.6358,56.54101 28.7138,22.93533 46.8234,49.51943 52.5939,78.95452 6.0141,30.67746 -1.3364,64.67516 -22.8265,100.77022 -22.5531,37.88126 -60.7724,78.22452 -113.9827,119.346466 -56.04,43.30857273 -128.6837,87.464425 -215.251,130.380501 -91.071,45.148543 -197.0333,88.673803 -312.8554,128.338383 -121.0602,41.4583 -251.5606,78.25097 -384.4878,108.50355 -137.3208,31.2524 -275.1445,55.06001 -405.9445,70.55182 -133.0554,15.75897 -256.565,22.65502 -364.67498,21.22527 C 844.02003,413.87115 753.00371,404.14153 681.65281,387.90691 611.27555,371.89412 560.9116,349.775 529.47177,323.98716 c -30.69692,-25.17866 -43.1411,-53.63491 -40.9926,-82.96701 2.07937,-28.49498 17.89405,-57.71091 42.58612,-85.72929 23.97688,-27.20675 56.30757,-53.30048 92.12552,-77.015143 34.88767,-23.098982 73.1755,-44.025857 110.68735,-62.169078 36.72716,-17.7636853 72.87455,-32.955795 105.36351,-45.542494 31.99692,-12.396006 60.60285,-22.34027 84.0623,-30.273749 23.22788,-7.855294 41.50999,-13.785427 54.52317,-18.5848 12.93472,-4.770394 20.70792,-8.449481 24.42016,-12.035167 3.696,-3.569785 3.3907,-7.06191 1.4203,-11.490399 -1.9597,-4.40502 -5.52844,-9.73946 -7.57034,-16.82168 -2.0245,-7.02159 -2.4981,-15.74059 1.8546,-26.59066 4.29434,-10.70394 13.30284,-23.42795 29.71234,-38.11981 16.1006,-14.4148 39.2706,-30.64505 71.0457,-48.17808 31.0302,-17.12201 70.1577,-35.41038 117.5406,-54.02745 46.144,-18.13034 100.036,-36.52995 160.5664,-54.21674 58.9396,-17.22202 124.2192,-33.77421 193.7729,-48.69277 67.9106,-14.56618 140.1357,-27.62072 214.0078,-38.33159 72.5177,-10.51449 147.0649,-18.8297 220.6758,-24.30947 72.8179,-5.42078 145.3161,-8.10701 214.4569,-7.65169 69.0407,0.4547 135.401,4.0502 196.1376,10.94456 61.2851,6.95665 117.4821,17.34837 165.8811,31.06296 49.3683,13.9893 91.1322,31.58463 122.9687,52.37172 32.8175,21.42744 55.3913,46.451 66.0002,74.30945 11.0385,28.98576 9.2022,61.25763 -6.3097,95.65613 -16.2559,36.04744 -47.6006,74.58696 -93.474,114.03159 -48.2581,41.495173 -112.5954,83.9978567 -190.5823,125.547069 -81.9969,43.685408 -178.6738,86.105791 -285.4084,125.153611 -111.5867,40.82276 -233.0416,77.55652 -357.851,108.40697 -129.0933,31.90939 -259.9429,57.08208 -385.4375,74.62429 -127.946,17.88491 -248.2522,27.56061 -355.196,29.42924 -107.34704,1.87568 -199.56819,-4.12865 -273.96932,-16.40735 -73.64924,-12.15485 -128.93716,-30.28853 -166.56486,-52.12929 -36.87592,-21.40409 -56.53053,-46.17879 -62.23027,-72.02455 -5.55716,-25.19642 2.12025,-51.31141 18.48984,-76.46792 15.94703,-24.50625 40.10435,-48.1092 67.78013,-69.553353 27.03213,-20.94585 57.47202,-39.901285 87.2333,-56.25648 C 796.40671,23.88716 825.0736,10.25851 850.17533,-0.92393527 874.94587,-11.95894 896.3508,-20.67523 912.69686,-27.540429 c 16.2107,-6.808289 27.50609,-11.834949 33.66745,-15.917371 6.13125,-4.062475 7.20023,-7.212506 4.47223,-10.500906 -2.71773,-3.275879 -9.17997,-6.702812 -16.83803,-11.343452 -7.61741,-4.615993 -16.35973,-10.433196 -22.86658,-18.297503 -6.44651,-7.791895 -10.62336,-17.564829 -9.07445,-29.746299 1.52651,-12.00218 8.64437,-26.27439 24.1249,-42.72389 15.16135,-16.11043 38.28787,-34.2131 70.88838,-53.73383 31.76664,-19.02158 72.40654,-39.29884 121.96584,-59.92972 48.1482,-20.04337 104.6195,-40.37021 168.1561,-59.94608 61.7142,-19.01446 130.1375,-37.32625 203.0586,-53.9368 71.0261,-16.1789 146.5714,-30.79584 223.8532,-43.00005 75.6892,-11.95272 153.5105,-21.66037 230.4218,-28.47979 75.916,-6.73116 151.5735,-10.70029 223.8969,-11.49916 72.0672,-0.79613 141.5267,1.55141 205.4275,7.20035 64.3485,5.68923 123.736,14.7902 175.467,27.19599 52.6643,12.62956 97.943,28.81949 133.5392,48.17121 36.623,19.91007 63.3438,43.35928 78.4601,69.61909 15.6994,27.27303 19,57.78659 9.0866,90.4393 -10.3715,34.16125 -35.252,70.82204 -74.1691,108.48514 -40.8839,39.566862 -97.2764,80.263641 -166.9603,120.2494907 -73.2023,42.0050523 -160.7548,83.0511163 -258.4015,121.1600893 -102.0718,39.83628 -214.233,76.10551 -330.4468,107.10613 -120.3003,32.09061 -243.3538,58.12265 -362.4825,77.20298 -121.6801,19.48904 -237.4081,31.44065 -341.6596,36.14846 -104.9334,4.7388 -196.6922,2.08408 -272.47183,-6.53272 -75.26663,-8.5585 -133.88177,-22.87755 -176.22289,-40.85372 -41.64461,-17.68075 -67.25266,-38.74162 -79.72059,-60.99931 -12.19846,-21.77617 -11.82328,-44.60801 -3.11927,-66.6782 8.5073,-21.57151 24.92636,-42.41478 44.75558,-61.2974 19.42669,-18.499553 42.14487,-35.172383 64.17509,-49.419504 21.67863,-14.019291 42.7568,-25.756849 60.27655,-35.204937 17.32806,-9.344919 31.23518,-16.5015343 40.09589,-21.9686383 8.80376,-5.432184 12.65086,-9.227769 11.43078,-12.273309 -1.21575,-3.0350107 -7.45749,-5.3444537 -17.28883,-8.0396447 -9.80325,-2.687203 -23.14314,-5.771128 -37.24066,-10.371748 -14.02701,-4.577514 -28.71679,-10.654966 -40.45907,-19.113298 -11.62991,-8.377439 -20.25773,-19.053793 -22.22084,-32.454711 -1.93258,-13.190031 2.64835,-28.93576 16.61715,-47.10381 13.6585,-17.76468 36.23938,-37.72938 69.23348,-59.25455 32.084,-20.93127 73.87854,-43.22995 125.31876,-65.92415 49.8587,-21.99635 108.6678,-44.30409 175.0141,-65.83048 64.2865,-20.85824 135.6869,-40.98766 211.8378,-59.35023 73.9919,-17.84214 152.7306,-34.07389 233.3096,-47.82248 78.7343,-13.43378 159.7144,-24.57613 239.8147,-32.77429 78.8867,-8.07395 157.5788,-13.35642 232.9556,-15.43637 74.9488,-2.06813 147.3571,-0.98763 214.2617,3.40164 67.2331,4.41071 129.62,12.21204 184.4772,23.30178 55.7342,11.26699 104.2833,26.04939 143.3766,43.96253 40.1416,18.39353 70.6992,40.26666 89.9964,64.92037 20.0033,25.55543 28.0628,54.29772 23.3622,85.17786 -4.9086,32.24814 -23.7527,66.98498 -56.1258,102.79581 -33.9551,37.56156 -82.82,76.342834 -144.5553,114.615628 -64.7787,40.1593107 -143.4846,79.617199 -232.1876,116.522179 -92.679,38.559043 -195.4922,74.017283 -302.8476,104.772403 -111.1767,31.84992 -225.8632,58.27724 -337.8144,78.40936 -114.5134,20.59291 -224.5278,34.31763 -324.7681,41.38505 -101.1359,7.13076 -190.912,7.40024 -266.4878,2.08385 -75.2965,-5.29659 -135.64884,-16.05895 -181.17779,-30.34875 -44.93522,-14.10356 -75.12128,-31.51714 -93.11896,-50.18321 -17.67083,-18.32687 -23.57804,-37.78276 -21.67241,-56.62416 1.86928,-18.47853 11.20352,-36.361 23.70375,-52.45066 12.28547,-15.81328 27.61991,-29.937393 42.14306,-41.792713 14.33226,-11.699729 27.90084,-21.242274 37.81903,-28.642002 9.83544,-7.337792 16.10086,-12.607708 17.24287,-16.34541 1.13715,-3.721849 -2.81302,-5.947667 -11.84802,-7.619078 -9.01979,-1.668699 -23.11196,-2.801306 -40.66109,-4.578042 C 857.9719,18.669964 837.05458,16.240791 815.76685,11.968626 794.57146,7.7150147 773.13724,1.6372217 755.35007,-7.1905063 737.73464,-15.933442 723.85585,-27.329007 717.61029,-41.806651 c -6.14239,-14.238756 -4.8092,-31.358025 7.00053,-51.184314 11.53136,-19.358345 33.00455,-41.159315 65.9058,-64.693635 31.93223,-22.84098 74.47928,-47.18641 127.46531,-71.98832 51.24161,-23.98544 112.11707,-48.32552 181.05177,-71.86331 66.6354,-22.75264 140.8297,-44.75812 220.0596,-64.9335 76.7988,-19.55634 158.596,-37.45639 242.355,-52.80129 81.6496,-14.95841 165.6712,-27.5782 248.8495,-37.1946 81.7328,-9.44924 163.3377,-16.07502 241.6433,-19.46225 77.6911,-3.36065 152.9036,-3.56421 222.6578,-0.44919 69.9484,3.12372 135.1527,9.61977 192.94,19.39033 58.5889,9.906 110.1746,23.28459 152.5132,39.76286 43.3845,16.88528 77.4811,37.19017 100.6421,60.2415 23.9596,23.84602 36.4077,50.81938 36.5365,79.91835 0.1343,30.32892 -13.1075,63.12098 -39.3649,97.03702 -27.4928,35.51173 -69.2825,72.30439 -123.478,108.755287 C 2537.5997,-33.07707 2467.375,4.6290217 2387.3583,40.116834 2303.8204,77.166217 2210.25,111.525 2111.8308,141.69407 c -101.9273,31.24442 -207.9002,57.65274 -312.0994,78.38829 -106.6934,21.2318 -210.1042,36.2458 -305.2394,45.19314 -96.1758,9.04506 -182.6342,11.7864 -256.5651,9.36305 -73.8607,-2.42136 -134.431,-9.95317 -181.6379,-20.81515 -46.7423,-10.75538 -80.07585,-24.67881 -102.26657,-39.84253 -21.86286,-14.9396 -32.8838,-31.01778 -36.7367,-46.57472 -3.79141,-15.30973 -0.69152,-30.10772 5.20276,-43.24323 5.812,-12.95213 14.31044,-24.319473 21.75979,-33.549463 7.37383,-9.13677 13.71214,-16.218081 16.20454,-21.285365 2.47841,-5.038998 1.13768,-8.113846 -5.50632,-9.800646 -6.63319,-1.683889 -18.58223,-2.000596 -35.73783,-1.952603 -17.16292,0.04804 -39.54447,0.446273 -65.3466,-0.06246 C 828.05988,57.003721 798.91278,55.572449 769.70886,51.952714 740.60277,48.345183 711.62306,42.565523 686.9575,33.63277 662.52309,24.783544 642.54753,12.891143 631.19277,-2.4847683 620.03119,-17.599254 617.34007,-35.961468 626.27431,-57.359122 c 8.71248,-20.86709 28.45084,-44.458108 60.71055,-69.990658 31.25327,-24.73602 74.09598,-51.14274 128.24579,-78.08955 52.25443,-26.00354 114.88745,-52.4233 186.15905,-78.03091 68.7326,-24.69549 145.5155,-48.63445 227.6551,-70.6834 79.43,-21.32151 164.1392,-40.94368 250.9521,-57.93753 84.4274,-16.52707 171.3695,-30.66762 257.5117,-41.74203 84.4526,-10.85726 168.8491,-18.85654 249.9603,-23.57693 80.298,-4.67302 158.175,-6.17724 230.6307,-4.34877 72.5013,1.82956 140.3496,7.01695 200.8794,15.46788 61.2387,8.54987 115.6387,20.53211 160.9827,35.58423 46.3648,15.3912 83.7151,34.14273 110.4345,55.60415 27.5826,22.15448 44.0604,47.37323 48.6428,74.69683 4.7664,28.41989 -3.3034,59.26606 -23.8791,91.2679 -21.5027,33.44354 -56.688,68.20555 -103.7855,102.76067 -49.271,36.150348 -111.4416,71.985251 -183.1137,105.89062873 C 2353.5143,34.872979 2268.9552,67.899062 2179.3981,97.195505 2086.676,127.52735 1989.5663,153.55612 1893.4804,174.4921 c -98.4479,21.45073 -194.6005,37.30242 -283.7647,47.66618 -90.2844,10.49395 -172.2996,15.24777 -243.3197,15.28454 -71.1249,0.0371 -130.5132,-4.63946 -177.9615,-12.39473 -47.1222,-7.70208 -82.178,-18.36954 -107.1873,-30.20408 -24.7204,-11.69768 -39.5937,-24.48338 -48.0393,-36.78732 -8.3393,-12.14912 -10.4643,-23.82077 -10.2754,-33.91839 0.1878,-9.98967 2.5911,-18.46051 3.6013,-24.893805 1.0031,-6.38853 0.595,-10.7936 -3.9592,-13.28817 -4.5429,-2.48812 -13.2581,-3.09124 -27.56484,-2.43005 -14.32168,0.66178 -34.30008,2.58159 -59.72165,4.69081 -25.49433,2.11532 -56.46934,4.40714 -90.94675,5.53279 -34.54487,1.12786 -72.49358,1.06577 -110.28512,-1.54547 C 696.3407,89.599575 659.0329,84.455895 626.65085,75.724095 594.55291,67.068741 567.60101,54.944044 550.25959,38.889226 533.21644,23.110676 525.66008,3.6724087 530.9306,-19.177245 c 5.1349,-22.261434 22.44011,-47.570952 53.43752,-75.069189 29.98248,-26.597836 72.60438,-55.065506 127.47882,-84.182756 52.84613,-28.04106 116.88277,-56.58052 190.19877,-84.31146 70.54494,-26.68278 149.68049,-52.61012 234.53609,-76.59201 81.864,-23.13653 169.321,-44.53426 259.0471,-63.2298 87.0577,-18.13963 176.789,-33.84458 265.7748,-46.4173 87.0427,-12.29818 174.1064,-21.70108 257.9005,-27.78061 82.7699,-6.00521 163.1742,-8.82606 238.1874,-8.29599 74.8973,0.52931 145.2226,4.40577 208.315,11.53836 63.6934,7.20057 120.6961,17.79684 168.8156,31.43505 49.0965,13.91518 89.4286,31.13314 119.4146,51.02348 30.8869,20.48795 51.0505,43.97529 59.7233,69.54042 9.0017,26.53373 5.6832,55.44804 -9.6403,85.53488 -15.981,31.37808 -45.0382,64.09236 -85.4967,96.70703 -42.251,34.05955 -96.8326,67.94176 -160.5602,100.141026 -66.3749,33.5363347 -142.2487,65.046414 -223.1391,93.235192 -83.698,29.167089 -171.9593,54.509712 -259.7543,75.292392 -89.9782,21.29937 -178.4338,37.57797 -260.9818,48.92419 -83.6853,11.50246 -160.3498,17.81967 -227.391,19.87841 -67.2774,2.066 -124.2417,-0.1585 -170.6155,-5.17135 -46.178,-4.99171 -81.5926,-12.6984 -108.0649,-21.44651 -26.2469,-8.67358 -43.6731,-18.33039 -55.4743,-27.49387 -11.6906,-9.07765 -17.9153,-17.6632 -22.3918,-24.71931 -4.4431,-7.00365 -7.225,-12.51358 -11.8387,-16.04943 -4.5963,-3.522713 -11.071,-5.099233 -22.092,-4.837123 -11.0262,0.26226 -26.6779,2.360883 -48.3198,5.628663 -21.7291,3.28094 -49.56724,7.73819 -83.21303,12.23372 -33.83329,4.52057 -73.53803,9.06508 -116.96337,12.19747 -43.61039,3.14573 -90.81579,4.83984 -137.77696,3.62408 -46.94757,-1.21538 -93.31431,-5.34873 -134.23051,-13.53156 C 535.21932,110.50976 500.39806,98.461757 476.15541,81.992627 452.32675,65.80494 439.00647,45.49914 439.75526,21.355147 c 0.72901,-23.5056763 14.82659,-50.430582 43.86586,-79.835383 28.04948,-28.402339 69.86295,-58.910684 124.95791,-90.208314 52.9586,-30.08408 117.99103,-60.77272 193.01158,-90.67288 72.02845,-28.70775 153.24441,-56.67365 240.58969,-82.64502 84.0739,-24.99853 174.0914,-48.22368 266.57,-68.67272 89.5228,-19.79548 181.9005,-37.10805 273.5991,-51.21931 89.4943,-13.77192 179.0954,-24.60899 265.4445,-32.07354 85.1055,-7.35706 167.8997,-11.51055 245.3278,-12.2902 77.1389,-0.77677 149.7795,1.78716 215.2608,7.6038 65.9612,5.85935 125.3638,15.08147 176.0394,27.32026 51.5912,12.4598 94.647,28.16746 127.6207,46.50997 33.8891,18.85149 57.4098,40.63709 69.8243,64.46884 12.8564,24.67943 13.8839,51.68779 3.3936,79.87307 -10.9172,29.33168 -34.3176,60.00109 -68.601,90.65426 -35.7334,31.9491 -83.2123,63.82869 -139.4349,94.233894 -58.4677,31.619417 -126.0507,61.474182 -198.5616,88.367015 -74.9596,27.801187 -154.5185,52.202779 -234.0015,72.528158 -81.4533,20.829113 -161.9634,37.170023 -237.4511,49.101813 -76.5907,12.10618 -147.2081,19.56083 -209.4049,23.21274 -62.5198,3.6709 -115.9989,3.48448 -160.133,0.82525 -44.0513,-2.65416 -78.5671,-7.73856 -105.2161,-13.69703 -26.4962,-5.92435 -45.1935,-12.68229 -59.094,-18.88971 -13.8124,-6.16828 -22.9464,-11.78461 -30.956,-15.87366 -7.9751,-4.07181 -14.9066,-6.63404 -24.1791,-7.24734 -9.2687,-0.61294 -20.9569,0.72042 -37.6751,3.8563 -16.7814,3.14778 -38.7283,8.11948 -67.1687,14.20058 -28.6449,6.1248 -63.9621,13.37943 -105.5796,20.55398 -41.97327,7.23597 -90.34585,14.37402 -142.80834,19.87856 -52.82477,5.54257 -109.58731,9.39126 -166.17209,9.97353 -56.68556,0.58332 -112.75732,-2.1335 -162.9707,-9.38027 -49.88843,-7.19984 -93.46107,-18.81625 -125.53694,-35.38718 -31.54286,-16.29546 -51.57395,-37.213543 -56.2702,-62.449628 -4.57025,-24.558862 5.47096,-52.957992 31.77585,-84.177172 25.37772,-30.119456 65.7202,-62.622896 120.45801,-96.09013 52.5247,-32.1143 118.08221,-64.96703 194.41053,-97.071 73.13391,-30.76041 156.11194,-60.80799 245.68124,-88.81975 86.02474,-26.90307 178.38454,-52.00424 273.43054,-74.25658 91.8014,-21.49268 186.6623,-40.45503 280.9281,-56.14435 91.7941,-15.27788 183.7937,-27.57901 272.5637,-36.45459 87.2986,-8.72843 172.3426,-14.23034 252.0412,-16.3311 79.2281,-2.08837 154.0234,-0.83818 221.724,3.6655 68.047,4.5266 129.6541,12.38761 182.6761,23.24269 53.8593,11.02665 99.3922,25.24943 135.0884,42.07011 36.6041,17.24838 63.1695,37.36627 78.9928,59.49527 16.3489,22.86391 21.3341,48.00053 15.2723,74.30837 -6.2941,27.31656 -24.4971,55.95932 -53.0659,84.64868 -29.7146,29.84038 -70.5842,59.69268 -119.7608,88.2459 -51.0522,29.642148 -110.7829,57.740238 -175.2661,83.190231 -66.5838,26.27906473 -137.6869,49.532235 -208.9621,69.144192 -73.0125,20.090047 -145.4895,36.176024 -213.6501,48.338904 -69.1882,12.346173 -133.2618,20.545133 -189.9449,25.383243 -57.0513,4.86956 -106.1737,6.31222 -147.0748,5.61017 -40.9058,-0.70219 -73.4039,-3.52848 -99.052,-7.03123 -25.5655,-3.49144 -44.3144,-7.63207 -59.0897,-11.12682 -14.7242,-3.48262 -25.5636,-6.314593 -35.9286,-7.582873 -10.3532,-1.26695 -20.3138,-0.96976 -33.1731,1.28884 -12.8944,2.26465 -28.8007,6.513253 -50.287,12.566753 -21.6375,6.09615 -49.0524,14.04277 -83.5529,23.0795 -34.862,9.13131 -77.0595,19.38721 -126.1754,29.48641 -49.6929,10.21787 -106.44752,20.2562 -167.82427,28.47579 -61.9796,8.30037 -128.40766,14.6952 -194.90141,17.4863 -66.77415,2.80282 -133.06867,1.9331 -193.25074,-3.95777 -59.89508,-5.86148 -113.05691,-16.64791 -153.88931,-32.95866 -40.18743,-16.05328 -67.90462,-37.27811 -79.02231,-63.35415 -10.81838,-25.374253 -5.75385,-55.062742 16.9577,-87.963871 21.89132,-31.713552 60.01737,-66.134745 113.73865,-101.733955 51.47155,-34.108064 117.01316,-69.120424 194.18651,-103.447244 73.80224,-32.82728 158.17012,-64.98869 249.65076,-95.08397 87.67356,-28.84288 182.12102,-55.86364 279.51632,-79.96515 93.8649,-23.22783 191.0239,-43.87983 287.6907,-61.18514 93.9258,-16.8146 188.1699,-30.60892 279.2142,-40.92074 89.3408,-10.1189 176.487,-16.98478 258.3076,-20.41774 81.1616,-3.40532 157.9512,-3.46992 227.7027,-0.27634 69.9547,3.20301 133.576,9.71602 188.7397,19.20391 55.9107,9.61639 103.6843,22.38073 141.8488,37.70745 39.0455,15.6805 68.3584,34.16739 87.2734,54.62818 19.4977,21.09113 28.0703,44.39608 26.0497,68.85832 -2.0935,25.34153 -15.5424,51.9871 -38.8436,78.72478 -24.1832,27.7496 -58.933,55.57046 -101.5301,82.23756 -44.1375,27.63175 -96.4805,53.903597 -153.3325,77.799339 -58.6225,24.639934 -121.5921,46.579916 -184.859,65.2666547 -64.7636,19.1288583 -129.253,34.6893633 -189.9707,46.7724023 -61.6401,12.266454 -118.8483,20.854425 -169.5318,26.501967 -51.0603,5.689494 -95.1425,8.369774 -131.9945,9.234554 -36.9172,0.86631 -66.4373,-0.0761 -90.0435,-1.47774 -23.5821,-1.40024 -41.2649,-3.24077 -55.7646,-4.31069 -14.4868,-1.06904 -25.8602,-1.35745 -37.4103,-0.0126 -11.5699,1.3471 -23.4032,4.34601 -38.7133,9.35347 -15.4,5.03678 -34.429,12.13044 -59.6286,21.069103 -25.4592,9.0309 -57.3538,19.97807 -96.9963,32.03918 -40.1913,12.22801 -88.4611,25.62041 -144.3795,38.8279 -56.7637,13.40713 -121.3806,26.60176 -191.31226,37.83989 -70.84183,11.38452 -146.81658,20.69433 -223.29823,26.09678 -77.0161,5.4404 -153.87982,6.85533 -224.56523,2.76855 C 423.42306,242.4045 359.9176,232.8863 309.45037,217.2447 259.71893,201.83135 223.33478,180.65818 204.78474,154.04817 186.72945,128.14731 185.83304,97.404917 204.01458,63.000659 221.52852,29.858721 256.60969,-6.3648613 308.5696,-44.02521 c 49.71877,-36.03597 114.62404,-73.17854 192.10589,-109.72675 73.96665,-34.89026 159.2912,-69.18338 252.31275,-101.39354 88.97219,-30.80801 185.20733,-59.78393 284.69516,-85.77455 95.6791,-24.99574 194.919,-47.37323 293.7946,-66.3296 95.8667,-18.37953 192.1825,-33.69431 285.3397,-45.46642 91.2181,-11.52717 180.3089,-19.77169 264.0951,-24.54757 82.9329,-4.72723 161.5529,-6.10748 233.1842,-4.22056 71.6847,1.88828 137.1321,7.06677 194.2382,15.20417 57.7499,8.22919 107.5365,19.56218 147.9248,33.42327 41.2265,14.14865 73.0029,31.04282 94.707,49.87204 22.3198,19.36374 34.1274,40.88074 35.7786,63.53446 1.7064,23.41244 -7.4128,48.09842 -25.8796,72.90706 -19.1216,25.68886 -48.2293,51.48942 -84.7098,76.2553 -37.7231,25.60968 -83.1538,50.01153 -132.7962,72.271563 -51.1069,22.916784 -106.3156,43.415843 -161.8452,61.005026 -56.7891,17.98801 -113.4394,32.7960647 -166.7219,44.5311637 -54.0801,11.9107863 -104.2541,20.5732533 -148.6164,26.6887673 -44.717,6.164436 -83.2501,9.716721 -115.4122,11.775559 -32.26,2.065015 -58.0077,2.635986 -78.6839,2.974731 -20.6933,0.338987 -36.3218,0.4606 -49.5018,1.498219 -13.1993,1.039016 -24.0093,3.011432 -35.6213,6.712653 -11.6629,3.717535 -24.2234,9.201426 -40.8354,16.770992 -16.7583,7.636123 -37.7592,17.432993 -65.5356,29.150006 -28.1517,11.87521 -63.4166,25.76991 -107.1345,40.84552 -44.4707,15.33531 -97.8193,31.92127 -159.6368,48.34689 -62.9664,16.73078 -134.6878,33.27116 -212.5694,47.77481 -79.16112,14.7419 -164.31234,27.29475 -250.61989,35.68558 -87.17638,8.47528 -174.74115,12.61167 -256.28329,10.78484 C 412.81706,284.70184 338.34298,276.91986 277.44704,262.39959 217.34186,248.06782 171.34001,227.35661 144.33735,200.57528 118.03719,174.49101 110.14925,142.98465 122.79451,107.30942 134.9723,72.953046 166.09717,35.087699 215.46146,-4.5230083 262.64636,-42.385227 326.2114,-81.597417 403.38129,-120.33913 c 73.55443,-36.92644 159.33087,-73.34985 253.45924,-107.69085 89.86272,-32.78481 187.53314,-63.74046 288.80916,-91.65162 97.20321,-26.78869 198.27041,-50.92156 299.13111,-71.55954 97.5889,-19.96858 195.779,-36.82805 290.866,-50.08217 92.9138,-12.95118 183.7759,-22.58778 269.3586,-28.71613 84.5329,-6.05318 164.8118,-8.74927 238.1481,-8.16554 73.2335,0.58288 140.3182,4.44031 199.167,11.24387 59.382,6.86523 110.9586,16.79362 153.3337,29.21798 43.1552,12.65309 77.124,27.99302 101.3271,45.2285 24.831,17.68284 39.5395,37.4575 44.5095,58.34278 5.1239,21.53299 -0.069,44.30213 -14.1151,67.21176 -14.5106,23.66676 -38.4371,47.46933 -69.2535,70.33365 -31.798,23.59257 -70.7904,46.10107 -113.6569,66.66831 -44.0529,21.13661 -91.9048,40.098244 -140.0184,56.452123 -49.1452,16.704405 -98.1835,30.572854 -144.1353,41.732276 -46.6167,11.320835 -89.7137,19.783882 -127.5726,26.0635187 -38.1705,6.33130603 -70.8055,10.421945 -97.7987,13.326946 -27.1005,2.9166793 -48.4473,4.6449453 -65.4626,6.3694093 -17.0555,1.728544 -29.7855,3.467934 -40.732,6.280815 -10.9846,2.822635 -20.2388,6.745266 -30.8745,12.510947 -10.7082,5.804919 -22.9053,13.510492 -39.6987,23.401893 -16.9873,10.005719 -38.8034,22.300539 -67.9867,36.620519 -29.6678,14.557323 -67.1161,31.269773 -113.7375,49.270753 -47.5792,18.37093 -104.8603,38.12383 -171.4922,57.79464 -68.1053,20.10583 -145.9511,40.10173 -230.9348,58.04548 -86.68276,18.30238 -180.37541,34.36688 -276.08098,46.07774 -96.99078,11.86792 -195.13558,19.1376 -287.66102,20.02242 -92.76797,0.88703 -178.65666,-4.6727 -250.64052,-17.58658 C 188.44541,293.6527 131.94566,273.86198 95.495328,247.32817 59.956627,221.45799 44.022998,189.5364 50.072354,152.88048 55.898898,117.57774 82.081066,78.282777 127.92675,36.880019 171.71565,-2.6648183 233.14734,-43.84831 309.29871,-84.723359 381.78339,-123.63032 467.4304,-162.15821 562.15776,-198.62569 c 90.28008,-34.75536 188.97357,-67.70085 291.67871,-97.55193 98.38851,-28.59629 200.98693,-54.50613 303.56923,-76.84958 99.0587,-21.57584 198.8957,-39.9995 295.704,-54.75373 94.4045,-14.38788 186.8459,-25.4274 274.04,-32.91607 85.9477,-7.3816 167.7024,-11.3927 242.5591,-12.10785 74.5951,-0.71264 143.124,1.83754 203.5156,7.3241 60.8053,5.52423 113.9521,14.07488 158.081,25.09104 44.8394,11.19344 80.7365,25.0176 107.16,40.69722 27.0452,16.04851 44.3337,34.12716 52.2869,53.28571 8.1804,19.70489 6.5292,40.6031 -3.4917,61.64849 -10.3271,21.6886 -29.5146,43.5236 -55.1051,64.49679 -26.3465,21.59237 -59.3654,42.19999 -95.8897,61.03678 -37.4632,19.32113 -78.379,36.67445 -119.4287,51.68452 -41.8698,15.310082 -83.5784,28.086415 -122.3791,38.479316 -39.331,10.534939 -75.4097,18.563533 -106.7,24.740965 -31.5451,6.227799 -58.0708,10.557374 -79.5626,13.991216 -21.5895,3.449404 -38.062,6.001459 -50.8409,8.772946 -12.8242,2.781354 -21.9616,5.799103 -29.9019,10.052793 -7.9815,4.2757467 -14.8138,9.8240437 -23.5483,17.3409257 -8.8121,7.5839963 -19.642,17.2143273 -35.5661,29.1472863 -16.1475,12.100709 -37.6596,26.636151 -67.0944,43.325229 -30.0068,17.01347 -68.4258,36.343863 -116.72,57.105453 -49.4427,21.25519 -109.4027,44.06384 -179.6226,66.92071 -72.0202,23.44271 -154.8154,46.91448 -245.8297,68.38792 -93.168,21.98167 -194.50112,41.74903 -298.90117,57.04671 C 753.9951,343.32916 645.67331,354.0994 542.30476,358.12203 438.33859,362.16797 340.81703,359.31701 257.27063,348.51441 174.44151,337.80466 106.68267,319.43312 59.859068,293.61754 14.140436,268.41128 -10.885321,236.48253 -12.519074,199.19782 -14.093959,163.27448 6.0961324,122.81956 47.420799,79.836877 86.872713,38.801934 145.29143,-4.2099483 219.62472,-47.118666 290.30078,-87.91602 375.15237,-128.49231 469.89108,-167.05631 c 90.15344,-36.6974 189.39017,-71.6238 293.10377,-103.41859 99.18015,-30.40493 202.96214,-58.1019 306.95835,-82.1653 100.2357,-23.19324 201.457,-43.19406 299.7456,-59.46127 95.6628,-15.83262 189.4667,-28.28217 278.0659,-37.13598 87.1591,-8.70999 170.1915,-14.03341 246.3725,-16.04172 75.7583,-1.99713 145.5305,-0.73976 207.2584,3.44694 62.0188,4.20643 116.5135,11.40602 162.1647,21.04221 46.282,9.76937 83.8505,22.11575 112.2232,36.27692 28.9717,14.46025 48.5337,30.88901 59.1485,48.36297 10.8911,17.92837 12.4159,37.00288 6.044,56.22163 -6.5505,19.75758 -21.4193,39.66031 -42.204,58.76011 -21.348,19.6178 -48.8447,38.32855 -79.4533,55.41233 -31.331,17.4869 -65.7349,33.1819 -100.0896,46.7641 -34.985,13.83136 -69.683,25.39318 -101.5644,34.86107 -32.2838,9.587433 -61.4805,16.982135 -86.2307,22.827158 -24.942,5.890456 -45.2638,10.195004 -61.0483,13.872479 -15.8602,3.695254 -27.125,6.764854 -35.2356,10.267241 -8.1463,3.517964 -13.1452,7.489246 -17.4512,12.857837 -4.3342,5.403424 -8.0175,12.251383 -14.0533,21.197836 -6.1006,9.042518 -14.6757,20.2814087 -28.7795,33.948664 -14.3337,13.889914 -34.4986,30.369666 -63.0839,49.147084 -29.2162,19.192058 -67.4132,40.880891 -116.144,64.171401 -50.0373,23.91517 -111.3663,49.5884 -183.8572,75.48713 -74.5971,26.65124 -161.0155,53.52559 -256.7986,78.52486 -98.4042,25.6834 -206.2321,49.25321 -318.35028,68.32252 -114.445,19.46514 -232.24,34.03687 -346.01719,41.57645 -114.82721,7.60911 -223.92652,7.93315 -319.27454,-0.25138 C 176.54742,379.68233 96.942418,363.25479 38.93904,338.67221 -17.800809,314.62488 -52.912743,283.15293 -63.315651,245.65487 -73.347197,209.4961 -60.239058,168.21234 -24.506101,123.92177 9.6041044,81.643157 64.047306,36.996866 135.67245,-7.7994973 203.71667,-50.35615 287.02102,-92.888427 381.09829,-133.48749 c 89.40655,-38.58334 188.63201,-75.45792 292.86412,-109.18031 99.51662,-32.19683 204.07794,-61.67648 309.1282,-87.46225 101.07389,-24.80994 203.37409,-46.39188 302.86599,-64.17764 96.6553,-17.27863 191.5754,-31.14014 281.3477,-41.35998 88.1446,-10.03449 172.2365,-16.66447 249.5275,-19.95797 76.7103,-3.26883 147.513,-3.28846 210.362,-0.38352 63.0128,2.91244 118.6303,8.78777 165.5699,17.07225 47.4833,8.38035 86.4686,19.28626 116.5238,31.96594 30.6186,12.91719 52.1569,27.74124 65.1233,43.57216 13.271,16.20306 17.623,33.50116 14.5414,50.93164 -3.1606,17.87501 -14.1112,35.88365 -30.4897,53.13257 -16.783,17.67427 -39.1888,34.50031 -64.296,49.81969 -25.6437,15.64687 -53.9553,29.64949 -81.9895,41.73936 -28.4976,12.28968 -56.5266,22.53965 -81.7565,30.95202 -25.5161,8.50799 -48.0246,15.10172 -66.335,20.41719 -18.4405,5.35318 -32.5569,9.40281 -42.5336,13.07184 -10.0248,3.686612 -15.8723,6.998154 -19.0123,10.942432 -3.1559,3.963695 -3.6084,8.585235 -3.7917,14.758894 -0.186,6.220421 -0.1317,14.050594 -2.8098,24.107888 -2.7107,10.180228 -8.2735,22.704775 -19.7287,37.785899 -11.6638,15.35570373 -29.5466,33.458225 -56.274,54.010773 -27.3804,21.055026 -64.2285,44.795771 -112.199,70.327954 -49.3924,26.28928 -110.7784,54.56508 -184.1835,83.28234 -75.7789,29.64595 -164.3944,59.75668 -263.542,88.1814 -102.2244,29.3069 -215.1889,56.67686 -333.8006,79.60597 C 904.68032,383.16238 778.41266,401.75052 654.97196,413.11617 529.9367,424.62869 409.62341,428.55027 302.51862,423.4702 195.70296,418.40368 103.89172,404.45786 34.077735,381.65286 -34.370553,359.29366 -80.464533,328.7924 -100.67409,291.556 -120.18537,255.6047 -115.25939,213.88638 -86.233078,168.62413 -58.518372,125.40718 -9.0836235,79.377437 58.858858,32.891846 123.37031,-11.245948 204.28808,-55.599027 296.9429,-98.134101 384.90246,-138.51383 483.48343,-177.275 587.66911,-212.88418 c 99.33162,-33.9502 204.20498,-65.1893 309.89017,-92.68429 101.52258,-26.41184 204.54892,-49.56736 304.92252,-68.86733 97.3446,-18.71756 193.0995,-33.98568 283.7819,-45.56623 88.8764,-11.34991 173.7856,-19.27654 251.9528,-23.84403 77.4309,-4.52455 149.0352,-5.8031 212.7764,-4.16033 63.7788,1.64364 120.284,6.22227 168.2726,13.1834 48.4396,7.02657 88.5847,16.52892 120.0583,27.7631 31.9896,11.41839 55.2125,24.68196 70.2292,38.91042 15.3325,14.52758 22.1763,30.09545 22.0404,45.77624 -0.1383,16.04064 -7.5511,32.19426 -19.9057,47.61748 -12.6285,15.76485 -30.3559,30.72368 -50.3586,44.27509 -20.3842,13.80975 -43.0119,26.09811 -65.097,36.64658 -22.4073,10.70226 -44.1173,19.56349 -62.9847,26.81351 -19.0543,7.32173 -35.1077,12.97519 -47.1321,17.59357 -12.0993,4.64704 -20.0823,8.24393 -24.2379,11.68421 -4.1745,3.45574 -4.4975,6.76437 -2.4774,10.89054 2.0307,4.14737 6.4071,9.14134 10.7056,15.83307 4.3346,6.74694 8.5739,15.258627 9.7767,26.12022 1.2191,11.007026 -0.7128,24.498517 -8.8236,40.671565 -8.2733,16.493564 -23.0672,35.8859477 -47.0466,57.881362 -24.6155,22.578621 -59.0902,48.032787 -105.1866,75.47821 -47.5818,28.329533 -107.7622,58.887903 -180.7419,90.132263 -75.5649,32.35113 -164.9112,65.4465 -265.9341,97.10293 -104.5165,32.7514 -221.0993,63.81345 -344.7708,90.58483 -127.1939,27.53394 -260.65439,50.25048 -392.70881,65.66158 C 600.3989,448.2835 469.56663,456.15732 351.06805,454.62321 232.48119,453.08822 128.385,442.1467 46.36182,421.67583 -34.273313,401.55187 -92.088693,372.57277 -123.04381,336.12502 -152.97967,300.8771 -157.3079,259.18033 -136.11702,213.34798 -115.87062,169.55854 -72.528428,122.45748 -9.3152863,74.539685 50.692812,29.051242 128.30457,-16.93872 218.68821,-61.266996 304.4228,-103.31512 401.64526,-143.86669 505.13976,-181.29161 c 98.55511,-35.63871 203.20346,-68.59099 309.04245,-97.76233 101.5235,-27.98194 204.87019,-52.68827 305.75659,-73.4859 97.6861,-20.13794 193.9555,-36.79787 285.2484,-49.72602 89.3229,-12.64911 174.778,-21.85641 253.56,-27.68194 77.8987,-5.76011 150.0561,-8.27598 214.4434,-7.87328 64.3,0.40218 121.4468,3.71323 170.2343,9.38032 49.1432,5.70836 90.1874,13.84405 122.8115,23.6685 33.0848,9.96298 57.7039,21.70909 74.4751,34.37429 17.0828,12.90051 26.0929,26.78311 28.573,40.75147 2.531,14.25345 -1.7086,28.5908 -10.4019,42.21427 -8.8641,13.89076 -22.3058,27.00275 -37.5841,38.78773 -15.5327,11.98157 -32.8699,22.54272 -49.3684,31.51248 -16.7043,9.08176 -32.4461,16.49376 -45.2506,22.49383 -12.9098,6.04948 -22.7668,10.64715 -28.6966,14.42713 -5.9598,3.79906 -7.9373,6.77392 -6.3251,9.79498 1.6188,3.0327 6.8423,6.12413 14.119,10.20185 7.3129,4.0985 16.6934,9.21493 25.7184,16.16329 9.103,7.00844 17.8534,15.92313 23.3303,27.30149 5.5543,11.54023 7.7386,25.693607 3.5259,42.6457 -4.3016,17.309589 -15.3396,37.65967 -35.8181,60.760269 -21.0573,23.753243 -52.2634,50.564831 -95.4902,79.56884 -44.7166,30.003638 -102.5221,62.481741 -173.8056,95.908321 -74.0094,34.70479 -162.6397,70.45896 -264.0239,105.06833 -105.2335,35.9234 -223.8167,70.46661 -350.9627,100.95485 -131.252,31.47287 -270.38964,58.31614 -409.72595,77.88532 -142.22889,19.97543 -282.5529,32.06463 -411.74499,34.44917 -129.76552,2.39498 -245.90218,-5.05645 -340.249657,-22.64709 -93.03263,-17.34533 -163.094453,-44.23072 -205.579413,-79.32219 -41.172,-34.00699 -55.74822,-75.17068 -43.49441,-121.1079 11.72013,-43.93596 47.86247,-91.7329 105.247427,-140.76357 C -12.811956,70.098292 60.502726,22.709462 147.686,-23.219425 c 82.6566,-43.544273 177.72722,-85.750125 279.8058,-124.884595 97.11415,-37.2309 200.93051,-71.82267 306.3728,-102.61359 101.01671,-29.49866 204.22031,-55.71505 305.1963,-77.97784 97.6323,-21.52566 194.0501,-39.55043 285.6146,-53.80292 89.4464,-13.9229 175.1423,-24.38723 254.2483,-31.448 78.0861,-6.96967 150.5221,-10.69664 215.2882,-11.50792 64.5586,-0.80874 122.0827,1.26651 171.4058,5.67052 49.5824,4.42733 91.2554,11.23391 124.7564,19.68419 33.8995,8.55064 59.6253,18.82147 77.8561,29.96148 18.5257,11.32031 29.3846,23.56078 34.159,35.85248 4.8595,12.51152 3.445,25.07 -1.9353,36.91944 -5.4714,12.05151 -15.0002,23.33821 -25.9146,33.36125 -11.0701,10.16578 -23.4924,18.99244 -34.7529,26.35448 -11.377,7.43798 -21.4941,13.35284 -28.5356,18.03081 -7.0874,4.70809 -11.0193,8.15417 -11.0698,10.97626 -0.051,2.83266 3.8111,5.04197 11.0886,7.47995 7.2995,2.44524 18.0261,5.13357 30.5789,8.96105 12.6116,3.84538 27.0789,8.8634 40.9748,15.83456 14.0174,7.03202 27.4919,16.09711 37.5168,27.72836 10.173,11.80273 16.8248,26.33321 16.934,43.76846 0.1117,17.819253 -6.6461,38.806013 -23.0135,62.680019 -16.8532,24.582032 -44.0423,52.391612 -83.5435,82.588097 -40.9388,31.295358 -95.3307,65.304124 -163.7571,100.530424 -71.215,36.66189 -157.7592,74.69094 -258.0292,111.90336 -104.3924,38.74226 -223.327,76.46176 -352.2723,110.43694 -133.5871,35.19842 -276.7052,66.04816 -421.75551,89.77099 -148.64298,24.31057 -297.11915,40.76872 -435.96381,47.35037 -140.00401,6.63658 -267.58572,3.09748 -374.04392,-11.10441 -105.327832,-14.05132 -187.889616,-38.27292 -242.47338,-71.41874 -53.02896,-32.20166 -78.71485,-72.27551 -76.42221,-117.79568 2.19567,-43.60124 30.04541,-91.65651 80.48097,-141.41687 C -65.606494,111.38258 2.3687204,62.890821 85.35431,15.608185 c 78.66278,-44.819568 170.71267,-88.498162 270.57382,-129.195315 94.9379,-38.69082 197.24328,-74.81592 301.66823,-107.14135 99.93942,-30.93689 202.47454,-58.60007 303.05874,-82.27632 97.1318,-22.86362 193.2843,-42.21132 284.7343,-57.75183 89.2073,-15.15945 174.8009,-26.84699 253.905,-35.11196 77.9609,-8.1455 150.3737,-13.05063 215.2249,-15.04452 64.5302,-1.98412 122.1474,-1.10928 171.7236,2.06555 49.7419,3.18549 91.7599,8.70213 125.8529,15.81473 34.4255,7.18187 60.9629,16.01922 80.3559,25.67119 19.6617,9.78561 32.0541,20.4254 38.8073,31.07432 6.8566,10.81278 7.9287,21.62801 5.5286,31.72755 -2.4351,10.24602 -8.4064,19.72839 -15.3014,27.99516 -6.9758,8.3638 -14.8407,15.45223 -21.1976,21.18358 -6.4078,5.77745 -11.233,10.15633 -12.8079,13.45211 -1.5815,3.31064 0.1352,5.52512 5.7367,7.28856 5.6138,1.7674 15.1224,3.08933 27.9259,4.80398 12.8287,1.71802 28.9645,3.84324 46.7538,7.24538 17.8619,3.416 37.4258,8.14181 56.255,14.92952 18.99,6.84576 37.3052,15.83564 52.0491,27.4824 14.9637,11.82097 26.319,26.46852 31.0479,44.11361 4.8361,18.04475 2.7451,39.366541 -9.0452,63.697876 -12.1525,25.078677 -34.7285,53.535492 -69.8028,84.560678 -36.4058,32.20303 -86.4998,67.343543 -151.0527,103.966406 -67.325,38.19531 -150.5348,78.07555 -248.3085,117.48698 -102.0722,41.14412 -219.7458,81.6557 -348.7998,118.79553 -134.152,38.60674 -279.4454,73.22813 -428.4668,100.98029 C 898.46969,481.9718 743.45169,502.82871 596.30865,513.77394 447.3448,524.85471 309.27114,525.56003 191.27209,515.19092 74.09867,504.89434 -20.896234,483.87904 -87.874737,453.26735 -153.13344,423.4419 -190.59693,385.04287 -199.15688,340.50719 -207.3714,297.76773 -188.84779,249.9486 -146.46502,199.90348 -106.16482,152.31728 -44.5972,103.07788 33.145604,54.745839 106.85052,8.9240827 194.95004,-35.996408 291.72057,-78.064112 383.68392,-118.04189 483.72942,-155.5574 586.44708,-189.29923 c 98.22859,-32.26726 199.50787,-61.28782 299.15979,-86.30284 96.12987,-24.13093 191.54983,-44.74121 282.45123,-61.51761 88.561,-16.34453 173.6671,-29.20887 252.4046,-38.63606 77.4878,-9.27743 149.5427,-15.31952 214.1539,-18.45744 64.1881,-3.11745 121.5883,-3.40229 171.114,-1.41842 49.6002,1.9868 91.6611,6.25534 126.0473,12.06843 34.6504,5.85774 61.6937,13.30385 81.9452,21.50467 20.4857,8.29563 34.0953,17.37478 42.5133,26.41316 8.5263,9.15521 11.7555,18.26038 12.0104,26.63229 0.2587,8.4719 -2.4957,16.1698 -5.6993,22.68551 -3.2323,6.57578 -6.8796,11.92375 -8.6503,16.00479 -1.7804,4.10412 -1.6323,6.91507 1.9738,8.77743 0,0 0,0 0,0"
     id="path8571" />
  <g
     inkscape:label="Layer 1"
     inkscape:groupmode="layer"
     id="layer1">
    <path
       sodipodi:nodetypes="ccsccccccccscscscscscsccccccscccccccscscscscscsccccccccscc"
       style="fill:#000000;fill-opacity:1;stroke:none"
       d="m -29.835206,-1221.5767 c 0.632,0.1927 -0.6823,1.4892 -3.7743,3.9032 -3.0922,2.4141 -7.9749,5.9481 -14.093,10.6559 -6.117997,4.7079 -13.494197,10.5931 -20.903597,17.7034 -3.7045,3.5551 -7.4048,7.4161 -10.8542,11.5839 -3.4497,4.1677 -6.6498,8.6424 -9.2758,13.4192 -2.148,3.8888 -3.9074,7.9704 -5.0208,12.1944 -1.1136,4.2239 -1.5812,8.5905 -1.0832,13.0252 0.8192,7.4301 4.3457,15.1112 11.5821,22.3468 6.547,6.5776 16.2385,12.8271 28.817,18.2381 12.160497,5.2442 27.145097,9.7152 44.089697,13.3269 17.8665995,3.8283 37.8077,6.6539 59.314599,8.5568 21.507101,1.9028 44.579301,2.8831 68.434897,3.1366 26.2313,0.2529 53.44031,-0.4453 81.28431,-2.0172 27.8444,-1.5718 56.3225,-4.0167 85.0156,-7.1838 31.0759,-3.4388 62.3756,-7.7605 93.5486,-12.898 31.173,-5.1376 62.2178,-11.0904 92.7751,-17.7472 30.0009,-6.5428 59.5173,-13.7608 88.1104,-21.6346 28.5931,-7.8738 56.2608,-16.4033 82.6039,-25.5437 23.3992,-8.1286 45.7843,-16.7108 66.6014,-25.7265 20.8168,-9.0157 40.0628,-18.465 57.2849,-28.3111 14.9413,-8.5807 28.4651,-17.4286 39.6708,-26.4192 11.2058,-8.9907 20.0908,-18.124 25.9748,-27.287 5.3856,-8.3216 8.318,-16.6078 8.111,-24.4856 -0.1828,-7.8565 -3.4199,-15.3774 -9.4382,-22.0899 -6.2864,-7.0563 -14.8695,-14.119 -26.1046,-19.3386 -12.4652,-5.8058 -25.6851,-12.0269 -41.2329,-15.6538 -20.8995,-5.2197 -27.6606,-5.9905 -39.0024,-7.6706 -28.4696,-5.1487 -51.4718,-6.7925 -51.1034,-8.5054 0.5544,-2.5775 23.6983,-1.6545 30.2282,-1.5586 23.4854,1.8067 47.8948,4.8024 71.772,9.816 0,10e-5 0,10e-5 0,10e-5 17.7636,3.7465 35.0632,8.7175 50.2024,15.2709 13.6619,5.9276 25.2667,13.1551 33.3859,21.5282 7.7005,7.9803 12.1032,16.8844 12.7647,26.2335 0.6379,9.3387 -2.265,18.9932 -8.1084,28.5358 -6.4322,10.431 -15.9789,20.724 -27.9564,30.7168 -11.9776,9.9928 -26.3836,19.6851 -42.3107,28.9112 -18.2614,10.6225 -38.5816,20.7779 -60.4822,30.4073 -21.9006,9.6292 -45.3786,18.7324 -69.8569,27.2737 -27.5581,9.6271 -56.4779,18.5848 -86.3338,26.8181 -29.8557,8.2333 -60.6454,15.7423 -91.9057,22.5024 -31.8278,6.8902 -64.2386,13.0237 -96.8378,18.2865 -32.5991,5.2628 -65.3848,9.6543 -97.9656,13.1077 -30.0517,3.1934 -60.0311,5.5916 -89.4579,7.051 -29.4268,1.4595 -58.29981,1.9797 -86.20891,1.4934 -25.388896,-0.419 -50.174996,-1.7327 -73.474796,-4.0938 -23.3,-2.3612 -45.1122005,-5.7699 -64.8257,-10.2599 -18.7646,-4.2925 -35.388797,-9.6758 -48.981297,-15.962 -14.0773,-6.5236 -24.60064,-13.9955 -31.491757,-21.8107 -7.55875,-8.6103 -10.65951,-17.5036 -10.62038,-25.9768 0.0326,-5.0437 1.1216,-9.9186 2.91403,-14.5673 1.79211,-4.6488 4.28811,-9.0717 7.20108,-13.2345 3.57961,-5.0951 7.705557,-9.8006 12.052627,-14.1313 4.3469,-4.3308 8.9157,-8.287 13.4605,-11.8865 9.0892,-7.1991 18.0297,-12.9728 25.6172,-17.471 7.587497,-4.4981 13.845797,-7.7234 18.258997,-9.7913 4.413,-2.068 6.9952,-2.9797 7.6279,-2.7871 z"
       id="path3840"
       inkscape:connector-curvature="0" />
    <path
       inkscape:connector-curvature="0"
       id="path3053"
       d="m 1169.8958,-1401.0065 c 0.4754,0.247 -0.6183,1.5469 -3.1519,3.9251 -2.5336,2.3782 -6.5173,5.8367 -11.5259,10.4689 -5.0087,4.6323 -11.0605,10.4407 -17.214,17.5562 -3.0766,3.5577 -6.169,7.4426 -9.0872,11.6716 -2.9182,4.2291 -5.6631,8.8023 -7.9844,13.7358 -1.8975,4.0158 -3.5075,8.2628 -4.6284,12.7042 -1.121,4.4413 -1.753,9.0771 -1.645,13.8487 0.1695,7.9935 2.4102,16.4315 7.5382,24.6354 4.6376,7.4556 11.7195,14.7657 21.0789,21.3678 9.0476,6.3966 20.3201,12.151 33.1569,17.1148 13.5342,5.2554 28.7295,9.5745 45.1894,13.0096 16.46,3.435 34.1837,5.9861 52.5566,7.8116 20.2041,1.9797 41.221,3.0067 62.7818,3.1415 21.561,0.1348 43.6649,-0.622 65.9792,-2.1366 24.168,-1.6497 48.5636,-4.2283 72.912,-7.687 24.3487,-3.4587 48.6491,-7.7969 72.6175,-12.9193 23.5323,-5.0368 46.7333,-10.8267 69.2633,-17.3776 22.53,-6.5508 44.3874,-13.8628 65.2619,-21.9138 18.5422,-7.1616 36.3311,-14.8741 52.9381,-23.152 16.6069,-8.2779 32.0298,-17.1216 45.9173,-26.5212 12.0509,-8.196 23.0256,-16.7698 32.2224,-25.6473 9.1968,-8.8775 16.6135,-18.0587 21.7189,-27.4671 4.6688,-8.5419 7.4444,-17.2057 7.7748,-25.6377 0.3476,-8.4077 -1.6799,-16.6557 -5.9016,-24.2212 -4.407,-7.9502 -11.2653,-15.2363 -19.601,-21.5463 -9.2475,-7.0166 -20.4135,-12.8847 -32.1727,-17.7738 0,0 -1e-4,0 -1e-4,0 -15.8584,-6.6167 -32.719,-11.3992 -49.2951,-15.0401 -16.576,-3.6408 -32.871,-6.1391 -48.0803,-7.9918 -20.5381,-2.4839 -39.2086,-3.743 -55.4704,-4.4635 -16.2617,-0.7206 -30.1217,-0.8996 -41.3003,-0.9734 -11.1786,-0.074 -19.6827,-0.039 -25.3895,-0.1308 -5.7069,-0.092 -8.6209,-0.3078 -8.6922,-0.721 -0.071,-0.4134 2.7029,-1.0242 8.3363,-1.7549 5.6334,-0.7307 14.1295,-1.5835 25.4423,-2.3098 11.3129,-0.7263 25.4489,-1.3295 42.2251,-1.3447 16.7763,-0.015 36.2002,0.5545 57.8446,2.44 16.0243,1.3826 33.3804,3.5126 51.371,6.9738 17.9907,3.4611 36.6201,8.2532 54.7134,15.167 0,0 0,0 0,1e-4 13.4598,5.1613 26.4858,11.6008 37.7479,19.5906 10.1625,7.2247 18.6582,15.7046 24.3962,25.1815 5.4395,9.0299 8.2795,18.8321 8.2081,28.866 -0.089,10.0212 -2.927,20.1492 -8.0246,29.966 -5.6067,10.7278 -13.6057,21.1051 -23.4597,31.0032 -9.8542,9.8982 -21.5613,19.3169 -34.4123,28.1383 -14.7368,10.1615 -31.0318,19.6898 -48.5122,28.5528 -17.4803,8.8631 -36.1441,17.061 -55.5438,24.5933 -21.8412,8.492 -44.6904,16.1799 -68.2161,23.0327 -23.5257,6.8528 -47.7263,12.8707 -72.2429,18.0576 -24.9624,5.289 -50.3269,9.7313 -75.7826,13.2309 -25.4556,3.4996 -51.0009,6.056 -76.3298,7.6232 -23.3634,1.4541 -46.6215,2.0632 -69.3953,1.7052 -22.7739,-0.3581 -45.0624,-1.6838 -66.5452,-4.0222 -19.5445,-2.1023 -38.5687,-5.1214 -56.3821,-9.163 -17.8134,-4.0416 -34.4149,-9.1058 -49.3315,-15.1886 -14.1973,-5.81 -26.6769,-12.6461 -36.7636,-20.2496 -10.4455,-7.8887 -18.0926,-16.5593 -22.9185,-25.3599 -5.2911,-9.694 -7.1282,-19.3997 -6.5712,-28.4519 0.3388,-5.3879 1.4814,-10.5263 3.1521,-15.3774 1.6705,-4.851 3.8695,-9.4148 6.3738,-13.6735 3.0761,-5.2116 6.5491,-9.9711 10.1692,-14.3158 3.6201,-4.3448 7.3878,-8.2747 11.1149,-11.8252 7.4539,-7.1009 14.7046,-12.6883 20.8329,-17.0007 6.1284,-4.3123 11.1531,-7.3512 14.6834,-9.2735 3.5304,-1.9223 5.5774,-2.7284 6.053,-2.4812 z"
       style="fill:#000000;fill-opacity:1;stroke:none" />
    <path
       inkscape:connector-curvature="0"
       id="path3055"
       d="m 1272.8396,-1460.1455 c -8.3206,1.3183 -18.9514,6.4456 -21.5097,25.1829 l -8.517,53.8806 -12.4579,1.9737 -0.8988,5.2475 12.5199,-1.9836 -11.1912,70.8798 c -13.7815,2.7998 -22.1604,8.5399 -20.3785,22.4512 1.0442,8.1524 8.1105,12.5805 15.8007,11.3621 8.1945,-1.2983 18.4205,-6.393 21.1048,-25.1503 l 0.5659,-3.6821 457.1921,-72.4344 1.2305,-7.7579 -457.1921,72.4344 11.0588,-70.9849 4.2766,-0.6775 7.1586,-1.1342 -5.5196,39.3512 c -0.3417,2.4898 -0.4366,4.6693 -0.3083,6.5719 0.6419,9.513 6.8456,12.9069 16.553,11.369 5.3412,-0.8463 11.662,-6.8633 17.1763,-13.278 2.7971,7.6357 8.7864,9.9209 18.9153,8.3161 12.6069,-1.9973 25.5168,-16.7205 26.1918,-42.5948 4.036,-1.7932 7.7814,-4.245 10.9269,-7.0252 l -3.1795,22.9721 c -0.3416,2.4898 -0.4366,4.6693 -0.3082,6.5719 0.6418,9.513 6.9695,12.8873 16.6768,11.3493 5.295,-0.8389 11.7677,-7.0032 17.325,-13.396 1.7485,7.0301 7.5093,9.4614 16.082,8.1032 25.4661,-4.0346 33.1079,-40.362 31.7728,-60.149 -0.445,-6.5957 -3.4394,-11.0202 -8.8604,-10.1613 -4.1603,0.6591 -6.9486,4.7112 -6.7689,7.3749 0.2396,3.5515 2.1229,6.8485 5.7789,6.2692 0.7564,-0.1198 1.8901,-0.5787 2.6294,-0.9522 0.9328,13.8255 -5.6618,42.966 -18.0166,44.9234 -3.656,0.5793 -4.8854,-0.9184 -5.048,-3.3283 -0.094,-1.3952 0.046,-2.9394 0.3042,-4.7751 l 6.1705,-44.5592 -18.16,2.8771 -6.1705,44.5593 c -0.2755,1.582 -0.4151,3.1325 -0.3295,4.4009 -2.8545,3.0162 -5.8838,5.4385 -8.5312,5.8579 -5.0428,0.7989 -6.4287,-1.0456 -6.617,-3.8361 -0.077,-1.1415 0.073,-2.5719 0.2307,-4.0071 l 6.1705,-44.5593 -18.16,2.8772 -2.1695,15.6587 c -2.2864,2.0829 -4.5811,4.1292 -8.233,4.7078 -1.765,0.2796 -2.9269,0.067 -3.7346,-0.5743 -0.8769,-9.2194 -4.5594,-18.1221 -16.5361,-16.2246 -17.3975,2.7564 -32.2208,18.6945 -30.1154,49.8971 0.1132,1.6774 0.2888,3.215 0.5325,4.6425 -2.6482,2.6061 -5.3375,4.7216 -7.7676,5.1066 -4.9167,0.779 -6.4203,-0.9208 -6.6086,-3.7113 -0.069,-1.0147 0.096,-2.189 0.3463,-4.1515 l 9.8812,-70.7983 -18.4854,5.4813 -3.3233,23.6251 -8.2123,1.3011 -3.254,0.5155 8.641,-53.9002 c 1.1916,-8.7779 6.1923,-14.657 11.3637,-14.9411 1.6111,-0.089 3.0173,0.1561 4.2389,0.6205 -0.8306,1.2076 -1.2903,2.6936 -1.1872,4.2216 0.2253,3.3402 3.0091,5.6367 6.2342,5.1257 3.2251,-0.5109 5.6743,-3.6365 5.4489,-6.9767 0,-0.042 -0.01,-0.083 -0.01,-0.1247 -0.011,-0.165 -0.046,-0.3324 -0.065,-0.4939 -0.9349,-7.9061 -11.3031,-11.539 -22.6757,-9.7372 z m 375.8282,-12.4326 c -5.5471,0.8788 -9.6385,6.1595 -9.2619,11.7404 0.3766,5.581 5.076,9.3113 10.623,8.4325 5.5471,-0.8789 9.8039,-6.0282 9.4274,-11.6091 -0.3766,-5.581 -5.2415,-9.4426 -10.7885,-8.5638 z m -24.8558,10.8707 -18.5165,5.4861 -2.5984,18.1217 -4.1526,0.6579 -0.6509,5.2081 4.1526,-0.6579 c -1.2794,10.227 -5.2947,34.2071 -5.6757,43.5355 -2.9539,3.0357 -5.9537,5.6387 -8.6736,6.0696 -5.0428,0.7989 -6.4287,-1.0456 -6.617,-3.8361 -0.077,-1.1416 0.073,-2.5719 0.2308,-4.0071 l 6.1704,-44.5593 -18.16,2.8772 -0.5207,3.4228 c -2.3977,-1.5431 -5.6492,-2.3193 -8.6748,-1.8399 -25.2139,3.9947 -31.2715,31.3709 -29.7995,53.1873 0.035,0.5182 0.096,1.0289 0.1672,1.5491 -1.9065,2.3149 -4.0013,4.0373 -6.1567,4.3788 -4.0342,0.6392 -5.2988,-1.4746 -5.4957,-4.3919 -0.1027,-1.5221 0.029,-3.193 0.3043,-4.775 l 3.5406,-25.0461 c 0.058,-1.0347 0.1187,-1.9554 0.05,-2.9702 -0.5819,-8.6251 -8.6465,-14.7644 -15.5803,-13.6659 -6.1774,0.9787 -12.5966,5.9542 -17.8441,11.2725 -3.1073,-4.5074 -8.3882,-7.1164 -13.0527,-6.3774 -5.421,0.8589 -10.9918,4.799 -15.7864,9.2763 l 0.9113,-6.9196 -18.16,2.8772 -9.0775,65.5344 18.16,-2.8772 7.3878,-52.9768 c 2.4016,-2.1753 4.481,-3.3885 7.5066,-3.8679 3.4039,-0.5393 5.9919,1.9986 6.3,6.5649 0.069,1.0147 0.026,2.1824 -0.1489,3.3639 l -6.1704,44.5592 18.2839,-2.8967 6.3238,-46.0017 c 0.066,-0.9078 0.1269,-1.8328 0.067,-2.7206 -0.1028,-1.5221 -0.4377,-2.8671 -0.9186,-4.3293 2.2926,-1.9016 4.3865,-2.9953 7.16,-3.4348 3.4039,-0.5393 5.9919,1.9986 6.3,6.5649 0.069,1.0147 0.026,2.1824 -0.1489,3.3639 l -3.2634,23.5841 c -0.3417,2.4899 -0.4452,4.5425 -0.3083,6.5719 0.6419,9.513 6.7195,12.9269 16.553,11.369 4.9271,-0.7806 9.9518,-5.7639 14.4136,-11.5167 2.0405,5.089 6.6312,8.9388 15.418,7.5467 7.6903,-1.2184 13.0056,-7.2982 16.4368,-13.0978 2.0839,6.336 7.8265,8.4974 16.021,7.1991 5.3899,-0.854 11.771,-6.9786 17.3208,-13.4584 1.726,7.0645 7.5572,9.5169 16.0862,8.1656 5.9166,-0.9374 12.9863,-8.2401 18.8827,-15.376 1.2102,8.314 7.3838,11.2145 16.5386,9.7641 5.8483,-0.9266 12.8249,-8.067 18.6805,-15.1234 3.1703,8.1217 10.0927,10.5648 18.1973,9.2807 15.8848,-2.5167 24.7065,-11.2276 23.9619,-22.2626 -4.6258,5.0915 -10.3205,9.1981 -17.1283,10.2767 -7.6902,1.2183 -9.5758,-5.9092 -9.9952,-12.1244 -0.9243,-13.6987 4.475,-35.4672 15.0648,-37.1449 2.7736,-0.4395 4.7665,0.5483 4.9719,3.5925 0.069,1.0147 -0.129,2.1712 -0.413,3.6263 l 7.1896,-1.1391 c 0.393,-1.7288 0.463,-2.8858 0.3689,-4.2811 -0.4707,-6.9762 -7.6647,-7.6091 -14.4725,-6.5305 -24.4575,3.8749 -30.7327,29.6081 -29.4832,48.1267 0.099,1.4636 0.2584,2.8129 0.4946,4.0813 -3.1371,3.2933 -6.392,6.2122 -9.2907,6.6715 -5.0427,0.7989 -6.4287,-1.0456 -6.617,-3.8361 -0.077,-1.1415 0.073,-2.5719 0.2308,-4.0071 l 6.1705,-44.5593 -18.1601,2.8772 -6.1394,44.5543 c -0.1202,0.8757 -0.2078,1.6978 -0.2698,2.5007 -3.5416,3.8504 -7.3231,7.5573 -10.6363,8.0822 -5.0428,0.799 -6.4201,-0.9188 -6.617,-3.8361 -0.043,-0.6342 -0.244,-1.8987 5.7504,-43.3582 l 7.5615,-1.198 0.6508,-5.2082 -7.5615,1.198 c 1.6251,-11.795 2.9549,-20.7306 2.9549,-20.7306 z m -294.9247,73.2593 c 3.5299,-0.5592 5.0846,1.6446 5.7452,5.7704 -3.3183,1.8077 -5.1979,6.0554 -4.9497,9.7338 0.2054,3.0441 1.9973,5.4503 5.6533,4.8711 -0.6827,12.5431 -4.1367,25.4241 -11.827,26.6425 -4.9167,0.779 -8.5679,-0.7197 -9.0814,-8.3301 -0.6847,-10.1471 2.609,-36.8101 14.4596,-38.6877 z m 232.7406,-35.8339 c 1.765,-0.2796 4.1836,-0.1572 6.3205,1.299 l -4.7977,34.7305 c -0.2756,1.582 -0.4214,3.0075 -0.4619,4.2959 -2.1557,3.931 -4.7596,7.1826 -7.6592,7.642 -3.1517,0.4993 -7.408,-0.2417 -7.9215,-7.8521 -1.164,-17.2502 5.0646,-38.6173 14.5198,-40.1153 z m -333.1891,127.2521 c 0.4301,-0.071 0.8552,-0.1217 1.2726,-0.1702 -1.9187,13.1082 -4.5314,14.804 -7.1789,15.2234 -2.7735,0.4394 -4.693,-1.3797 -5.308,-3.0035 -2.7576,-7.2815 4.7625,-10.978 11.2143,-12.0498 z"
       style="font-size:127.12830353px;font-style:normal;font-variant:normal;font-weight:normal;font-stretch:normal;text-align:start;line-height:125%;letter-spacing:0px;word-spacing:0px;writing-mode:lr-tb;text-anchor:start;fill:#000000;stroke:none;font-family:'Lobster 1.3';-inkscape-font-specification:'Lobster 1.3,'" />
    <path
       style="font-size:127.12830353px;font-style:normal;font-variant:normal;font-weight:normal;font-stretch:normal;text-align:start;line-height:125%;letter-spacing:0px;word-spacing:0px;writing-mode:lr-tb;text-anchor:start;fill:#000000;stroke:none;font-family:'Lobster 1.3';-inkscape-font-specification:'Lobster 1.3,'"
       d="m 86.507694,-1446.8732 c -16.4411,1.5651 -37.7337,9.4646 -42.0154,41.2213 0,0 -14.8478,92.1983 -14.8478,92.1983 0,0 -26.3964005,4.4283 -26.3964005,4.4283 0,0 -1.6505,9.2017 -1.6505,9.2017 0,0 26.5726005,-4.5902 26.5726005,-4.5902 0,0 -19.8911005,123.6832 -19.8911005,123.6832 -29.9009995,8.2685 -48.3369995,20.5842 -43.5000995,44.6669 2.8218,14.0501 18.7893,19.5582 35.51319952,15.0043 17.48380048,-4.7609 38.64600048,-16.455 43.20340048,-48.9041 0,0 0.9723,-6.3612 0.9723,-6.3612 0,0 610.338406,-151.108 610.338406,-151.108 0,0 0.9403,-8.6115 0.9403,-8.6115 0,0 -609.154806,146.3294 -609.154806,146.3294 0,0 18.8129,-121.1309 18.8129,-121.1309 0,0 8.5267,-1.4729 8.5267,-1.4729 0,0 14.0861,-2.4332 14.0861,-2.4332 0,0 -8.9138,65.86 -8.9138,65.86 -0.5519,4.1868 -0.6308,7.821 -0.2816,10.9589 1.7443,15.6681 14.0768,20.1317 32.692796,15.8455 10.0701,-2.3186 21.6008,-13.0857 31.4793,-24.222 5.4583,11.7469 16.39751,14.4025 34.33191,10.26 21.7796,-5.0306 42.9708,-29.3556 43.0505,-68.8826 6.6252,-3.0444 12.6926,-7.0394 17.7239,-11.4592 0,0 -4.2885,34.9709 -4.2885,34.9709 -0.4611,3.8004 -0.5306,7.106 -0.245,9.9677 1.4259,14.2905 11.833,18.5391 27.2751,14.9836 8.2939,-1.9096 18.1231,-11.7542 26.4228,-21.7129 2.9183,10.0603 11.7156,12.9318 24.4439,10.0012 36.5638,-8.4185 46.0645,-59.7392 43.5738,-87.3006 -0.8324,-9.2117 -5.1642,-15.3745 -12.7828,-14.1156 -5.9017,0.9752 -9.7631,6.7592 -9.4158,10.5365 0.4627,5.0331 3.2706,9.6525 8.4602,8.7267 1.0691,-0.1906 2.6593,-0.8693 3.6921,-1.4154 1.7674,19.3981 -6.6173,60.8466 -24.367,64.7317 -5.3357,1.168 -7.1972,-0.8649 -7.5203,-4.3078 -0.1869,-1.994 -0.034,-4.2221 0.2834,-6.8778 0,0 7.5214,-64.1544 7.5214,-64.1544 0,0 -26.8987,4.5126 -26.8987,4.5126 0,0 -7.7835,65.3525 -7.7835,65.3525 -0.364,2.3365 -0.5213,4.6152 -0.3444,6.4606 -4.2683,4.6922 -8.8529,8.5567 -12.945,9.4524 -7.8562,1.7196 -10.1073,-0.8658 -10.5094,-4.9857 -0.1645,-1.6861 0.018,-3.8235 0.2129,-5.9682 0,0 8.0148,-66.3936 8.0148,-66.3936 0,0 -28.784,4.8288 -28.784,4.8288 0,0 -2.9111,23.7095 -2.9111,23.7095 -3.6467,3.2807 -7.3254,6.5217 -13.3227,7.6373 -2.9151,0.5422 -4.856,0.2948 -6.2281,-0.6311 -1.838,-14.0428 -8.385,-27.5355 -28.7634,-24.1425 -30.5548,5.0874 -56.89531,31.4741 -51.56891,81.378 0.2852,2.6725 0.6789,5.1115 1.1926,7.3633 -4.7659,4.5573 -9.6582,8.3571 -14.175,9.3457 -9.2139,2.0168 -12.1442,-0.513 -12.6344,-5.0231 -0.1793,-1.6407 0.078,-3.575 0.4604,-6.803 0,0 15.2721,-115.5933 15.2721,-115.5933 0,0 -34.958396,9.2236 -34.958396,9.2236 0,0 -5.3236,39.1963 -5.3236,39.1963 0,0 -16.1586,2.7108 -16.1586,2.7108 0,0 -6.4876,1.0884 -6.4876,1.0884 0,0 14.5049,-90.2676 14.5049,-90.2676 1.9158,-14.58 11.4361,-24.0659 21.452596,-24.214 3.0964,-0.046 5.8052,0.4428 8.1634,1.2791 -1.5296,1.9318 -2.3381,4.3451 -2.0674,6.859 0.5912,5.4923 6.0081,9.3759 12.0904,8.6776 6.0384,-0.6933 10.4681,-5.6487 9.8929,-11.0702 0,-0.067 -0.023,-0.1356 -0.024,-0.2026 -0.028,-0.268 -0.1012,-0.5412 -0.1442,-0.8039 -2.1136,-12.8801 -21.903,-19.5841 -43.873996,-17.4926 0,0 0,10e-5 0,10e-5 m 514.962506,5.8477 c -5.3146,0.7505 -9.1732,6.7284 -8.6969,13.2709 0.4758,6.5363 5.0898,11.0348 10.3878,10.1812 5.2514,-0.8461 9.1654,-6.6353 8.706,-13.0691 -0.4598,-6.4397 -5.1293,-11.1269 -10.3969,-10.383 0,0 0,0 0,0 m -24.0473,11.6272 c 0,0 -18.6073,5.8302 -18.6073,5.8302 0,0 -2.2836,21.7235 -2.2836,21.7235 0,0 -4.2784,0.7178 -4.2784,0.7178 0,0 -0.5624,6.2795 -0.5624,6.2795 0,0 4.282,-0.7397 4.282,-0.7397 -1.0998,12.3017 -4.7388,41.2412 -4.9317,52.5038 -3.0093,3.7612 -6.0907,7.0178 -8.9403,7.6415 -5.318,1.164 -6.8339,-1.0348 -7.0974,-4.4364 -0.1078,-1.392 0.02,-3.1443 0.1557,-4.9025 0,0 5.5498,-54.4096 5.5498,-54.4096 0,0 -19.4221,3.2583 -19.4221,3.2583 0,0 -0.4882,4.2297 -0.4882,4.2297 -2.6562,-1.9384 -6.2453,-2.9428 -9.5749,-2.3838 -28.436,4.774 -34.7829,39.7748 -32.5128,67.594 0.054,0.6594 0.1378,1.3079 0.2338,1.968 -2.1618,3.0509 -4.5661,5.3638 -7.0858,5.9181 -4.7422,1.0432 -6.2959,-1.6092 -6.6056,-5.358 -0.1617,-1.9567 -0.049,-4.1168 0.2368,-6.1683 0,0 3.5415,-32.3609 3.5415,-32.3609 0.042,-1.3323 0.09,-2.518 -0.018,-3.823 -0.9111,-11.1027 -10.6813,-19.0546 -19.0274,-17.6544 -7.5241,1.2622 -15.3228,7.8186 -21.7295,14.8941 -4.0384,-5.9679 -10.8131,-9.4348 -16.7655,-8.4362 -6.9827,1.1714 -14.1413,6.5373 -20.3287,12.6799 0,0 0.9979,-9.4369 0.9979,-9.4369 0,0 -24.3454,4.0842 -24.3454,4.0842 0,0 -10.4338,91.4888 -10.4338,91.4888 0,0 24.6795,-5.6823 24.6795,-5.6823 0,0 8.2402,-72.7552 8.2402,-72.7552 3.1116,-3.0103 5.8147,-4.6962 9.7674,-5.3964 4.4203,-0.783 7.8483,2.5941 8.3795,8.7329 0.1186,1.3634 0.097,2.9353 -0.094,4.5296 0,0 -6.7006,60.3782 -6.7006,60.3782 0,0 23.3493,-5.3761 23.3493,-5.3761 0,0 6.6427,-61.2588 6.6427,-61.2588 0.057,-1.2025 0.1074,-2.4274 0.01,-3.6009 -0.1708,-2.0122 -0.6267,-3.7869 -1.2688,-5.7161 2.8093,-2.5452 5.3828,-4.0122 8.8046,-4.6184 4.1759,-0.7397 7.4135,2.5598 7.9131,8.5303 0.1117,1.3261 0.091,2.8542 -0.091,4.4031 0,0 -3.3528,30.9848 -3.3528,30.9848 -0.3514,3.2789 -0.4225,5.9734 -0.1993,8.6238 1.0452,12.4105 8.5375,16.437 20.2983,13.7292 5.8156,-1.339 11.5874,-8.0444 16.6375,-15.6418 2.491,6.3596 7.8708,10.9605 17.8305,8.66 8.5931,-1.9848 14.3422,-9.8482 17.9827,-17.2111 2.4312,7.7427 8.7292,10.1067 17.5094,8.0851 5.7092,-1.3146 12.2894,-9.0438 17.9321,-17.0911 1.941,8.4375 7.9949,11.1215 16.6396,9.1312 5.926,-1.3645 12.8067,-10.2508 18.4662,-18.8115 1.3507,9.6944 7.4117,12.8532 16.1761,10.8353 5.5322,-1.2737 11.9516,-9.681 17.2671,-17.8797 3.078,9.1602 9.4639,11.7251 16.778,10.0411 14.072,-3.24 21.6169,-13.0627 20.7852,-25.22 -3.9414,5.6774 -8.868,10.3178 -14.8802,11.6382 -6.868,1.5084 -8.6975,-6.4793 -9.1883,-13.4757 -1.0833,-15.4457 3.4056,-39.8985 12.8304,-41.5231 2.4432,-0.4211 4.2146,0.7268 4.4474,4.1156 0.078,1.1292 -0.076,2.4106 -0.3006,4.0227 0,0 6.2655,-1.1286 6.2655,-1.1286 0.3124,-1.9033 0.3536,-3.1808 0.2483,-4.7252 -0.5274,-7.7273 -6.8313,-8.6384 -12.8325,-7.6339 -22.0894,3.6976 -27.432,32.984 -25.9244,54.1357 0.1192,1.6689 0.2924,3.2061 0.5352,4.6491 -2.8571,3.8192 -5.8455,7.2305 -8.56,7.8247 -4.7521,1.0402 -6.1047,-1.0556 -6.3376,-4.274 -0.095,-1.3171 0.02,-2.9721 0.1425,-4.6325 0,0 4.996,-51.3824 4.996,-51.3824 0,0 -17.342,2.9093 -17.342,2.9093 0,0 -5.1031,52.1418 -5.1031,52.1418 -0.1002,1.0286 -0.1696,1.9939 -0.2142,2.9363 -3.4034,4.6034 -7.0664,9.0705 -10.3497,9.7891 -5.0316,1.1014 -6.4535,-0.8959 -6.7128,-4.3565 -0.056,-0.7525 -0.2856,-2.2503 4.8753,-51.5019 0,0 7.4947,-1.2946 7.4947,-1.2946 0,0 0.5373,-6.1251 0.5373,-6.1251 0,0 -7.4886,1.2563 -7.4886,1.2563 1.3802,-13.9366 2.5222,-24.4722 2.5222,-24.4722 0,0 2e-4,0 2e-4,0 m -384.4363,98.3345 c 6.0441,-1.051 8.7937,2.2755 10.0915,8.6096 -5.5974,3.0054 -8.6497,9.7199 -8.0677,15.4072 0.4812,4.7031 3.6572,8.2761 9.8704,7.0661 -0.6411,19.39 -5.9979,39.6646 -19.2191,42.5585 -8.5683,1.8755 -15.0812,0.016 -16.325,-11.8881 -1.6618,-15.9048 3.0193,-58.1661 23.6499,-61.7533 0,0 0,0 0,0 m 320.0626,-54.353 c 1.9388,-0.3391 4.5977,-0.1747 6.9691,1.6389 0,0 -4.4433,43.1151 -4.4433,43.1151 -0.2657,1.9722 -0.3925,3.746 -0.4068,5.3461 -2.2819,4.9684 -5.0844,9.1293 -8.2951,9.8377 -3.508,0.774 -8.3104,0.048 -9.0755,-9.4961 -1.7384,-21.6819 4.765,-48.6077 15.2516,-50.4417 0,0 0,0 0,0 M 3.6715935,-1166.4442 c 0.9229,-0.2341 1.8352,-0.4301 2.7301,-0.6209 -3.4052,23.1596 -8.9644,26.8455 -14.7061,28.3452 -6.0543995,1.5814 -10.3897995,-1.0311 -11.8429995,-3.6929 -6.5454,-11.9905 9.8603,-20.4903 23.8189995,-24.0315 0,0 0,1e-4 0,1e-4"
       id="path3160"
       inkscape:connector-curvature="0" />
    <path
       sodipodi:nodetypes="ccccc"
       style="fill:none;stroke:#ff1e1e;stroke-width:6.68932104px;stroke-linecap:butt;stroke-linejoin:miter;stroke-opacity:1"
       d="m 3348.1455,-438.77437 -892.7163,-1671.43283 5742.2672,-766.0869 2442.2596,645.2669 -7291.8105,1792.25283"
       id="path3058"
       inkscape:path-effect="#path-effect3060"
       inkscape:original-d="m 3348.1455,-438.77437 -892.7163,-1671.43283 5742.2672,-766.0869 2442.2596,645.2669 z"
       inkscape:connector-curvature="0" />
    <path
       inkscape:connector-curvature="0"
       id="path3229"
       d="m 1123.9899,-126.44527 c 0.632,0.19262 -0.6823,1.48912 -3.7743,3.90316 -3.0922,2.41406 -7.9749,5.94812 -14.093,10.65594 -6.118,4.70785 -13.4942,10.59304 -20.9036,17.703346 -3.7045,3.55512 -7.4048,7.41612 -10.8542,11.58387 -3.4497,4.16778 -6.6498,8.64242 -9.2758,13.41922 -2.148,3.88882 -3.9074,7.97037 -5.0208,12.19438 -1.1136,4.22398 -1.5812,8.59055 -1.0832,13.02523 0.8192,7.43015 4.3457,15.11119 11.5821,22.34684 6.547,6.57754 16.2385,12.8270296 28.817,18.2380996 12.1605,5.24413 27.1451,9.71512 44.0897,13.32683 17.8666,3.8283004 37.8077,6.6539504 59.3146,8.5568304 21.5071,1.90283 44.5793,2.88312 68.4349,3.13657 26.2313,0.25291 53.4403,-0.44528 81.2843,-2.01712 27.8444,-1.57186 56.3225,-4.01673 85.0156,-7.18381 31.0759,-3.4388104 62.3756,-7.7605204 93.5486,-12.89806038 31.173,-5.13755002 62.2178,-11.09035962 92.7751,-17.74719962 30.0009,-6.54281 59.5173,-13.76079 88.1104,-21.63458 28.5931,-7.87376 56.2608,-16.40332 82.6039,-25.54365 23.3992,-8.12862 45.7843,-16.71081 66.6014,-25.72653 20.8168,-9.015706 40.0628,-18.465036 57.2849,-28.311146 14.9413,-8.58071 28.4651,-17.42853 39.6708,-26.4192 11.2058,-8.99071 20.0908,-18.12397 25.9748,-27.28693 5.3856,-8.32167 8.318,-16.60783 8.111,-24.4856 -0.1828,-7.85658 -3.4199,-15.37739 -9.4382,-22.08998 -6.2864,-7.05627 -14.8695,-14.11896 -26.1046,-19.33858 -12.4652,-5.80577 -25.6851,-12.02692 -41.2329,-15.65382 -20.8995,-5.21968 -27.6606,-5.99049 -39.0024,-7.6706 -28.4696,-5.14869 -51.4718,-6.79245 -51.1034,-8.50533 0.5544,-2.57754 23.6983,-1.65453 30.2282,-1.55864 23.4854,1.80667 47.8948,4.80242 71.772,9.81605 0,3e-5 0,3e-5 0,3e-5 17.7636,3.74656 35.0632,8.71752 50.2024,15.27092 13.6619,5.92758 25.2667,13.15511 33.3859,21.52817 7.7005,7.98033 12.1032,16.88449 12.7647,26.23357 0.6379,9.3387 -2.265,18.99314 -8.1084,28.53582 -6.4322,10.431 -15.9789,20.72395 -27.9564,30.71675 -11.9776,9.99282 -26.3836,19.68509 -42.3107,28.9112 -18.2614,10.62248 -38.5816,20.777916 -60.4822,30.407266 -21.9006,9.62928 -45.3786,18.73243 -69.8569,27.27371 -27.5581,9.62709 -56.4779,18.5848 -86.3338,26.81814 -29.8557,8.23333 -60.6454,15.74229 -91.9057,22.5023796 -31.8278,6.89024 -64.2386,13.02374 -96.8378,18.2865204 -32.5991,5.2628 -65.3848,9.6543 -97.9656,13.1077 -30.0517,3.19335 -60.0311,5.59154 -89.4579,7.05101 -29.4268,1.45946 -58.2998,1.97965 -86.2089,1.49334 -25.3889,-0.41894 -50.175,-1.73262 -73.4748,-4.0938 -23.3,-2.36117 -45.1122,-5.7699 -64.8257,-10.2599 -18.7646,-4.29246 -35.3888,-9.67574 -48.9813,-15.9620004 -14.0773,-6.52354 -24.6006,-13.99551 -31.4918,-21.8106296 -7.5587,-8.61036 -10.6595,-17.50363 -10.6203,-25.97681 0.033,-5.04377 1.1216,-9.91861 2.914,-14.56737 1.7921,-4.64874 4.2881,-9.07162 7.2011,-13.23443 3.5796,-5.09514 7.7055,-9.80059 12.0526,-14.13135 4.3469,-4.33078 8.9157,-8.28695 13.4605,-11.88651 9.0892,-7.199076 18.0297,-12.972796 25.6172,-17.470916 7.5875,-4.4981 13.8458,-7.72342 18.259,-9.79138 4.413,-2.06799 6.9952,-2.97971 7.6279,-2.78702 z"
       style="fill:#6ae21f;fill-opacity:1;stroke:#ceff1e;stroke-width:3;stroke-miterlimit:4;stroke-opacity:1;stroke-dasharray:none"
       sodipodi:nodetypes="ccsccccccccscscscscscsccccccscccccccscscscscscsccccccccscc" />
    <path
       inkscape:connector-curvature="0"
       id="path3231"
       d="m 1231.6141,-352.98734 c -16.4411,1.56506 -37.7337,9.46454 -42.0154,41.22133 0,0 -14.8478,92.19828 -14.8478,92.19828 0,0 -26.3964,4.42826 -26.3964,4.42826 0,0 -1.6505,9.20172 -1.6505,9.20172 0,0 26.5726,-4.59019 26.5726,-4.59019 0,0 -19.8911,123.683209 -19.8911,123.683209 -29.901,8.26844 -48.337,20.58418 -43.5001,44.66689 2.8218,14.05011 18.7893,19.55816 35.5132,15.00424 17.4838,-4.76084 38.646,-16.455 43.2034,-48.90406 0,0 0.9723,-6.36119 0.9723,-6.36119 0,0 610.3384,-151.108049 610.3384,-151.108049 0,0 0.9403,-8.61149 0.9403,-8.61149 0,0 -609.1548,146.329419 -609.1548,146.329419 0,0 18.8129,-121.130889 18.8129,-121.130889 0,0 8.5267,-1.4729 8.5267,-1.4729 0,0 14.0861,-2.43324 14.0861,-2.43324 0,0 -8.9138,65.86002 -8.9138,65.86002 -0.5519,4.18686 -0.6308,7.82101 -0.2816,10.95893 1.7443,15.66806 14.0768,20.13172 32.6928,15.84552 10.0701,-2.31859 21.6008,-13.08569 31.4793,-24.22206 5.4583,11.74693 16.3975,14.40254 34.3319,10.26006 21.7796,-5.03065 42.9708,-29.35565 43.0505,-68.88267 6.6252,-3.04431 12.6926,-7.03935 17.7239,-11.4592 0,0 -4.2885,34.97095 -4.2885,34.97095 -0.4611,3.80037 -0.5306,7.10599 -0.245,9.96765 1.4259,14.29052 11.833,18.53913 27.2751,14.98368 8.2939,-1.90961 18.1231,-11.75424 26.4228,-21.71295 2.9183,10.06036 11.7156,12.93185 24.4439,10.00124 36.5638,-8.41856 46.0645,-59.73921 43.5738,-87.30066 -0.8324,-9.21166 -5.1642,-15.37442 -12.7828,-14.11553 -5.9017,0.97517 -9.7631,6.75916 -9.4158,10.53643 0.4627,5.03315 3.2706,9.65257 8.4602,8.72675 1.0691,-0.19065 2.6593,-0.86928 3.6921,-1.41542 1.7674,19.39807 -6.6173,60.84662 -24.367,64.73175 -5.3357,1.16794 -7.1972,-0.86495 -7.5203,-4.30784 -0.1869,-1.99405 -0.034,-4.22214 0.2834,-6.87785 0,0 7.5214,-64.15433 7.5214,-64.15433 0,0 -26.8987,4.51254 -26.8987,4.51254 0,0 -7.7835,65.35253 -7.7835,65.35253 -0.364,2.33646 -0.5213,4.61522 -0.3444,6.4606 -4.2683,4.69221 -8.8529,8.55667 -12.945,9.45238 -7.8562,1.71958 -10.1073,-0.86576 -10.5094,-4.98564 -0.1645,-1.68615 0.018,-3.82349 0.2129,-5.96826 0,0 8.0148,-66.39361 8.0148,-66.39361 0,0 -28.784,4.82883 -28.784,4.82883 0,0 -2.9111,23.70954 -2.9111,23.70954 -3.6467,3.28071 -7.3254,6.52165 -13.3227,7.63724 -2.9151,0.54226 -4.856,0.29479 -6.2281,-0.63104 -1.838,-14.0428 -8.385,-27.53549 -28.7634,-24.14251 -30.5548,5.0874 -56.8953,31.47406 -51.5689,81.37801 0.2852,2.67249 0.6789,5.11144 1.1926,7.36329 -4.7659,4.55726 -9.6582,8.35706 -14.175,9.34569 -9.2139,2.01683 -12.1442,-0.51302 -12.6344,-5.02311 -0.1793,-1.64067 0.078,-3.57497 0.4604,-6.803 0,0 15.2721,-115.59328 15.2721,-115.59328 0,0 -34.9584,9.22362 -34.9584,9.22362 0,0 -5.3236,39.1963 -5.3236,39.1963 0,0 -16.1586,2.71076 -16.1586,2.71076 0,0 -6.4876,1.08837 -6.4876,1.08837 0,0 14.5049,-90.26761 14.5049,-90.26761 1.9158,-14.57998 11.4361,-24.06582 21.4526,-24.21398 3.0964,-0.0458 5.8052,0.44286 8.1634,1.27911 -1.5296,1.93185 -2.3381,4.34508 -2.0674,6.85903 0.5912,5.49223 6.0081,9.37591 12.0904,8.67758 6.0384,-0.69328 10.4681,-5.64866 9.8929,-11.07019 0,-0.0674 -0.023,-0.13566 -0.024,-0.20259 -0.028,-0.26801 -0.1012,-0.54118 -0.1442,-0.8039 -2.1136,-12.88008 -21.903,-19.58415 -43.874,-17.49266 0,0 0,1.5e-4 0,1.5e-4 m 514.9625,5.84769 c -5.3146,0.7505 -9.1732,6.72842 -8.6969,13.2709 0.4758,6.53632 5.0898,11.03478 10.3878,10.18117 5.2514,-0.8461 9.1654,-6.63528 8.706,-13.06906 -0.4598,-6.43974 -5.1293,-11.12692 -10.3969,-10.38301 0,0 0,0 0,0 m -24.0473,11.62718 c 0,0 -18.6073,5.83019 -18.6073,5.83019 0,0 -2.2836,21.72355 -2.2836,21.72355 0,0 -4.2784,0.71774 -4.2784,0.71774 0,0 -0.5624,6.27949 -0.5624,6.27949 0,0 4.282,-0.73969 4.282,-0.73969 -1.0998,12.30171 -4.7388,41.24128 -4.9317,52.5038 -3.0093,3.76123 -6.0907,7.01779 -8.9403,7.64155 -5.318,1.16401 -6.8339,-1.03483 -7.0974,-4.4364 -0.1078,-1.39205 0.02,-3.14436 0.1557,-4.9025 0,0 5.5498,-54.40958 5.5498,-54.40958 0,0 -19.4221,3.25827 -19.4221,3.25827 0,0 -0.4882,4.22974 -0.4882,4.22974 -2.6562,-1.93848 -6.2453,-2.94282 -9.5749,-2.38383 -28.436,4.77394 -34.7829,39.77481 -32.5128,67.59395 0.054,0.65939 0.1378,1.30792 0.2338,1.96805 -2.1618,3.05088 -4.5661,5.36376 -7.0858,5.91808 -4.7422,1.04323 -6.2959,-1.60917 -6.6056,-5.35796 -0.1617,-1.95671 -0.049,-4.11681 0.2368,-6.16836 0,0 3.5415,-32.36088 3.5415,-32.36088 0.042,-1.33234 0.09,-2.518 -0.018,-3.82302 -0.9111,-11.10266 -10.6813,-19.05455 -19.0274,-17.65438 -7.5241,1.26225 -15.3228,7.8186 -21.7295,14.89406 -4.0384,-5.96788 -10.8131,-9.43471 -16.7655,-8.43613 -6.9827,1.17142 -14.1413,6.53725 -20.3287,12.67986 0,0 0.9979,-9.43691 0.9979,-9.43691 0,0 -24.3454,4.08421 -24.3454,4.08421 0,0 -10.4338,91.48879 -10.4338,91.48879 0,0 24.6795,-5.68228 24.6795,-5.68228 0,0 8.2402,-72.75519 8.2402,-72.75519 3.1116,-3.01032 5.8147,-4.6962 9.7674,-5.39639 4.4203,-0.78297 7.8483,2.59404 8.3795,8.73284 0.1186,1.36342 0.097,2.93536 -0.094,4.52963 0,0 -6.7006,60.37817 -6.7006,60.37817 0,0 23.3493,-5.37603 23.3493,-5.37603 0,0 6.6427,-61.25886 6.6427,-61.25886 0.057,-1.20244 0.1074,-2.42735 0.01,-3.60085 -0.1708,-2.01219 -0.6267,-3.78695 -1.2688,-5.71616 2.8093,-2.54515 5.3828,-4.0122 8.8046,-4.61833 4.1759,-0.7397 7.4135,2.55982 7.9131,8.53031 0.1117,1.32607 0.091,2.85414 -0.091,4.40306 0,0 -3.3528,30.98478 -3.3528,30.98478 -0.3514,3.2789 -0.4225,5.97338 -0.1993,8.62385 1.0452,12.4105 8.5375,16.43702 20.2983,13.72918 5.8156,-1.33901 11.5874,-8.04442 16.6375,-15.64184 2.491,6.3596 7.8708,10.9605 17.8305,8.66001 8.5931,-1.9848 14.3422,-9.84817 17.9827,-17.21112 2.4312,7.74278 8.7292,10.1067 17.5094,8.0851 5.7092,-1.31451 12.2894,-9.04379 17.9321,-17.0911 1.941,8.43757 7.9949,11.12159 16.6396,9.13123 5.926,-1.36444 12.8067,-10.25082 18.4662,-18.81151 1.3507,9.69443 7.4117,12.85325 16.1761,10.83533 5.5322,-1.27375 11.9516,-9.68101 17.2671,-17.87974 3.078,9.16026 9.4639,11.7251 16.778,10.0411 14.072,-3.23998 21.6169,-13.06267 20.7852,-25.21994 -3.9414,5.67737 -8.868,10.3178 -14.8802,11.63821 -6.868,1.50837 -8.6975,-6.47937 -9.1883,-13.47577 -1.0833,-15.44567 3.4056,-39.8985 12.8304,-41.52308 2.4432,-0.42112 4.2146,0.72678 4.4474,4.11558 0.078,1.12923 -0.076,2.41061 -0.3006,4.02272 0,0 6.2655,-1.12854 6.2655,-1.12854 0.3124,-1.90334 0.3536,-3.18082 0.2483,-4.72524 -0.5274,-7.72726 -6.8313,-8.63839 -12.8325,-7.63386 -22.0894,3.69758 -27.432,32.98394 -25.9244,54.13564 0.1192,1.66888 0.2924,3.2061 0.5352,4.64913 -2.8571,3.81921 -5.8455,7.23049 -8.56,7.82466 -4.7521,1.0402 -6.1047,-1.05559 -6.3376,-4.274 -0.095,-1.31707 0.02,-2.97209 0.1425,-4.63252 0,0 4.996,-51.38238 4.996,-51.38238 0,0 -17.342,2.90929 -17.342,2.90929 0,0 -5.1031,52.14188 -5.1031,52.14188 -0.1002,1.02856 -0.1696,1.99385 -0.2142,2.93626 -3.4034,4.60342 -7.0664,9.07046 -10.3497,9.78913 -5.0316,1.10134 -6.4535,-0.8959 -6.7128,-4.35649 -0.056,-0.75253 -0.2856,-2.25038 4.8753,-51.50196 0,0 7.4947,-1.29462 7.4947,-1.29462 0,0 0.5373,-6.1251 0.5373,-6.1251 0,0 -7.4886,1.2563 -7.4886,1.2563 1.3802,-13.93655 2.5222,-24.47219 2.5222,-24.47219 0,0 2e-4,10e-6 2e-4,10e-6 m -384.4363,98.3345 c 6.0441,-1.05094 8.7937,2.27548 10.0915,8.60961 -5.5974,3.00537 -8.6497,9.71988 -8.0677,15.40717 0.4812,4.70315 3.6572,8.27611 9.8704,7.06611 -0.6411,19.38998 -5.9979,39.66461 -19.2191,42.55851 -8.5683,1.87547 -15.0812,0.0164 -16.325,-11.88808 -1.6618,-15.90481 3.0193,-58.1661 23.6499,-61.75332 0,0 0,0 0,0 m 320.0626,-54.35298 c 1.9388,-0.33908 4.5977,-0.17475 6.9691,1.63892 0,0 -4.4433,43.11506 -4.4433,43.11506 -0.2657,1.97218 -0.3925,3.74606 -0.4068,5.34609 -2.2819,4.96846 -5.0844,9.12931 -8.2951,9.83768 -3.508,0.774 -8.3104,0.0478 -9.0755,-9.4961 -1.7384,-21.6819 4.765,-48.60762 15.2516,-50.44165 0,0 0,0 0,0 M 1148.778,-72.558391 c 0.9229,-0.23405 1.8352,-0.43004 2.7301,-0.62085 -3.4052,23.15963 -8.9644,26.84548 -14.7061,28.34518 -6.0544,1.5814 -10.3898,-1.03113 -11.843,-3.69293 -6.5454,-11.99047 9.8603,-20.49022 23.819,-24.03147 0,0 0,7e-5 0,7e-5"
       style="font-size:127.12830353px;font-style:normal;font-variant:normal;font-weight:normal;font-stretch:normal;text-align:start;line-height:125%;letter-spacing:0px;word-spacing:0px;writing-mode:lr-tb;text-anchor:start;fill:#6ae21f;fill-opacity:1;stroke:#ceff1e;stroke-width:3;stroke-miterlimit:4;stroke-opacity:1;stroke-dasharray:none;font-family:'Lobster 1.3';-inkscape-font-specification:'Lobster 1.3,'" />
    <g
       inkscape:label="dodec:x0.00:x0.00:x0.00:x0.00:x0.00:x0.00"
       transform="translate(5388.0107,92.1010447)"
       id="g4891" />
  </g>
</svg>
