<?xml version="1.0" encoding="UTF-8" standalone="no"?>
<!-- Created with Inkscape (http://www.inkscape.org/) -->

<svg
   xmlns:osb="http://www.openswatchbook.org/uri/2009/osb"
   xmlns:dc="http://purl.org/dc/elements/1.1/"
   xmlns:cc="http://creativecommons.org/ns#"
   xmlns:rdf="http://www.w3.org/1999/02/22-rdf-syntax-ns#"
   xmlns:svg="http://www.w3.org/2000/svg"
   xmlns="http://www.w3.org/2000/svg"
   xmlns:sodipodi="http://sodipodi.sourceforge.net/DTD/sodipodi-0.dtd"
   xmlns:inkscape="http://www.inkscape.org/namespaces/inkscape"
   sodipodi:docname="flowmatic-logo-6.svg"
   inkscape:version="0.48.2 r9819"
   version="1.1"
   id="svg2"
   height="1052.3622047"
   width="744.09448819">
  <sodipodi:namedview
     id="base"
     pagecolor="#ffffff"
     bordercolor="#666666"
     borderopacity="1.0"
     inkscape:pageopacity="0.0"
     inkscape:pageshadow="2"
     inkscape:zoom="1.0634092"
     inkscape:cx="1469.1481"
     inkscape:cy="1247.0336"
     inkscape:document-units="px"
     inkscape:current-layer="layer1"
     showgrid="false"
     inkscape:window-width="1920"
     inkscape:window-height="1148"
     inkscape:window-x="0"
     inkscape:window-y="23"
     inkscape:window-maximized="1"
     showguides="false"
     inkscape:guide-bbox="true">
    <sodipodi:guide
       orientation="0,1"
       position="190.51966,635.82999"
       id="guide3818" />
    <sodipodi:guide
       orientation="0,1"
       position="188.17032,643.26954"
       id="guide3820" />
    <sodipodi:guide
       orientation="1,0"
       position="142.35835,623.07647"
       id="guide3822" />
    <sodipodi:guide
       orientation="1,0"
       position="149.46228,613.67914"
       id="guide3824" />
    <sodipodi:guide
       orientation="1,0"
       position="162.77516,635.82999"
       id="guide3826" />
    <sodipodi:guide
       orientation="1,0"
       position="238.77122,776.80587"
       id="guide3935" />
  </sodipodi:namedview>
  <defs
     id="defs4">
    <inkscape:path-effect
       effect="spiro"
       id="path-effect3060"
       is_visible="true" />
    <linearGradient
       id="linearGradient3958"
       osb:paint="gradient">
      <stop
         id="stop3970"
         offset="0"
         style="stop-color:#00a1e8;stop-opacity:1;" />
      <stop
         style="stop-color:#0033ff;stop-opacity:1;"
         offset="1"
         id="stop3962" />
    </linearGradient>
    <inkscape:path-effect
       effect="skeletal"
       id="path-effect3846"
       is_visible="true"
       pattern="m 493.18122,424.55145 a 356.1576,12.294972 0 0 1 -712.31519,0 356.1576,12.294972 0 1 1 712.31519,0 z"
       copytype="single_stretched"
       prop_scale="1"
       scale_y_rel="false"
       spacing="0"
       normal_offset="0"
       tang_offset="0"
       prop_units="false"
       vertical_pattern="false"
       fuse_tolerance="0" />
    <inkscape:path-effect
       effect="spiro"
       id="path-effect3838"
       is_visible="true" />
    <inkscape:path-effect
       effect="spiro"
       id="path-effect3834"
       is_visible="true" />
    <inkscape:path-effect
       effect="spiro"
       id="path-effect2993"
       is_visible="true" />
    <filter
       id="filter8914"
       inkscape:label="Glow"
       inkscape:menu="Shadows and Glows"
       inkscape:menu-tooltip="Glow of object's own color at the edges"
       color-interpolation-filters="sRGB">
      <feSpecularLighting
         id="feSpecularLighting8916"
         in="SourceAlpha"
         surfaceScale="1"
         specularConstant="2"
         specularExponent="18.5"
         result="result1">
        <feDistantLight
           id="feDistantLight8918"
           elevation="30"
           azimuth="225" />
      </feSpecularLighting>
      <feComposite
         id="feComposite8920"
         in2="SourceGraphic"
         result="result0"
         operator="atop" />
      <feMorphology
         id="feMorphology8922"
         radius="2"
         result="result1"
         in="SourceAlpha"
         operator="dilate" />
      <feComposite
         id="feComposite8924"
         in2="result1"
         in="result0"
         result="fbSourceGraphic" />
      <feColorMatrix
         result="fbSourceGraphicAlpha"
         in="fbSourceGraphic"
         values="0 0 0 -1 0 0 0 0 -1 0 0 0 0 -1 0 0 0 0 1 0"
         id="feColorMatrix8926" />
      <feGaussianBlur
         id="feGaussianBlur8928"
         stdDeviation="5"
         result="result91"
         in="fbSourceGraphic" />
      <feComposite
         id="feComposite8930"
         in2="result91"
         in="fbSourceGraphic"
         operator="over" />
    </filter>
  </defs>
  <metadata
     id="metadata7">
    <rdf:RDF>
      <cc:Work
         rdf:about="">
        <dc:format>image/svg+xml</dc:format>
        <dc:type
           rdf:resource="http://purl.org/dc/dcmitype/StillImage" />
        <dc:title></dc:title>
      </cc:Work>
    </rdf:RDF>
  </metadata>
  <g
     inkscape:label="Layer"
     id="layer2"
     inkscape:groupmode="layer">
    <rect
       y="-855.93341"
       x="-72.374771"
       height="1447.5576"
       width="3250.3938"
       id="rect3233"
       style="fill:#544e1c;fill-opacity:1" />
  </g>
  <path
     inkscape:connector-curvature="0"
     style="opacity:0.22477063999999999;fill:none;stroke:#fff200;stroke-width:1;stroke-miterlimit:4;stroke-opacity:1;stroke-dasharray:none"
     d="m 2064.3635,-238.51552 c 3.5578,1.97397 10.6206,3.10071 21.6176,4.04805 11.0036,0.94782 25.9346,1.72481 44.0678,3.13785 18.1459,1.41412 39.5097,3.47769 62.3562,6.98696 22.9206,3.5204 47.3956,8.51889 70.952,15.64932 23.7466,7.18819 46.6684,16.59329 65.8621,28.6234 19.4795,12.20901 35.2293,27.21756 44.2347,45.10245 9.2123,18.29555 11.4071,39.750912 3.7975,64.029897 -7.8485,25.042226 -26.219,53.278792 -57.2482,83.870599 -32.2448,31.790308 -78.3754,66.30732 -139.3003,102.118054 -63.651,37.41322 -143.6353,76.33068 -238.8559,114.67858 -99.6457,40.13009 -215.7726,79.54243 -344.4311,115.6251 -134.1573,37.62466 -280.8604,71.3176 -432.8842,98.33585 -156.9744,27.8977 -317.39732,48.27723 -471.60317,59.03153 C 536.18491,513.6533 388.82855,514.4276 260.46081,504.41077 132.49737,494.42566 26.056244,473.91851 -52.435693,444.04724 -129.15985,414.84884 -177.71777,377.25146 -196.53725,333.71535 c -18.10207,-41.87722 -8.42342,-88.6514 26.33715,-137.46511 33.0973,-46.47832 88.653986,-94.4158 161.5189126,-141.281307 C 60.436634,10.513607 144.94269,-32.863642 238.94094,-73.274436 328.26181,-111.67434 426.34873,-147.48553 527.6047,-179.48239 c 96.77957,-30.58244 197.01202,-57.86249 295.87041,-81.17584 95.28462,-22.47065 190.06019,-41.44274 280.42299,-56.69471 87.942,-14.84337 172.5099,-26.30494 250.7538,-34.50826 76.9031,-8.06268 148.4079,-13.05839 212.5195,-15.38102 63.5965,-2.30393 120.4573,-2.0039 169.5538,0.29864 49.0864,2.30212 90.7566,6.61371 124.9651,12.19141 34.405,5.60986 61.4403,12.5181 82.0232,19.92227 20.7755,7.4736 35.0478,15.4608 44.587,23.20728 9.6395,7.828 14.4746,15.40184 16.8681,22.14047 2.416,6.80214 2.3722,12.73446 2.4042,17.50609 0.032,4.8036 0.172,8.41465 2.6129,10.9012 2.449,2.49466 7.2297,3.85265 15.7274,4.49049 8.5004,0.63796 20.7113,0.56134 36.931,0.44491 16.1992,-0.11604 36.3862,-0.26165 59.7331,0.36061 23.3299,0.62169 49.8417,2.02167 77.7429,4.97575 27.9616,2.96055 57.4106,7.50354 85.8539,14.2614 28.6538,6.80783 56.4361,15.91341 80.4491,27.70936 24.3617,11.96734 45.0001,26.8018 58.907,44.57756 14.2265,18.18388 21.4956,39.6014 19.0025,63.93102 -2.5727,25.104125 -15.5883,53.510027 -41.2612,84.413198 -26.7006,32.140585 -67.2862,67.183388 -122.8317,103.747353 -58.1111,38.252699 -132.7996,78.286829 -223.2504,118.082869 -94.8488,41.73091 -206.8977,83.13068 -332.5729,121.61239 -131.4137,40.23875 -276.7541,76.98177 -429.1463,107.43669 -157.9087,31.55738 -321.22922,55.92659 -480.40521,70.84978 C 652.62337,521.04793 497.53995,526.1507 359.70797,520.28078 221.75843,514.40582 103.9816,497.65883 13.398555,471.02909 -75.45765,444.90663 -136.40388,409.78253 -167.27807,368.06981 c -29.77862,-40.23212 -31.12895,-85.985 -6.40402,-134.33606 23.58393,-46.11964 70.66883,-94.17782 136.187509,-141.530167 C 24.712537,47.24483 103.32192,3.0691795 192.36132,-38.327121 c 84.6302,-39.346441 178.81802,-76.252039 276.8345,-109.411839 93.66141,-31.68649 191.31731,-60.12804 288.01805,-84.61142 93.14988,-23.58445 186.13142,-43.68423 274.95513,-60.05359 86.3701,-15.91714 169.5751,-28.4546 246.6247,-37.72901 75.6467,-9.10551 146.0398,-15.15402 209.1884,-18.54271 62.5587,-3.35697 118.5227,-4.13839 166.9073,-2.95282 48.2986,1.1836 89.3727,4.32669 123.2481,8.68145 34.0076,4.37167 60.9283,9.97486 81.7631,16.01096 20.986,6.07988 35.8643,12.60248 46.4741,18.83016 10.6967,6.27863 17.0821,12.24816 21.548,17.35797 4.4966,5.14519 7.0708,9.403 10.2268,12.52192 3.1691,3.13176 6.9454,5.10454 13.433,6.0248 6.4924,0.92118 15.7029,0.78847 28.8903,0.0464 13.1617,-0.7406 30.2679,-2.07967 51.4878,-3.3312 21.1512,-1.24756 46.3828,-2.39841 74.7646,-2.6613 28.315,-0.2622 59.8108,0.36891 92.6327,2.65286 32.852,2.28599 67.1562,6.24735 100.3977,12.49707 33.4566,6.2902 66.0266,14.9472 94.8157,26.35015 29.1902,11.56181 54.6972,26.04485 73.521,43.52177 19.2509,17.87343 31.6493,39.03702 34.3797,63.18477 2.8173,24.91859 -4.6656,53.224151 -24.7227,84.148496 -20.8702,32.178436 -55.5211,67.408515 -105.1758,104.365289 -52.0009,38.70315 -120.6697,79.440265 -205.4601,120.258265 -89.0622,42.8742 -195.8459,85.79569 -317.1642,126.22638 -127.1687,42.38043 -269.4568,81.73394 -420.3994,115.25201 -156.9144,34.84415 -321.1317,62.92336 -483.32018,81.85865 C 780.07488,521.56674 619.10409,531.00983 473.37955,529.4458 326.93479,527.87411 198.96578,515.21792 97.028978,492.27336 -3.3445883,469.68079 -76.465207,437.56489 -119.55444,398.25396 c -41.68771,-38.03251 -54.60534,-82.19519 -40.68157,-129.5316 13.3102,-45.25048 51.0053,-92.94687 108.176088,-140.34708 C 2.2922987,83.311671 74.015973,38.695697 157.1105,-3.3720458 236.13926,-43.381372 325.52962,-81.13366 419.44749,-115.24282 c 89.75213,-32.59623 184.07356,-62.03098 277.90172,-87.53961 90.35468,-24.56419 180.91424,-45.67471 267.60792,-63.05969 84.24557,-16.89401 165.56117,-30.42137 240.91697,-40.69074 73.9165,-10.07342 142.7411,-17.10676 204.4889,-21.50084 61.0999,-4.34805 115.7561,-6.15408 163.0299,-6.03524 47.1226,0.11847 87.2173,2.14148 120.3862,5.31416 33.2417,3.17964 59.684,7.51786 80.4167,12.21707 20.8418,4.72393 35.9758,9.81203 47.3198,14.54068 11.4113,4.7566 19.0124,9.13972 25.2328,12.62689 6.2491,3.50266 11.1232,6.08925 17.106,7.54582 5.993,1.4589 13.1089,1.77939 23.3694,1.10618 10.2438,-0.67208 23.6122,-2.3284 41.2435,-4.49649 17.5565,-2.15888 39.3165,-4.8136 65.3228,-7.26562 25.8694,-2.43921 55.9386,-4.66847 89.1754,-5.89954 33.1012,-1.22605 69.4091,-1.45507 107.0054,0.0589 37.5766,1.5133 76.5976,4.78392 114.5202,10.40886 38.1251,5.65502 75.3745,13.73557 108.852,24.60884 33.9166,11.01562 64.216,24.99465 87.9074,42.00855 24.2162,17.39075 41.7184,38.1124 49.6858,61.87441 8.2202,24.5152 6.336,52.48129 -7.9719,83.166051 -14.8916,31.934668 -43.3713,67.0426365 -86.7901,104.057965 -45.5007,38.789851 -107.6196,79.836374 -186.059,121.261754 -82.4964,43.56812 -183.0408,87.5425 -298.8293,129.45351 -121.622,44.02256 -259.34,85.50108 -407.1406,121.64303 -154.0951,37.68129 -317.2473,69.09354 -480.4486,91.77138 C 915.89166,515.25092 751.03696,528.91637 599.23047,531.68887 446.05392,534.48646 309.36599,526.13544 197.17189,507.22315 86.260724,488.52728 1.5438883,459.89204 -53.578182,423.52388 -107.08897,388.21879 -131.83126,346.21128 -129.24482,300.45703 -126.76578,256.60625 -99.223875,209.78806 -51.295078,162.82198 -5.651042,118.09412 58.251249,73.443194 134.43927,31.066382 206.9701,-9.2764804 290.65892,-47.582063 379.59723,-82.38361 c 85.0278,-33.27139 175.22117,-63.49308 265.42223,-89.84691 86.85816,-25.37719 174.32399,-47.35144 258.25003,-65.62285 81.52506,-17.74864 160.37941,-32.15652 233.49461,-43.32392 71.6703,-10.94675 138.4276,-18.87915 198.2932,-24.2023 59.1804,-5.26231 112.0779,-8.02285 157.8035,-8.90931 45.5228,-0.88249 84.2198,0.0781 116.2764,2.11733 32.0765,2.04052 57.6459,5.15928 77.8968,8.55691 20.3185,3.40898 35.3383,7.09469 47.0624,10.34479 11.7684,3.26232 20.2392,6.07595 27.8899,7.94508 7.6664,1.87296 14.5233,2.78873 23.0396,2.57095 8.5085,-0.21747 18.6755,-1.56583 32.4463,-3.86117 13.7135,-2.28568 30.9809,-5.49952 52.8243,-9.13863 21.6985,-3.61495 47.8836,-7.63581 78.4738,-11.3488 30.3634,-3.68544 65.0713,-7.05918 102.9881,-9.33286 37.6908,-2.26007 78.6384,-3.42951 120.8563,-2.77263 42.1296,0.65483 85.7159,3.14172 128.1853,8.04165 42.6412,4.92019 84.4345,12.31469 122.4816,22.54156 38.5068,10.35029 73.48,23.69555 101.9392,40.10641 29.0674,16.76168 51.5831,36.88054 64.7273,60.08094 13.5541,23.92453 17.2413,51.3432 8.7048,81.55969 -8.8827,31.442931 -31.0901,66.153293 -68.0803,102.9248208 -38.7758,38.5463062 -93.998,79.5388162 -165.5919,121.1810792 -75.3657,43.8358 -168.9181,88.40764 -278.2226,131.33024 -115.0028,45.16027 -246.8476,88.2559 -389.9943,126.53903 -149.623,40.01537 -309.8646,74.30868 -472.1254,100.36339 -167.4044,26.88076 -334.06843,44.5294 -489.98635,51.53972 -157.94891,7.10168 -301.61122,3.1418 -422.64097,-11.50715 C 191.88019,500.95305 96.509061,476.18296 29.896749,443.23448 -35.004996,411.132 -71.510152,371.816 -80.51682,328.20416 -89.173455,286.28372 -72.340913,240.8774 -34.387201,194.85695 1.8348756,150.93663 57.078322,106.6953 125.46128,64.415488 190.65172,24.109749 267.75883,-14.412174 350.84051,-49.605907 c 79.48852,-33.671696 164.74637,-64.434663 250.53884,-91.416443 82.63584,-25.98911 166.30243,-48.64734 246.78466,-67.64571 78.17163,-18.45289 153.95169,-33.60576 224.23809,-45.55001 68.8682,-11.70331 133.0166,-20.42833 190.476,-26.58537 56.76,-6.08214 107.4079,-9.71132 151.1074,-11.52723 43.4595,-1.80607 80.3029,-1.83852 110.8035,-0.87418 30.4772,0.96358 54.7476,2.91593 74.104,5.05295 19.3883,2.1403 33.8963,4.45938 45.6244,6.25344 11.7476,1.79721 20.7266,3.0586 29.4699,3.31336 8.7408,0.25489 17.2568,-0.50174 28.0104,-2.4083 10.7171,-1.90015 23.6508,-4.93607 40.6755,-8.88444 16.9118,-3.92204 37.8305,-8.72815 63.6644,-13.88347 25.6007,-5.10882 55.9951,-10.54466 90.9768,-15.57597 34.6454,-4.98289 73.8029,-9.5621 116.2308,-12.94616 42.0912,-3.35718 87.5091,-5.53841 134.1963,-5.81549 46.5094,-0.27608 94.504,1.34441 141.376,5.43294 46.9937,4.09908 93.1798,10.7158 135.6558,20.1977 42.9365,9.58476 82.4353,22.18693 115.5257,37.87699 33.7647,16.00982 61.1539,35.39073 79.3558,57.88109 18.7563,23.17551 27.9082,49.87015 25.0784,79.42178 -2.9434,30.73825 -18.8931,64.811482 -49.3945,101.072855 -31.9725,38.0105304 -80.1174,78.622893 -144.556,120.12457 -67.8688,43.710815 -153.8954,88.452495 -255.9886,131.935005 -107.5516,45.80708 -232.4594,90.01095 -369.6622,129.93295 -143.7187,41.8178 -299.3862,78.4886 -458.8764,107.48102 -165.0502,30.00296 -331.467,51.28958 -489.45908,62.31849 -160.65446,11.21467 -309.35483,11.60049 -437.53267,1.31778 C 311.51996,506.64612 206.77279,486.01671 129.56887,456.87621 54.057822,428.37444 6.1969689,392.23156 -14.340455,351.28998 -34.14583,311.80845 -28.323208,268.34452 -0.86323881,223.79296 25.409,181.16867 71.303027,137.80921 131.0932,96.06652 188.19117,56.20345 257.89946,17.840873 334.28535,-17.404761 c 73.16382,-33.758905 152.68778,-64.778609 233.28568,-92.133509 77.67941,-26.36424 156.82286,-49.49274 233.15993,-69.02635 74.15883,-18.97623 146.22047,-34.71006 213.05484,-47.28343 65.4741,-12.31758 126.4346,-21.70535 180.924,-28.57948 53.7994,-6.78707 101.6659,-11.17994 142.82,-13.83262 40.8933,-2.63584 75.3864,-3.57763 103.8484,-3.61697 28.4048,-0.0394 50.9105,0.80878 68.9261,1.73524 18.0165,0.92562 31.5839,1.91889 42.9109,2.28329 11.3241,0.3645 20.4262,0.0921 29.9071,-1.26399 9.457,-1.35276 19.2972,-3.7839 31.9859,-7.396 12.6149,-3.59113 28.0304,-8.33628 48.057,-13.97116 19.8425,-5.58322 44.1719,-12.01845 73.7851,-18.73649 29.2734,-6.64096 63.672,-13.54048 102.8654,-19.94623 38.7262,-6.32949 82.1543,-12.17171 128.9328,-16.72926 46.3107,-4.51191 96.0361,-7.76957 147.043,-9.04944 50.7193,-1.27266 102.9652,-0.58876 154.0921,2.61373 51.177,3.20542 101.597,8.9652 148.3476,17.61894 47.1923,8.73544 91.0488,20.50365 128.6077,35.37491 38.2794,15.15663 70.3682,33.68768 93.4645,55.34462 23.7769,22.29567 38.2295,48.1192 40.9694,76.8409 2.8479,29.85471 -6.954,63.08765 -31.0165,98.609462 -25.2152,37.223269 -66.2473,77.1701685 -123.3846,118.213028 -60.189,43.234835 -138.3593,87.75625 -232.7339,131.37728 -99.5055,45.9926 -216.6623,90.81347 -346.8746,131.87285 -136.6327,43.08416 -286.2934,81.60299 -441.3689,113.04389 -160.9137,32.62455 -325.1324,57.1194 -483.181,71.8423 C 861.43191,512.82493 709.73515,517.38433 576.284,511.44077 442.75194,505.49356 330.19255,489.15797 243.62421,464.10482 158.61689,439.50362 100.15295,406.93683 68.483434,369.13657 37.835025,332.55628 32.641283,291.53911 49.344708,248.97172 65.370777,208.13042 101.41956,166.13696 151.98437,125.39366 200.37406,86.402815 261.96945,48.605919 330.89527,13.683049 c 66.11545,-33.498872 139.14769,-64.455161 213.78881,-91.892306 72.00495,-26.468253 145.90342,-49.818583 217.38532,-69.662583 69.47642,-19.28728 137.15611,-35.40723 199.88835,-48.43309 61.46255,-12.76211 118.62425,-22.65653 169.54585,-30.10655 50.2633,-7.35362 94.7778,-12.38339 132.8274,-15.7599 37.7846,-3.35308 69.3894,-5.10286 95.2865,-6.05926 25.8194,-0.95364 46.0549,-1.13201 62.2421,-1.35802 16.1648,-0.22567 28.3266,-0.50881 38.8139,-1.54209 10.4651,-1.03111 19.278,-2.81491 29.1174,-5.77666 9.7937,-2.94808 20.6074,-7.05733 34.9168,-12.3932 14.1925,-5.29215 31.8003,-11.77049 54.5738,-19.12807 22.508,-7.27191 50.0125,-15.37534 83.1994,-23.70455 32.7237,-8.21311 70.9314,-16.62562 114.1646,-24.46165 42.6172,-7.72449 90.1462,-14.88545 141.1252,-20.6766 50.3592,-5.72079 104.2366,-10.11445 159.4192,-12.45969 54.7652,-2.32755 111.1092,-2.64305 166.3432,-0.39202 55.1928,2.24927 109.6838,7.08492 160.5489,14.84015 51.2668,7.81647 99.302,18.67557 141.1506,32.64734 42.5951,14.22081 79.1848,31.811 106.9811,52.53402 28.5833,21.30965 48.129,46.14233 56.2473,73.89866 8.4308,28.82454 4.5935,61.04903 -13.1716,95.63916 -18.6039,36.224423 -52.6087,75.262693 -102.4403,115.570835 -52.4849,42.453701 -122.6514,86.409425 -209.0032,129.787065 -91.0891,45.75745 -199.9223,90.73643 -322.3471,132.4516 -128.6302,43.82972 -271.1101,83.66479 -420.3566,117.03975 -155.2215,34.71114 -315.4651,61.92534 -471.6603,79.93491 -159.9034,18.4373 -312.5464,26.8862 -449.29603,25.12983 C 582.82524,497.58602 464.2316,485.56892 369.79916,464.76191 276.69881,444.24794 208.7099,415.56114 166.64347,381.29294 125.78353,348.00709 109.88056,309.89255 115.8552,269.79388 c 5.75046,-38.59331 31.69284,-78.7426 72.59997,-118.01821 39.24396,-37.67876 92.15829,-74.484132 152.97498,-108.684266 58.44383,-32.865502 124.30087,-63.407613 192.27542,-90.603808 65.65761,-26.269212 133.61717,-49.560508 199.54723,-69.457366 64.13261,-19.3543 126.76493,-35.63458 184.73513,-48.90596 56.81983,-13.0079 109.55157,-23.22475 156.27957,-31.08229 46.1245,-7.75618 86.685,-13.27142 121.0334,-17.23588 34.0958,-3.93523 62.2347,-6.37106 84.9988,-8.13914 22.6775,-1.76139 40.0939,-2.87538 53.9213,-4.17941 13.7912,-1.30057 24.0412,-2.80035 33.2099,-5.19092 9.1347,-2.38164 17.2122,-5.64989 27.0008,-10.20907 9.7233,-4.52862 21.1363,-10.31833 36.7346,-17.39699 15.4338,-7.00405 34.9344,-15.24136 60.1952,-24.36047 24.9046,-8.99029 55.3471,-18.80382 91.9048,-28.79495 35.958,-9.82709 77.785,-19.80355 124.8948,-29.12656 46.3269,-9.16807 97.7971,-17.70298 152.8338,-24.78607 54.2462,-6.98144 112.1283,-12.5675 171.351,-16.03634 58.654,-3.43555 118.9483,-4.80691 178.1462,-3.56512 59.0442,1.2386 117.4453,5.09273 172.2635,11.88988 55.1593,6.83945 107.1886,16.72755 153.1412,29.7341 46.7011,13.21851 87.5791,29.79497 119.8622,49.50359 33.1528,20.23947 57.5542,43.98608 70.8215,70.66825 13.7621,27.67744 15.6498,58.75798 3.9725,92.25889 -12.2185,35.053044 -39.3779,72.981283 -82.0172,112.321464 -44.8875,41.414378 -107.0601,84.506265 -185.2644,127.304176 -82.5032,45.15024 -182.6666,89.87204 -296.7478,131.79459 -119.972,44.08733 -254.365,84.72406 -396.6252,119.51673 -148.2337,36.25345 -302.9567,65.66486 -455.5602,86.49488 -156.6755,21.38576 -308.2894,33.3474 -446.35546,35.51635 -139.18563,2.18626 -261.90622,-5.61248 -362.49482,-22.14126 -99.56501,-16.3604 -175.71853,-40.97647 -227.13421,-71.42111 -50.13348,-29.68551 -76.11832,-64.51328 -80.53677,-101.7116 -4.26726,-35.92277 11.57543,-73.77632 42.63073,-111.12808 29.87562,-35.93269 73.7258,-71.31559 125.94043,-104.379538 50.28581,-31.842414 108.39709,-61.5976682 169.08344,-88.203804 58.71306,-25.740839 120.09639,-48.663179 179.81974,-68.325313 58.16072,-19.147775 115.09946,-35.331995 167.65515,-48.611575 51.5496,-13.02534 99.21388,-23.35077 141.10837,-31.41912 41.3658,-7.96659 77.3457,-13.78889 107.3661,-18.17924 29.7965,-4.35767 53.854,-7.334 72.8761,-9.78625 18.9393,-2.44164 32.9427,-4.38001 43.8333,-6.67152 10.8511,-2.28304 18.6366,-4.92586 25.9647,-8.62225 7.29,-3.67704 14.1444,-8.39457 23.4376,-14.53747 9.213,-6.08996 20.8217,-13.55998 37.3519,-22.39956 16.3196,-8.72668 37.3959,-18.74987 64.8724,-29.67107 27.0222,-10.74065 60.1622,-22.30837 99.8871,-34.01477 38.9753,-11.48549 84.2359,-23.07872 135.0642,-33.94683 49.8612,-10.66141 105.1204,-20.62557 164.08,-29.05857 57.9792,-8.29279 119.7286,-15.12554 182.8617,-19.77314 62.3947,-4.59325 126.4992,-7.07238 189.5225,-6.89187 62.7384,0.17965 124.8934,3.00219 183.5053,8.79058 58.8721,5.81403 114.7125,14.68012 164.5787,26.66795 50.5959,12.16343 95.5443,27.66866 132.0888,46.29963 37.4734,19.10435 66.4759,41.69102 84.6366,67.21412 18.8128,26.43992 26.1477,56.27035 20.2962,88.557 -6.1152,33.74489 -26.6864,70.400678 -62.3391,108.581327 -37.5031,40.162673 -91.8198,82.141145 -161.9071,124.070788 -73.9205,44.223005 -165.2671,88.322205 -270.6726,130.047225 -110.9025,43.90117 -236.5641,84.859 -370.9458,120.57021 -140.2273,37.26449 -288.1432,68.34222 -435.6413,91.49261 -151.8088,23.827 -300.5728,38.8568 -438.046,44.5978 -139.05397,5.80708 -263.95261,2.01247 -368.86951,-10.32729 C 543.60838,434.43069 460.86871,413.9567 401.41834,387.51576 343.2241,361.63388 308.08351,330.38785 293.91281,296.44875 280.17924,263.55622 286.2131,228.40324 307.48739,193.39963 328.01515,159.62322 362.63887,126.08236 405.95107,94.566877 447.76678,64.140353 497.70978,35.555605 550.6118,9.9051721 601.89268,-14.95928 656.1529,-37.180092 709.0837,-56.294389 c 51.62187,-18.641599 102.26632,-34.445762 148.78681,-47.467561 45.6764,-12.78557 87.6491,-22.97666 124.07243,-31.0294 35.98616,-7.95616 66.74626,-13.87812 91.79166,-18.50443 24.8631,-4.59266 44.1945,-7.93712 58.829,-10.92087 14.566,-2.96992 24.5204,-5.59888 31.8504,-8.76646 7.2974,-3.15357 12.0183,-6.84861 16.9343,-11.78478 4.8843,-4.9037 9.984,-11.02467 18.293,-18.72966 8.2223,-7.62472 19.5883,-16.77027 36.663,-27.38654 16.8199,-10.4579 39.1331,-22.29371 68.5362,-35.05906 28.8469,-12.5239 64.433,-25.8923 107.116,-39.36983 41.7724,-13.19011 90.28,-26.4554 144.6698,-38.92879 53.2236,-12.20595 112.1243,-23.65583 174.8782,-33.49702 61.5657,-9.6548 127.0508,-17.78772 193.9734,-23.66746 65.9947,-5.79826 133.7758,-9.43386 200.4941,-10.36268 66.2816,-0.92274 132.0411,0.82395 194.2929,5.55956 62.4108,4.74776 121.883,12.54976 175.4749,23.47572 54.2819,11.06658 103.0809,25.45596 143.659,42.96075 41.5411,17.92011 74.8803,39.29158 97.664,63.59137 23.567,25.13482 36.0465,53.63518 35.7248,84.61111 -0.3359,32.33227 -14.629,67.58904 -43.5709,104.45733 -30.4125,38.74181 -77.1148,79.4036379 -139.2388,120.224153 -65.4842,43.028483 -148.0393,86.192587 -244.6317,127.364217 -101.6417,43.3241 -218.1713,84.1672 -344.0386,120.33024 -131.4779,37.775 -271.5761,69.99999 -412.7073,94.96129 -145.5574,25.74411 -289.8583,43.35438 -424.9778,52.2476 -137.0854,9.02263 -262.25754,8.92179 -369.63709,0.57114 C 686.90011,420.25768 599.29599,403.87848 533.32883,381.5051 468.50637,359.5201 425.39764,332.04895 402.40026,301.63778 380.0299,272.05568 376.83057,239.94272 388.66981,207.6608 400.13196,176.40841 425.61,145.10019 459.94246,115.52779 493.18057,86.898172 534.71499,59.865197 579.49462,35.541234 c 43.506,-23.632071 90.21845,-44.804833 135.87479,-63.03992 44.60737,-17.816115 88.43198,-32.933152 128.35413,-45.40551 39.25132,-12.262818 74.94495,-22.048971 105.28242,-29.831114 30.00108,-7.69583 54.90984,-13.48068 74.32754,-18.12327 19.2854,-4.61088 33.2256,-8.12199 42.7971,-11.45628 9.5272,-3.3188 14.7574,-6.47805 17.858,-10.38628 3.0854,-3.88869 4.0909,-8.52401 5.9725,-14.61555 1.867,-6.04471 4.6294,-13.50899 11.4169,-22.74305 6.7059,-9.12294 17.3464,-19.9319 34.5396,-32.33596 16.902,-12.19395 40.0835,-25.8672 71.0995,-40.51846 30.3577,-14.34041 68.1236,-29.55706 113.5427,-44.86378 44.3403,-14.94304 95.9034,-29.93782 153.6964,-44.07889 56.4137,-13.80343 118.8102,-26.79712 185.2334,-38.10579 65.0103,-11.06815 134.1052,-20.55456 204.7016,-27.71916 69.4613,-7.04942 140.793,-11.88811 211.0816,-13.97143 69.6826,-2.06532 138.9028,-1.43461 204.6474,2.20959 65.7829,3.64637 128.7134,10.34916 185.8494,20.17816 57.7642,9.93707 110.1985,23.17647 154.5827,39.51847 45.3578,16.70044 82.7683,36.8166 109.8993,59.84634 28.0168,23.78176 45.3253,50.8943 50.215,80.48844 5.0962,30.84323 -3.2653,64.6065 -25.8226,100.04437 -23.6732,37.191559 -63.0791,76.376642 -117.4925,115.8928303 -57.3071,41.6174217 -131.2358,83.5863977 -219.0449,123.9007597 -92.3775,42.41147 -199.5911,82.75612 -316.545,118.94766 -122.2431,37.82818 -253.7831,70.71118 -387.5537,96.9846 -138.192,27.14172 -276.6647,46.82696 -407.8686,58.40964 -133.4663,11.78244 -257.1267,14.99068 -365.14589,10.33626 C 832.90186,400.44645 742.21632,388.00582 671.38151,369.64977 601.5133,351.5445 551.83166,327.93269 521.17517,301.21837 491.24308,275.13512 479.65339,246.32028 482.67602,217.06533 485.60457,188.64507 502.28383,159.91396 527.80079,132.6447 552.57868,106.16538 585.67344,81.047802 622.18294,58.412272 657.74421,36.364396 696.63932,16.589099 734.67575,-0.42693307 771.91652,-17.087009 808.50105,-31.19395 841.35106,-42.805784 c 32.35249,-11.435906 61.24236,-20.522326 84.92805,-27.752394 23.4519,-7.158827 41.90279,-12.5409 55.05336,-16.949907 13.07128,-4.382381 20.95073,-7.827928 24.76833,-11.301269 3.8009,-3.457926 3.5999,-6.957606 1.7625,-11.442916 -1.8274,-4.46152 -5.2354,-9.90005 -7.0651,-17.04004 -1.81416,-7.07886 -2.02743,-15.80811 2.647,-26.52349 4.6118,-10.57106 13.9959,-23.02065 30.8364,-37.21642 16.5235,-13.92804 40.1674,-29.45983 72.4514,-46.03709 31.5272,-16.18864 71.1829,-33.30156 119.1001,-50.49674 46.6644,-16.74563 101.0813,-33.52926 162.1124,-49.40234 59.4272,-15.45597 125.1715,-30.05327 195.1393,-42.89015 68.315,-12.53368 140.8974,-23.42768 215.0561,-31.92991 72.7992,-8.34635 147.5612,-14.43385 221.3029,-17.7151 72.9472,-3.24595 145.4932,-3.7681 214.5897,-1.25027 68.9964,2.51423 135.2199,8.08789 195.7238,16.79118 61.0502,8.7819 116.9122,20.84556 164.8805,35.99796 48.929,15.4559 90.1494,34.28937 121.3515,56.017 32.1637,22.39697 53.9809,48.08285 63.7539,76.2454 10.1689,29.30217 7.3706,61.50489 -9.1606,95.42531 -17.3241,35.54642 -49.8046,73.133661 -96.8344,111.192166 -49.4746,40.03699072 -115.0512,80.601344 -194.243,119.805433 -83.2637,41.219701 -181.1631,80.736981 -289.0151,116.583151 -112.7549,37.47556 -235.2517,70.56953 -360.9259,97.68274 -129.9878,28.04387 -261.5301,49.30164 -387.4922,63.09209 -128.4227,14.05986 -248.964,20.14209 -355.9159,18.81937 -107.35523,-1.3277 -199.3562,-10.08065 -273.35789,-24.57353 -73.25384,-14.34666 -127.97615,-34.12171 -164.93552,-57.07532 -36.22094,-22.4947 -55.12769,-47.84474 -60.05382,-73.84904 -4.80298,-25.35099 3.65011,-51.22531 20.76293,-75.88226 16.67104,-24.01959 41.52176,-46.891331 69.82498,-67.500271 27.64499,-20.130061 58.63684,-38.168928 88.8728,-53.628957 29.67477,-15.1730268 58.73549,-27.9403744 84.15966,-38.368968 25.08873,-10.291099 46.74417,-18.364923 63.28776,-24.739405 16.4066,-6.321635 27.84693,-11.009076 34.12734,-14.905865 6.24972,-3.87775 7.4122,-6.994487 4.78352,-10.362809 -2.61879,-3.355501 -8.97592,-6.9737 -16.49212,-11.840742 -7.47631,-4.841193 -16.04119,-10.916621 -22.31052,-18.97155 -6.21118,-7.980753 -10.09461,-17.873943 -8.18297,-30.003783 1.88389,-11.9513 9.42438,-26.0048 25.38876,-41.98514 15.63524,-15.65094 39.29153,-33.05561 72.45989,-51.59506 32.32,-18.0654 73.5467,-37.1212 123.6995,-56.26436 48.7247,-18.59802 105.7773,-37.23107 169.8696,-54.9027 62.254,-17.16484 131.1932,-33.42717 204.5774,-47.85483 71.4771,-14.05273 147.4249,-26.40938 225.0364,-36.30257 76.0121,-9.68931 154.0884,-17.07096 231.1689,-21.5928 76.083,-4.46332 151.8252,-6.17355 224.1403,-4.8144 72.0588,1.35425 141.4174,5.77297 205.1212,13.32579 64.1501,7.60644 123.2397,18.4751 174.5776,32.41869 52.264,14.1951 97.0396,31.72865 132.0426,52.13372 36.0127,20.9938 62.022,45.22975 76.3482,71.92885 14.8788,27.72926 17.2676,58.3277 6.3844,90.67013 -11.386,33.83662 -37.3492,69.73882 -77.3726,106.224119 -42.0461,38.329536 -99.6276,77.3258102 -170.4734,115.214941 -74.4229,39.802468 -163.161,78.21826 -261.9011,113.39712 -103.2149,36.77338 -216.4082,69.68029 -333.4951,97.20004 -121.2041,28.48734 -244.9795,50.83666 -364.6244,66.35446 -122.2074,15.85022 -238.2404,24.34393 -342.586,25.93944 -105.028,1.60616 -196.6668,-3.78488 -272.15562,-14.65862 -74.97779,-10.80016 -133.13965,-26.86154 -174.92563,-46.09289 -41.0986,-18.91529 -66.06693,-40.73077 -77.86528,-63.35051 -11.54337,-22.1304 -10.4872,-44.94089 -1.12863,-66.74158 9.14707,-21.30811 26.18065,-41.65226 46.56438,-59.934897 19.96995,-17.911751 43.17542,-33.899395 65.62088,-47.482934 22.08723,-13.366299 43.50619,-24.469795 61.30001,-33.391001 17.59914,-8.8238011 31.71358,-15.5623316 40.73345,-20.7626554 8.9619,-5.1671186 12.92052,-8.8462406 11.79184,-11.9268246 -1.12466,-3.06993 -7.29472,-5.564559 -17.04128,-8.551854 -9.71872,-2.978473 -22.96066,-6.459002 -36.91466,-11.478154 -13.8842,-4.993952 -28.38613,-11.506947 -39.87084,-20.311829 -11.3748,-8.720672 -19.68027,-19.649672 -21.24271,-33.103192 -1.53821,-13.241819 3.51043,-28.843869 18.01503,-46.587089 14.18241,-17.3493 37.34885,-36.63144 70.97044,-57.1627 32.69417,-19.96477 75.13536,-41.00664 127.22972,-62.1561 50.4927,-20.49909 109.9412,-41.04241 176.9002,-60.57988 64.8801,-18.93105 136.8493,-36.92138 213.5141,-53.00393 74.4913,-15.62675 153.6792,-29.50222 234.6325,-40.84073 79.1,-11.07887 160.3765,-19.80034 240.6857,-25.60517 79.0925,-5.71688 157.9071,-8.64933 233.3124,-8.4796 74.9772,0.16878 147.321,3.409 214.0649,9.79232 67.0716,6.41455 129.1979,16.07363 183.6999,28.79502 55.3732,12.92473 103.4597,29.14894 142.0012,48.2204 39.575,19.58291 69.4664,42.35795 88.0195,67.57639 19.232,26.14083 26.4304,55.11077 20.8107,85.83692 -5.8685,32.08735 -25.7406,66.24654 -59.1676,101.07562 -35.0606,36.531842 -85.0607,73.838039 -147.9104,110.252012 -65.9479,38.208854 -145.796,75.3011 -235.5605,109.543328 -93.7881,35.77693 -197.6134,68.1521 -305.8385,95.69074 -112.0774,28.51894 -227.5013,51.51299 -340.0033,68.29624 -115.0768,17.1674 -225.4517,27.60389 -325.8582,31.67763 -101.3036,4.11034 -191.0478,1.70136 -266.4313,-5.86736 -75.105,-7.5406 -135.10939,-20.09869 -180.19176,-35.74042 -44.49446,-15.43786 -74.14758,-33.74425 -91.58037,-52.93895 -17.11621,-18.84589 -22.44035,-38.46936 -19.97346,-57.24552 2.41973,-18.41454 12.28331,-36.01057 25.25799,-51.72014 12.75177,-15.439725 28.50076,-29.10007 43.37113,-40.516836 14.67492,-11.266938 28.52215,-20.400436 38.65669,-27.500975 10.04997,-7.0411 16.46982,-12.12175 17.72283,-15.823718 1.24768,-3.686267 -2.63432,-6.028942 -11.61544,-7.969155 C 907.63842,11.985277 893.58631,10.432754 876.098,8.1332554 858.63778,5.8374116 837.80224,2.7852813 816.65144,-2.1200713 795.59239,-7.0041236 774.34903,-13.718671 756.83314,-23.073124 c -17.34675,-9.264576 -30.8794,-21.069122 -36.69026,-35.72665 -5.71486,-14.415667 -3.87153,-31.487542 8.52443,-50.952676 12.10375,-19.00571 34.21779,-40.15635 67.80651,-62.69864 32.59944,-21.87816 75.85386,-44.94342 129.55624,-68.15353 51.93437,-22.44604 113.50884,-44.95915 183.11514,-66.4299 67.2845,-20.75454 142.1023,-40.53674 221.8988,-58.33943 77.3481,-17.25645 159.6429,-32.70823 243.8224,-45.54747 82.0595,-12.51585 166.4202,-22.62335 249.8484,-29.75397 81.9783,-7.00665 163.7445,-11.19491 242.1163,-12.2445 77.7568,-1.04135 152.9419,0.99904 222.5721,6.19369 69.8241,5.20914 134.8056,13.64758 192.2757,25.13779 58.2673,11.64951 109.4309,26.56113 151.259,44.29518 42.8615,18.17207 76.3371,39.48515 98.8001,63.21719 23.2375,24.55021 34.8754,51.88294 34.136,80.9728 -0.7706,30.31942 -14.9848,62.70184 -42.2424,95.81943 -28.54,34.67571 -71.4087,70.205258 -126.6676,105.023084 -57.9023,36.4834493 -129.2206,72.077703 -210.2604,105.162534 -84.606,34.540662 -179.1598,66.092602 -278.4353,93.312052 -102.814,28.18965 -209.5276,51.42467 -314.2991,69.04235 -107.2793,18.03931 -211.092,29.96151 -306.4518,36.06664 -96.4028,6.17177 -182.9045,6.33252 -256.7302,1.70463 -73.7556,-4.62381 -134.0742,-13.9593 -180.9361,-26.22479 -46.4006,-12.14509 -79.30391,-27.05678 -101.03237,-42.87578 -21.40742,-15.5852 -31.94379,-31.98501 -35.33085,-47.64997 -3.33298,-15.41603 0.20701,-30.11495 6.49054,-43.06877 6.19582,-12.77297 15.02961,-23.881715 22.75101,-32.885356 7.64313,-8.912715 14.18988,-15.801779 16.83234,-20.792451 2.62764,-4.962815 1.37924,-8.076293 -5.21148,-9.960556 -6.58,-1.881032 -18.51427,-2.55408 -35.66367,-3.017922 C 901.52991,46.087873 879.14644,45.818207 853.37097,44.53993 827.59544,43.261723 798.50402,40.961525 769.42109,36.472144 740.43558,31.99788 711.64119,25.356224 687.25311,15.691585 663.09358,6.1173324 643.4817,-6.3657175 632.59072,-22.073538 c -10.7057,-15.440748 -12.84781,-33.875074 -3.27918,-54.996663 9.33115,-20.597877 29.76453,-43.589529 62.7716,-68.148289 31.97733,-23.79261 75.58877,-48.90943 130.5184,-74.22876 53.00695,-24.43303 116.40029,-48.97246 188.40416,-72.44239 69.4387,-22.63396 146.9016,-44.27155 229.6625,-63.86017 80.0307,-18.94234 165.2876,-36.02859 252.5689,-50.42494 84.8828,-14.00094 172.2081,-25.5414 258.6423,-34.04095 84.739,-8.33291 169.3365,-13.81078 250.5525,-16.10923 80.4016,-2.27536 158.2888,-1.45556 230.6577,2.53371 72.4145,3.99172 140.0778,11.20096 200.3286,21.45395 60.9563,10.37303 114.9746,23.97288 159.8494,40.37108 45.885,16.76757 82.6592,36.62505 108.7265,58.87405 26.9094,22.96751 42.6275,48.66663 46.3927,76.11477 3.9164,28.54944 -5.0701,59.14113 -26.5914,90.51488 -22.4908,32.78715 -58.6975,66.483982 -106.805,99.618634 -50.3276,34.664327 -113.5396,68.6285071 -186.1913,100.380557 -75.768,33.113899 -161.2748,63.60258 -251.666,90.214169 -93.5857,27.55212 -191.4288,50.67217 -288.0965,68.73224 -99.044,18.50413 -195.6267,31.48019 -285.0604,39.17925 -90.5573,7.79577 -172.6778,10.10067 -243.6674,8.01864 -71.0944,-2.08483 -130.3167,-8.53107 -177.5125,-17.69844 -46.8715,-9.10448 -81.5934,-20.81303 -106.2385,-33.38842 -24.3604,-12.42997 -38.8457,-25.6537 -46.9204,-38.20413 -7.9732,-12.3925 -9.749,-24.12235 -9.2589,-34.20984 0.4857,-9.97962 3.1406,-18.374994 4.3423,-24.775288 1.1933,-6.35576 0.9168,-10.771044 -3.561,-13.400372 -4.4666,-2.622543 -13.16,-3.485401 -27.48005,-3.251326 -14.33505,0.234218 -34.36183,1.557146 -59.83501,2.907011 -25.54609,1.353791 -56.57569,2.720496 -91.07133,2.81706 C 808.21026,80.574016 770.2803,79.379808 732.58348,75.642273 694.96244,71.913413 657.8247,65.658997 625.71757,55.965011 593.89214,46.355914 567.31396,33.432542 550.45923,16.867513 533.89439,0.5875286 526.92131,-19.06752 532.87117,-41.749764 c 5.79675,-22.098333 23.84934,-46.880308 55.65332,-73.441546 30.76264,-25.69151 74.21486,-52.87494 129.93355,-80.34213 53.65917,-26.45199 118.51874,-53.0683 192.62942,-78.59962 71.30958,-24.5663 151.18344,-48.1212 236.71674,-69.56087 82.5178,-20.68393 170.5742,-39.46298 260.8181,-55.47335 87.5602,-15.53431 177.72,-28.55527 267.0413,-38.46762 87.3709,-9.69591 174.6763,-16.49721 258.6145,-20.07415 82.9122,-3.53322 163.3649,-3.95406 238.3289,-1.18632 74.8482,2.76353 145.0265,8.73632 207.878,17.74801 63.4503,9.09757 120.1115,21.38971 167.8027,36.45743 48.6595,15.37371 88.46,33.78726 117.8392,54.56333 30.2619,21.4003 49.7158,45.47874 57.6221,71.29123 8.2061,26.79047 4.0264,55.59291 -12.1878,85.2092 -16.91,30.88734 -46.9303,62.72018 -88.3438,94.113313 -43.2483,32.783891 -98.8164,65.022655 -163.4763,95.3063658 -67.3459,31.5412062 -144.1259,60.7736722 -225.8213,86.5366522 -84.5309,26.657099 -173.509,49.355289 -261.8849,67.509479 -90.5736,18.60552 -179.4755,32.23792 -262.3252,41.11639 -83.9912,9.00071 -160.8101,13.02793 -227.8829,13.08567 -67.3091,0.058 -124.1816,-3.865 -170.3852,-10.25912 -46.0086,-6.36714 -81.1775,-15.12694 -107.377,-24.66092 -25.9765,-9.45276 -43.1068,-19.62516 -54.6294,-29.13663 -11.4146,-9.42238 -17.3804,-18.18982 -21.6443,-25.37634 -4.2322,-7.13308 -6.8485,-12.72355 -11.3547,-16.395473 -4.4891,-3.658269 -10.9139,-5.427251 -21.9378,-5.494053 -11.0291,-0.06681 -26.7365,1.563934 -48.4662,4.184604 -21.8174,2.631223 -49.77608,6.255982 -83.54101,9.745732 -33.95309,3.50919 -73.77574,6.86714 -117.2752,8.7026 -43.68482,1.84328 -90.91975,2.12833 -137.82375,-0.48791 -46.89041,-2.61545 -93.1132,-8.13025 -133.76707,-17.530112 C 533.28896,88.007463 498.84263,74.92598 475.1021,57.740935 451.76699,40.849559 439.05843,20.155406 440.52719,-3.9555007 c 1.42994,-23.4734643 16.32452,-49.9658043 46.22811,-78.4911713 28.88434,-27.552878 71.58937,-56.800198 127.59353,-86.440218 53.83254,-28.49074 119.75157,-57.22557 195.63076,-84.87429 72.85284,-26.54611 154.86697,-52.0766 242.94821,-75.43058 84.7823,-22.47918 175.4526,-43.00845 268.5001,-60.68942 90.0735,-17.11588 182.9266,-31.66479 275.0054,-43.03407 89.8653,-11.09585 179.7498,-19.25498 266.2832,-24.1401 85.2871,-4.81479 168.1683,-6.49638 245.5852,-4.96573 77.1278,1.52491 149.6595,6.25483 214.9382,14.02242 65.757,7.8246 124.858,18.81481 175.1459,32.55999 51.1966,13.9934 93.7646,30.97858 126.1764,50.29665 33.3116,19.85413 56.1719,42.33174 67.8699,66.52325 12.1144,25.052 12.3356,52.07899 1.0091,79.93876 -11.7874,28.99292 -36.0923,58.95056 -71.275,88.56729 -36.6706,30.868826 -85.0795,61.31776 -142.1841,90.032109 -59.385,29.861042 -127.8286,57.686275 -201.1095,82.403877 -75.7557,25.552499 -156.0072,47.569703 -236.0612,65.514774 -82.0384,18.3898 -163.0002,32.32153 -238.8103,41.99594 -76.9177,9.81581 -147.7261,15.16038 -210.0042,16.95511 -62.6014,1.80407 -116.0512,0.0223 -160.0863,-3.95246 -43.9525,-3.96719 -78.3013,-10.07905 -104.7606,-16.82991 -26.3077,-6.71219 -44.7951,-14.02493 -58.5042,-20.64428 -13.6222,-6.57761 -22.5846,-12.46394 -30.4686,-16.79013 -7.8501,-4.30792 -14.7021,-7.0758 -23.9522,-7.96546 -9.2462,-0.889186 -20.969,0.0949 -37.7733,2.7306 -16.8679,2.64573 -38.9533,6.96046 -67.5625,12.19038 -28.8149,5.26749 -64.3328,11.46525 -106.1458,17.39501 -42.17046,5.98054 -90.73446,11.67228 -143.33782,15.60923 -52.96661,3.96415 -109.8187,6.1177 -166.39567,5.01158 C 638.33218,152.43558 582.36643,148.04714 532.3916,139.30556 482.74017,130.62057 439.53349,117.7094 407.96627,100.18891 376.9236,82.959667 357.52549,61.453296 353.58421,36.088338 c -3.83554,-24.684277 7.04845,-52.771201 34.27301,-83.191715 26.265,-29.348941 67.55921,-60.634353 123.27111,-92.453663 53.4594,-30.53301 119.96784,-61.4153 197.21996,-91.22783 74.01905,-28.56487 157.85658,-56.12355 248.2217,-81.45066 86.78911,-24.32467 179.85661,-46.65925 275.52421,-66.06612 92.4017,-18.74435 187.7861,-34.86822 282.478,-47.73827 92.209,-12.53253 184.5347,-22.08351 273.5299,-28.30681 87.5202,-6.12011 172.6905,-9.08241 252.4163,-8.80454 79.2551,0.27622 153.9798,3.75726 221.5159,10.27869 67.8817,6.55467 129.2268,16.25014 181.9014,28.68223 53.5064,12.62855 98.5947,28.20341 133.7732,46.08155 36.0732,18.33274 62.0266,39.23421 77.1826,61.82543 15.6596,23.34148 19.8926,48.61563 13.0487,74.73092 -7.1063,27.11662 -26.1557,55.20357 -55.5677,83.02785 -30.5916,28.94061 -72.3336,57.56033 -122.3402,84.63373 -51.9138,28.105884 -112.4562,54.409486 -177.6699,77.9243863 C 2245.0242,28.31445 2173.259,49.43601 2101.4305,66.912843 c -73.5794,17.90288 -146.504,31.819449 -214.9971,41.943437 -69.5258,10.27655 -133.8155,16.56031 -190.6177,19.70521 -57.1712,3.16535 -106.3147,3.14187 -147.1767,1.21991 -40.8666,-1.92225 -73.2659,-5.71682 -98.7981,-9.98318 -25.45,-4.2526 -44.067,-8.95073 -58.7315,-12.88473 -14.6137,-3.92034 -25.3638,-7.074431 -35.6863,-8.651372 -10.3108,-1.575259 -20.2759,-1.575361 -33.1968,0.298594 -12.9563,1.878958 -28.9822,5.651128 -50.6396,11.060918 -21.8097,5.44791 -49.4495,12.57311 -84.2042,20.57654 -35.1189,8.08719 -77.6036,17.07962 -126.9989,25.70903 -49.9757,8.7308 -107.00449,17.07147 -168.59914,23.45631 -62.19964,6.4476 -128.78891,10.8578 -195.33633,11.66391 -66.82805,0.80946 -133.06711,-2.03767 -193.04665,-9.72137 -59.69355,-7.64575 -112.50992,-20.01339 -152.83753,-37.53506 -39.69062,-17.24507 -66.76226,-39.28735 -77.09706,-65.683466 -10.05656,-25.685709 -4.10857,-55.20989 19.57443,-87.4188072 22.8277,-31.0463388 61.96369,-64.3147738 116.72311,-98.2954368 52.46621,-32.5573 119.02319,-65.59874 197.18628,-97.60792 74.74874,-30.61088 160.03856,-60.24098 252.37633,-87.59367 88.49502,-26.21443 183.70656,-50.40545 281.77756,-71.59058 94.5161,-20.41717 192.2479,-38.16138 289.388,-52.57507 94.3856,-14.00497 188.9993,-24.98151 280.3107,-32.57256 89.6029,-7.44904 176.9152,-11.71198 258.8018,-12.70241 81.2271,-0.98247 157.9844,1.24387 227.6096,6.51697 69.828,5.28858 133.2267,13.69674 188.0827,24.82614 55.599,11.28013 102.9705,25.46404 140.6608,41.92252 38.5603,16.83839 67.3086,36.19156 85.6048,57.20755 18.8597,21.66342 26.7333,45.21375 23.9838,69.60482 -2.8486,25.26779 -17.0865,51.50027 -41.175,77.5309 -25.0003,27.01577 -60.5646,53.78754 -103.9383,79.17194 -44.9422,26.302674 -98.0457,51.001248 -155.5853,73.190254 -59.3315,22.8800476 -122.9276,42.931655 -186.7239,59.722598 -65.3054,17.188213 -130.2303,30.817842 -191.2815,41.084076 -61.9786,10.422049 -119.4176,17.299472 -170.247,21.43243 -51.2073,4.16365 -95.3498,5.527607 -132.2112,5.292575 -36.9266,-0.235448 -66.4055,-2.058129 -89.9594,-4.163402 -23.5298,-2.103155 -41.1498,-4.470407 -55.6111,-5.972429 -14.4485,-1.500757 -25.8082,-2.128348 -37.3933,-1.128678 -11.6049,1.001329 -23.5225,3.645874 -38.9751,8.19435 -15.5434,4.575101 -34.7756,11.097896 -60.2307,19.280786 -25.7172,8.26735 -57.9242,18.25811 -97.9089,29.13118 -40.5382,11.02351 -89.1861,22.96989 -145.4736,34.50326 -57.1384,11.70769 -122.1202,22.9687 -192.35603,32.11551 -71.14994,9.26599 -147.36862,16.30506 -223.9774,19.42338 -77.14412,3.14031 -154.01584,2.26149 -224.54786,-3.93227 -70.34364,-6.17732 -133.53687,-17.58588 -183.515,-34.72613 -49.24946,-16.89016 -84.98575,-39.13937 -102.73366,-66.29095 -17.27454,-26.427989 -17.25339,-57.183441 1.94646,-91.029965 18.49488,-32.6046819 54.64112,-67.765543 107.70144,-103.858979 50.77172,-34.536636 116.7562,-69.726316 195.29393,-103.946706 74.97462,-32.66803 161.28428,-64.40035 255.22537,-93.82101 89.8517,-28.13994 186.90846,-54.23192 287.12735,-77.24289 96.3823,-22.13017 196.2456,-41.53702 295.6427,-57.53513 96.3724,-15.51131 193.1022,-27.94582 286.5691,-36.93348 91.5214,-8.80068 180.8185,-14.38363 264.7099,-16.65774 83.037,-2.25094 161.6632,-1.28506 233.2063,2.73804 71.5965,4.02605 136.8603,11.15476 193.6982,20.99222 57.4787,9.94841 106.905,22.76167 146.8618,37.82152 40.7861,15.37229 72.0443,33.20694 93.177,52.67529 21.7322,20.021 32.8926,41.88068 33.8672,64.57358 1.0072,23.45293 -8.8444,47.85586 -28.0432,72.10253 -19.8794,25.10696 -49.7439,50.02765 -86.947,73.69416 -38.4704,24.47286 -84.6088,47.508492 -134.8932,68.277606 -51.7679,21.381882 -107.5636,40.224743 -163.5932,56.14945 -57.3005,16.2857808 -114.3673,29.397163 -167.9762,39.53743 -54.4114,10.292082 -104.8215,17.453823 -149.3465,22.243129 -44.881,4.827623 -83.5029,7.228747 -115.7121,8.327158 -32.3072,1.101664 -58.0605,0.904235 -78.7376,0.625984 -20.6942,-0.278519 -36.3194,-0.623214 -49.5245,0.02074 -13.2244,0.644772 -24.0884,2.293809 -35.8057,5.646955 -11.7686,3.367934 -24.4871,8.474659 -41.3176,15.54526 -16.9786,7.132764 -38.2624,16.298741 -66.376,27.181872 -28.4935,11.03006 -64.1572,23.86649 -108.3054,37.63113 -44.9084,14.00176 -98.7281,28.98876 -161.0081,43.56283 -63.4375,14.84482 -135.6205,29.23813 -213.90009,41.41184 -79.56569,12.37368 -165.0535,22.38058 -251.57296,28.19281 -87.39043,5.87072 -175.03962,7.3929 -256.49097,3.13419 C 405.74441,258.47031 331.53564,248.46996 271.1,232.13941 211.44914,216.02087 166.08566,193.94648 139.894,166.37148 114.38373,139.5142 107.43925,107.78653 121.1432,72.504438 134.34054,38.526664 166.58122,1.6067379 217.10527,-36.513624 265.39873,-72.951295 330.10531,-110.24966 408.39666,-146.67187 483.02,-181.38748 569.8449,-215.23566 664.95588,-246.75319 c 90.80081,-30.08929 189.35127,-58.1173 291.4149,-82.99461 97.95912,-23.87685 199.70132,-44.98378 301.13282,-62.60354 98.1412,-17.04826 196.7906,-30.97087 292.2307,-41.3823 93.2588,-10.17346 184.368,-17.09503 270.0954,-20.66742 84.6759,-3.52856 164.9995,-3.82845 238.2857,-1.05709 73.1835,2.76744 140.1233,8.62453 198.7429,17.18073 59.1507,8.63375 110.4082,20.09644 152.3938,33.77947 42.7585,13.93493 76.2545,30.28144 99.9326,48.23131 24.2924,18.41577 38.4044,38.62044 42.7491,59.64469 4.4793,21.67627 -1.3906,44.28035 -16.1139,66.76074 -15.2102,23.22332 -39.8362,46.30148 -71.321,68.23626 -32.4877,22.63342 -72.1343,43.96862 -115.5953,63.247846 -44.6639,19.812946 -93.0601,37.338546 -141.6402,52.249745 -49.6217,15.230792 -99.0519,27.63008 -145.3162,37.413628 -46.9337,9.9250528 -90.264,17.0985948 -128.2934,22.24597 -38.3424,5.189725 -71.0849,8.304924 -98.1527,10.403328 -27.1755,2.106876 -48.5643,3.197522 -65.6235,4.413591 -17.0995,1.218948 -29.8757,2.577782 -40.9013,5.062837 -11.0639,2.493669 -20.431,6.138468 -31.234,11.584282 -10.8766,5.482871 -23.2981,12.821131 -40.3792,22.207122 -17.2782,9.494473 -39.4514,21.132968 -69.0489,34.575931 -30.0889,13.66575 -68.0191,29.25354 -115.1568,45.85563 -48.1061,16.94329 -105.951,34.9785 -173.1401,52.65268 -68.6748,18.06506 -147.0825,35.72964 -232.5637,51.13003 -87.19021,15.70818 -181.32042,28.97034 -277.33276,37.82075 -97.30167,8.96905 -195.61967,13.30749 -288.13032,11.43155 C 409.23738,298.789 323.55279,290.66938 251.98624,275.61371 181.20559,260.72337 125.32142,239.25587 89.67891,211.64643 54.927829,184.72752 39.953627,152.34478 47.093868,115.88565 53.971026,80.772452 81.313849,42.276088 128.37432,2.2594998 173.32349,-35.961356 235.95649,-75.293788 313.29341,-113.87878 c 73.61315,-36.72716 160.37146,-72.68274 256.14461,-106.30793 91.27677,-32.04652 190.90921,-62.03296 294.4592,-88.80669 99.19785,-25.64828 202.52358,-48.48571 305.72678,-67.75882 99.6583,-18.61096 200.0005,-34.04792 297.2059,-45.90745 94.7917,-11.56505 187.5213,-19.8418 274.9,-24.72582 86.1297,-4.81419 167.9677,-6.38447 242.8124,-4.86605 74.5831,1.51311 143.0055,6.10662 203.2065,13.39243 60.6134,7.33582 113.4815,17.46822 157.2621,29.796 44.4855,12.52618 79.9542,27.41512 105.8981,43.87607 26.5544,16.84822 43.2959,35.4346 50.6739,54.8219 7.5889,19.94017 5.315,40.77981 -5.3293,61.51688 -10.9695,21.37085 -30.7999,42.6237 -57.0047,62.82409 -26.979,20.79675 -60.598,40.41013 -97.668,58.14888 -38.0229,18.19487 -79.4382,34.319802 -120.9175,48.098531 -42.3079,14.054141 -84.3791,25.580471 -123.4726,34.811182 -39.6278,9.356865 -75.9299,16.305528 -107.3906,21.546709 -31.7169,5.283923 -58.3599,8.820215 -79.9446,11.611351 -21.6828,2.8037763 -38.2241,4.8632617 -51.08,7.2522747 -12.9015,2.3975241 -22.1248,5.14132849 -30.1885,9.1562375 -8.1055,4.0357268 -15.1003,9.3777218 -24.0551,16.6306768 -9.0345,7.317724 -20.1469,16.620674 -36.4199,28.073248 -16.5013,11.613585 -38.4375,25.500774 -68.3571,41.304278 -30.501,16.110682 -69.4796,34.286302 -118.3717,53.597862 -50.0548,19.77067 -110.6686,40.78035 -181.5391,61.53213 -72.6875,21.28366 -156.1461,42.2749 -247.7605,61.0235 -93.7824,19.19235 -195.6601,35.92778 -300.47007,48.10403 -106.59211,12.38337 -215.187,19.91719 -318.62955,20.85418 -104.0406,0.94246 -201.43369,-4.81665 -284.62062,-18.10693 C 165.89071,304.43789 98.710124,284.05304 52.677535,256.85204 7.7312465,230.29305 -16.330822,197.6319 -16.851511,160.31505 -17.353974,124.36071 4.0340459,84.526144 46.622645,42.795456 87.281218,2.9557704 146.95713,-38.294127 222.53745,-78.966117 c 71.86174,-38.670673 157.88609,-76.697473 253.73313,-112.417913 91.20813,-33.99147 191.44267,-65.94173 296.05865,-94.62822 100.0431,-27.4325 204.60519,-52.02095 309.27297,-72.97106 100.8831,-20.19253 202.656,-37.16465 301.3862,-50.49232 96.0925,-12.97161 190.2261,-22.61711 279.05,-28.82375 87.3801,-6.10584 170.5344,-8.94974 246.7414,-8.68441 75.7842,0.2639 145.4878,3.60227 207.0633,9.62867 61.8657,6.0548 116.1214,14.87696 161.4648,25.8708 45.9699,11.14578 83.1533,24.60746 111.0909,39.60879 28.5274,15.31814 47.5906,32.3232 57.6794,50.10605 10.3514,18.24531 11.3064,37.35682 4.364,56.37692 -7.137,19.55336 -22.593,39.00365 -43.9383,57.47486 -21.9237,18.97218 -49.9664,36.85428 -81.071,53.01729 -31.8388,16.5444 -66.6956,31.20602 -101.4402,43.75725 -35.3821,12.781479 -70.4096,23.302987 -102.5592,31.815526 -32.5555,8.620024 -61.9598,15.140392 -86.8734,20.244427 -25.1066,5.143724 -45.5478,8.840084 -61.435,12.045014 -15.9634,3.220443 -27.3147,5.952607 -35.5262,9.211467 -8.2476,3.273365 -13.3628,7.093744 -17.827,12.331482 -4.4935,5.271714 -8.3795,12.006739 -14.6795,20.76914 -6.3676,8.8564903 -15.2742,19.834552 -29.7795,33.074957 -14.7417,13.456106 -35.3893,29.326931 -64.522,47.243189 -29.7758,18.311892 -68.6028,38.851518 -118.0068,60.677848 -50.7285,22.41173 -112.7961,46.24387 -186.0274,69.96841 -75.359,24.41388 -162.5407,48.69809 -259.027,70.82868 C 1148.6031,299.8032 1040.12,320.14563 927.48284,335.86156 812.50807,351.90373 694.33078,362.95473 580.3793,367.09657 465.37619,371.27659 356.31578,368.34566 261.25437,357.3202 166.74633,346.35975 87.66685,327.56462 30.422677,301.26253 -25.574498,275.53316 -59.731882,243.0277 -69.011458,205.23598 -77.959793,168.79402 -63.625846,127.9197 -26.587449,84.714889 8.768896,43.472725 64.519823,0.47054219 137.44952,-42.169047 c 69.28355,-40.507707 153.81971,-80.535783 249.06632,-118.310113 90.51783,-35.89885 190.79923,-69.79677 295.991,-100.39453 100.43287,-29.21356 205.82713,-55.56065 311.59991,-78.20092 101.76905,-21.7835 204.66765,-40.30385 304.64585,-55.11349 97.1277,-14.38737 192.4191,-25.4109 282.4564,-32.94796 88.4047,-7.40036 172.657,-11.51862 250.0118,-12.50479 76.7737,-0.97883 147.5455,1.11385 210.2798,5.8925 62.8979,4.79104 118.3153,12.32303 164.9869,22.0042 47.2121,9.79321 85.8547,21.85734 115.5183,35.42803 30.2196,13.8249 51.306,29.28492 63.7944,45.49563 12.7817,16.59177 16.6157,34.012 13.0154,51.34279 -3.6925,17.77276 -15.1754,35.44669 -32.0612,52.1993 -17.3029,17.16571 -40.2007,33.31581 -65.7537,47.87934 -26.0991,14.87486 -54.8159,28.02661 -83.1983,39.27474 -28.8515,11.43402 -57.1738,20.84322 -82.6435,28.49915 -25.7585,7.74297 -48.4537,13.662251 -66.9146,18.429091 -18.592,4.800651 -32.8229,8.427335 -42.9046,11.797091 -10.1303,3.385896 -16.074,6.521512 -19.3303,10.370357 -3.2728,3.867779 -3.8629,8.473762 -4.2303,14.639204 -0.3715,6.212103 -0.5509,14.040411 -3.5278,24.013331 -3.0132,10.094827 -8.9472,22.4478405 -20.8472,37.180502 -12.1167,15.000896 -30.5316,32.561851 -57.8603,52.307877 -27.9964,20.228798 -65.5363,42.859665 -114.2472,66.949347 -50.1547,24.80403 -112.357,51.23588 -186.5861,77.75042 -76.6296,27.372 -166.104,54.82561 -266.0555,80.27975 -103.0532,26.24413 -216.784,50.23177 -336.0269,69.61207 -122.1768,19.85719 -248.94281,34.67004 -372.66764,42.34796 -125.32307,7.77714 -245.6998,8.1076 -352.60536,-0.16553 C 184.73814,385.63534 93.383824,368.95667 24.281269,344.07902 -43.469496,319.68772 -88.632997,287.82489 -107.72266,250.00214 -126.1527,213.48475 -119.98431,171.93196 -89.620581,127.55581 -60.628895,85.18493 -9.842919,40.650491 59.456152,-3.7874406 125.25568,-45.98098 207.46064,-87.90025 301.34319,-127.65217 c 89.12508,-37.7376 188.81855,-73.5405 294.02021,-106.02559 100.30026,-30.97167 206.05891,-59.06812 312.51733,-83.3979 102.26537,-23.37131 205.93667,-43.44287 306.84137,-59.73975 97.8597,-15.80509 194.0274,-28.2097 285.015,-37.07972 89.1754,-8.69335 174.2833,-14.08331 252.552,-16.31676 77.5314,-2.21249 149.142,-1.35426 212.8058,2.18941 63.7014,3.54565 120.0448,9.808 167.8044,18.1977 48.2084,8.46857 88.0521,19.16436 119.1766,31.33251 31.6347,12.36767 54.4515,26.31816 69.0371,40.98829 14.8922,14.97854 21.2685,30.74365 20.6649,46.41341 -0.6168,16.02937 -8.5082,31.95465 -21.3175,47.00243 -13.0932,15.38107 -31.2589,29.80437 -51.657,42.753 -20.7871,13.19547 -43.7714,24.80329 -66.1613,34.68819 -22.7167,10.02901 -44.6814,18.23861 -63.7567,24.92252 -19.2642,6.75001 -35.4791,11.92202 -47.636,16.17962 -12.2325,4.284 -20.3193,7.64113 -24.5756,10.9559 -4.2758,3.32966 -4.6974,6.62718 -2.8012,10.81179 1.906,4.206102 6.1315,9.328413 10.2284,16.145404 4.1314,6.873253 8.1149,15.507625 8.9931,26.400267 0.8902,11.038497 -1.4433,24.466347 -10.033,40.390222 -8.7617,16.2394001 -24.1276,35.181797 -48.7525,56.452029 -25.2781,21.834202 -60.4969,46.248534 -107.3916,72.306518 -48.4058,26.89739 -109.471,55.64676 -183.3504,84.69997 -76.4964,30.08236 -166.7903,60.49747 -268.7126,89.12594 -105.4471,29.61872 -222.9047,57.18886 -347.3198,80.25876 C 989.57544,385.72902 855.49664,404.45385 723.04123,415.91843 588.36252,427.57539 457.35358,431.54251 338.95352,426.47385 220.46524,421.40167 116.74181,407.35946 35.365858,384.45066 -44.633013,361.93002 -101.55811,331.23898 -131.41208,293.88395 -160.28304,257.75863 -163.36538,215.95129 -140.81659,170.77154 -119.27281,127.60561 -74.544715,81.818573 -9.9301513,35.807981 51.408319,-7.8699574 130.35758,-51.524012 222.02346,-93.136089 c 86.95087,-39.471641 185.33985,-77.104661 289.9048,-111.425311 99.57448,-32.6826 205.15933,-62.49817 311.82149,-88.49897 102.31311,-24.94068 206.35085,-46.55281 307.81285,-64.33138 98.2434,-17.21465 194.967,-30.9951 286.6049,-41.1939 89.6605,-9.97866 175.3523,-16.63243 254.273,-20.10502 78.0359,-3.43355 150.2362,-3.79558 214.5828,-1.47216 64.2594,2.3203 121.282,7.33477 169.8787,14.45484 48.9511,7.17194 89.7343,16.5285 122.0507,27.32188 32.7729,10.94558 57.0306,23.42094 73.4165,36.58084 16.6903,13.40441 25.2822,27.54964 27.3445,41.58577 2.1046,14.32261 -2.5608,28.5271 -11.6567,41.88515 -9.2745,13.62013 -23.1014,26.32527 -38.7245,37.6492 -15.8833,11.51284 -33.5278,21.55206 -50.2866,30.02562 -16.9678,8.57936 -32.9237,15.51843 -45.9015,21.13383 -13.0845,5.66164 -23.0743,9.96319 -29.1142,13.56458 -6.0705,3.61957 -8.1359,6.53411 -6.6145,9.60192 1.5276,3.07965 6.6565,6.32554 13.8083,10.61853 7.1874,4.31485 16.4111,9.70885 25.2248,16.92337 8.8898,7.27689 17.3704,16.44867 22.5054,27.985363 5.2075,11.700797 6.9686,25.91304 2.252,42.731907 -4.8161,17.173552 -16.4563,37.185272 -37.6148,59.664641 -21.7566,23.114456 -53.7487,48.98312 -97.8215,76.684608 -45.5919,28.656231 -104.3406,59.395331 -176.5896,90.680391 -75.0118,32.48137 -164.6693,65.57547 -267.0409,97.14478 C 1475.881,308.84231 1356.32,339.83238 1228.3211,366.51383 1096.1885,394.05697 956.312,416.73732 816.4539,432.14089 673.69238,447.86423 533.07016,455.76168 403.86444,454.2909 274.08523,452.81344 158.22257,441.90055 64.441878,421.50302 -28.031868,401.38992 -97.260417,372.4263 -138.67956,336.08297 c -40.13913,-35.22016 -53.4808,-76.80039 -39.86197,-122.35159 13.02568,-43.56675 50.57789,-90.26416 109.400061,-137.561003 C -13.292762,31.264247 61.403065,-13.91625 149.91775,-57.223704 233.83664,-98.282652 330.1241,-137.63342 433.32476,-173.7051 c 98.18166,-34.31707 202.9838,-65.79622 309.29776,-93.42772 101.8518,-26.47184 205.79159,-49.59762 307.38678,-68.83803 98.2311,-18.60336 195.1437,-33.74362 287.0926,-45.25806 89.822,-11.2482 175.7919,-19.15126 255.0734,-23.84887 78.2592,-4.63698 150.7742,-6.20126 215.5357,-5.07998 64.554,1.11764 121.9905,4.90811 171.1603,10.78165 49.4282,5.90458 90.8796,13.95138 124.1136,23.39735 33.6293,9.55818 59.0373,20.59193 76.9276,32.27087 18.1797,11.86796 28.6686,24.42694 33.0742,36.85561 4.4841,12.65093 2.6955,25.16162 -3.0359,36.84527 -5.8285,11.88291 -15.6898,22.88031 -26.8983,32.57328 -11.3685,9.83099 -24.0486,18.28312 -35.5237,25.30594 -11.5939,7.09525 -21.8829,12.70565 -29.0608,17.17147 -7.2248,4.49455 -11.2577,7.82179 -11.3924,10.64112 -0.1355,2.82988 3.659,5.15342 10.8605,7.80743 7.2233,2.66192 17.865,5.66907 30.298,9.86934 12.4912,4.21992 26.8024,9.66732 40.4841,17.04994 13.8014,7.44708 26.9995,16.91012 36.6729,28.83528 9.8164,12.10097 16.0317,26.823428 15.6207,44.254175 -0.42,17.814654 -7.8009,38.590463 -24.8732,61.965544 -17.5791,24.0682986 -45.5858,51.054352 -85.9702,80.058933 -41.8543,30.060077 -97.2366,62.430998 -166.6834,95.600218 -72.2771,34.52097 -159.9173,69.95117 -261.2529,104.15561 -105.5017,35.61062 -225.5087,69.76508 -355.4102,99.87824 -134.5777,31.19737 -278.5525,57.76365 -424.24595,77.14855 -149.30209,19.8652 -298.20317,31.88645 -437.18239,34.32294 -140.13968,2.4568 -267.55902,-4.88694 -373.54614,-22.25854 -104.8617438,-17.18737 -186.664161,-43.86131 -240.23477,-78.6208 -52.04466,-33.76937 -76.52358,-74.59168 -72.87393,-120.0232 3.49548,-43.51632 32.76648,-90.71934 84.66412,-138.95288 C -67.295458,70.955108 2.096182,24.512878 86.455443,-20.272954 166.42034,-62.72578 259.73234,-103.63875 360.76318,-141.33858 c 96.04993,-35.84126 199.38751,-68.89814 304.73037,-98.09381 100.81789,-27.94157 204.13266,-52.53345 305.37844,-73.19837 97.77071,-19.95565 194.45761,-36.42617 286.33051,-49.23148 89.6198,-12.49133 175.524,-21.6201 254.8395,-27.52144 78.1692,-5.81602 150.6961,-8.55863 215.5779,-8.61689 64.5607,-0.0581 122.1261,2.53531 171.5856,7.18776 49.6247,4.66805 91.4594,11.43578 125.325,19.56233 34.1959,8.20571 60.4579,17.83083 79.5543,28.05707 19.361,10.36783 31.4305,21.3726 37.863,32.21825 6.5309,11.01252 7.2799,21.85492 4.5796,31.87837 -2.7397,10.16881 -8.9913,19.46881 -16.1298,27.5262 -7.2222,8.15196 -15.2951,15.0026 -21.8202,20.54175 -6.5773,5.58371 -11.531,9.81669 -13.2035,13.06402 -1.6796,3.26198 -0.03,5.52669 5.5167,7.45646 5.5586,1.93409 15.0235,3.53911 27.7702,5.63497 12.7717,2.09998 28.8369,4.70564 46.5168,8.63699 17.752,3.94736 37.1662,9.25473 55.7845,16.60116 18.7774,7.40925 36.8162,16.94154 51.2061,29.02298 14.6044,12.26213 25.5176,27.24193 29.718,45.02024 4.2956,18.180998 1.5694,39.430917 -10.9415,63.399674 -12.8953,24.704962 -36.3102,52.475587 -72.2945,82.440571 -37.3503,31.102581 -88.4704,64.732965 -154.0871,99.413685 -68.4346,36.16976 -152.7971,73.54981 -251.7031,110.02675 -103.2542,38.08063 -222.084,75.06355 -352.1886,108.33671 -135.2441,34.58732 -281.5057,64.85868 -431.2887,88.15264 C 885.29559,470.14122 729.72436,486.3641 582.32028,492.91465 433.09216,499.54637 295.05891,496.13214 177.42174,482.24731 60.607655,468.45961 -33.718003,444.61963 -99.753436,412.02336 -164.09329,380.26428 -200.39452,340.76467 -207.62201,295.99344 c -6.93579,-42.9655 13.00619,-90.21072 56.86312,-138.96913 41.70193,-46.36272 104.711133,-93.743422 183.86125,-139.734604 75.03914,-43.602478 164.43958,-85.87465 262.42207,-125.036616 93.11509,-37.21639 194.23528,-71.73048 297.91386,-102.39286 99.14751,-29.32239 201.2475,-55.3085 301.60135,-77.33942 96.80699,-21.25229 192.79936,-39.00667 284.16076,-53.06369 89.0092,-13.69516 174.4612,-24.01476 253.4449,-31.08873 77.7301,-6.96156 149.9332,-10.85131 214.6093,-12.06025 64.2525,-1.2011 121.6356,0.22664 171.0801,3.68716 49.5189,3.46566 91.4337,8.98713 125.6312,15.8235 34.4602,6.88888 61.2693,15.13847 81.2671,23.93981 20.2291,8.9031 33.5618,18.38424 41.7064,27.66973 8.2494,9.40551 11.2055,18.60296 11.2105,26.97875 0.01,8.47585 -2.977,16.08815 -6.3735,22.50538 -3.4271,6.47642 -7.2323,11.7132 -9.124,15.7396 -1.902,4.04918 -1.8378,6.86329 1.7111,8.83241 0,0 0,0 0,0"
     id="path8571" />
  <g
     inkscape:label="Layer 1"
     inkscape:groupmode="layer"
     id="layer1">
    <path
       sodipodi:nodetypes="ccsccccccccscscscscscsccccccscccccccscscscscscsccccccccscc"
       style="fill:#000000;fill-opacity:1;stroke:none"
       d="m -29.835206,-1221.5767 c 0.632,0.1927 -0.6823,1.4892 -3.7743,3.9032 -3.0922,2.4141 -7.9749,5.9481 -14.093,10.6559 -6.117997,4.7079 -13.494197,10.5931 -20.903597,17.7034 -3.7045,3.5551 -7.4048,7.4161 -10.8542,11.5839 -3.4497,4.1677 -6.6498,8.6424 -9.2758,13.4192 -2.148,3.8888 -3.9074,7.9704 -5.0208,12.1944 -1.1136,4.2239 -1.5812,8.5905 -1.0832,13.0252 0.8192,7.4301 4.3457,15.1112 11.5821,22.3468 6.547,6.5776 16.2385,12.8271 28.817,18.2381 12.160497,5.2442 27.145097,9.7152 44.089697,13.3269 17.8665995,3.8283 37.8077,6.6539 59.314599,8.5568 21.507101,1.9028 44.579301,2.8831 68.434897,3.1366 26.2313,0.2529 53.44031,-0.4453 81.28431,-2.0172 27.8444,-1.5718 56.3225,-4.0167 85.0156,-7.1838 31.0759,-3.4388 62.3756,-7.7605 93.5486,-12.898 31.173,-5.1376 62.2178,-11.0904 92.7751,-17.7472 30.0009,-6.5428 59.5173,-13.7608 88.1104,-21.6346 28.5931,-7.8738 56.2608,-16.4033 82.6039,-25.5437 23.3992,-8.1286 45.7843,-16.7108 66.6014,-25.7265 20.8168,-9.0157 40.0628,-18.465 57.2849,-28.3111 14.9413,-8.5807 28.4651,-17.4286 39.6708,-26.4192 11.2058,-8.9907 20.0908,-18.124 25.9748,-27.287 5.3856,-8.3216 8.318,-16.6078 8.111,-24.4856 -0.1828,-7.8565 -3.4199,-15.3774 -9.4382,-22.0899 -6.2864,-7.0563 -14.8695,-14.119 -26.1046,-19.3386 -12.4652,-5.8058 -25.6851,-12.0269 -41.2329,-15.6538 -20.8995,-5.2197 -27.6606,-5.9905 -39.0024,-7.6706 -28.4696,-5.1487 -51.4718,-6.7925 -51.1034,-8.5054 0.5544,-2.5775 23.6983,-1.6545 30.2282,-1.5586 23.4854,1.8067 47.8948,4.8024 71.772,9.816 0,10e-5 0,10e-5 0,10e-5 17.7636,3.7465 35.0632,8.7175 50.2024,15.2709 13.6619,5.9276 25.2667,13.1551 33.3859,21.5282 7.7005,7.9803 12.1032,16.8844 12.7647,26.2335 0.6379,9.3387 -2.265,18.9932 -8.1084,28.5358 -6.4322,10.431 -15.9789,20.724 -27.9564,30.7168 -11.9776,9.9928 -26.3836,19.6851 -42.3107,28.9112 -18.2614,10.6225 -38.5816,20.7779 -60.4822,30.4073 -21.9006,9.6292 -45.3786,18.7324 -69.8569,27.2737 -27.5581,9.6271 -56.4779,18.5848 -86.3338,26.8181 -29.8557,8.2333 -60.6454,15.7423 -91.9057,22.5024 -31.8278,6.8902 -64.2386,13.0237 -96.8378,18.2865 -32.5991,5.2628 -65.3848,9.6543 -97.9656,13.1077 -30.0517,3.1934 -60.0311,5.5916 -89.4579,7.051 -29.4268,1.4595 -58.29981,1.9797 -86.20891,1.4934 -25.388896,-0.419 -50.174996,-1.7327 -73.474796,-4.0938 -23.3,-2.3612 -45.1122005,-5.7699 -64.8257,-10.2599 -18.7646,-4.2925 -35.388797,-9.6758 -48.981297,-15.962 -14.0773,-6.5236 -24.60064,-13.9955 -31.491757,-21.8107 -7.55875,-8.6103 -10.65951,-17.5036 -10.62038,-25.9768 0.0326,-5.0437 1.1216,-9.9186 2.91403,-14.5673 1.79211,-4.6488 4.28811,-9.0717 7.20108,-13.2345 3.57961,-5.0951 7.705557,-9.8006 12.052627,-14.1313 4.3469,-4.3308 8.9157,-8.287 13.4605,-11.8865 9.0892,-7.1991 18.0297,-12.9728 25.6172,-17.471 7.587497,-4.4981 13.845797,-7.7234 18.258997,-9.7913 4.413,-2.068 6.9952,-2.9797 7.6279,-2.7871 z"
       id="path3840"
       inkscape:connector-curvature="0" />
    <path
       inkscape:connector-curvature="0"
       id="path3053"
       d="m 1169.8958,-1401.0065 c 0.4754,0.247 -0.6183,1.5469 -3.1519,3.9251 -2.5336,2.3782 -6.5173,5.8367 -11.5259,10.4689 -5.0087,4.6323 -11.0605,10.4407 -17.214,17.5562 -3.0766,3.5577 -6.169,7.4426 -9.0872,11.6716 -2.9182,4.2291 -5.6631,8.8023 -7.9844,13.7358 -1.8975,4.0158 -3.5075,8.2628 -4.6284,12.7042 -1.121,4.4413 -1.753,9.0771 -1.645,13.8487 0.1695,7.9935 2.4102,16.4315 7.5382,24.6354 4.6376,7.4556 11.7195,14.7657 21.0789,21.3678 9.0476,6.3966 20.3201,12.151 33.1569,17.1148 13.5342,5.2554 28.7295,9.5745 45.1894,13.0096 16.46,3.435 34.1837,5.9861 52.5566,7.8116 20.2041,1.9797 41.221,3.0067 62.7818,3.1415 21.561,0.1348 43.6649,-0.622 65.9792,-2.1366 24.168,-1.6497 48.5636,-4.2283 72.912,-7.687 24.3487,-3.4587 48.6491,-7.7969 72.6175,-12.9193 23.5323,-5.0368 46.7333,-10.8267 69.2633,-17.3776 22.53,-6.5508 44.3874,-13.8628 65.2619,-21.9138 18.5422,-7.1616 36.3311,-14.8741 52.9381,-23.152 16.6069,-8.2779 32.0298,-17.1216 45.9173,-26.5212 12.0509,-8.196 23.0256,-16.7698 32.2224,-25.6473 9.1968,-8.8775 16.6135,-18.0587 21.7189,-27.4671 4.6688,-8.5419 7.4444,-17.2057 7.7748,-25.6377 0.3476,-8.4077 -1.6799,-16.6557 -5.9016,-24.2212 -4.407,-7.9502 -11.2653,-15.2363 -19.601,-21.5463 -9.2475,-7.0166 -20.4135,-12.8847 -32.1727,-17.7738 0,0 -1e-4,0 -1e-4,0 -15.8584,-6.6167 -32.719,-11.3992 -49.2951,-15.0401 -16.576,-3.6408 -32.871,-6.1391 -48.0803,-7.9918 -20.5381,-2.4839 -39.2086,-3.743 -55.4704,-4.4635 -16.2617,-0.7206 -30.1217,-0.8996 -41.3003,-0.9734 -11.1786,-0.074 -19.6827,-0.039 -25.3895,-0.1308 -5.7069,-0.092 -8.6209,-0.3078 -8.6922,-0.721 -0.071,-0.4134 2.7029,-1.0242 8.3363,-1.7549 5.6334,-0.7307 14.1295,-1.5835 25.4423,-2.3098 11.3129,-0.7263 25.4489,-1.3295 42.2251,-1.3447 16.7763,-0.015 36.2002,0.5545 57.8446,2.44 16.0243,1.3826 33.3804,3.5126 51.371,6.9738 17.9907,3.4611 36.6201,8.2532 54.7134,15.167 0,0 0,0 0,1e-4 13.4598,5.1613 26.4858,11.6008 37.7479,19.5906 10.1625,7.2247 18.6582,15.7046 24.3962,25.1815 5.4395,9.0299 8.2795,18.8321 8.2081,28.866 -0.089,10.0212 -2.927,20.1492 -8.0246,29.966 -5.6067,10.7278 -13.6057,21.1051 -23.4597,31.0032 -9.8542,9.8982 -21.5613,19.3169 -34.4123,28.1383 -14.7368,10.1615 -31.0318,19.6898 -48.5122,28.5528 -17.4803,8.8631 -36.1441,17.061 -55.5438,24.5933 -21.8412,8.492 -44.6904,16.1799 -68.2161,23.0327 -23.5257,6.8528 -47.7263,12.8707 -72.2429,18.0576 -24.9624,5.289 -50.3269,9.7313 -75.7826,13.2309 -25.4556,3.4996 -51.0009,6.056 -76.3298,7.6232 -23.3634,1.4541 -46.6215,2.0632 -69.3953,1.7052 -22.7739,-0.3581 -45.0624,-1.6838 -66.5452,-4.0222 -19.5445,-2.1023 -38.5687,-5.1214 -56.3821,-9.163 -17.8134,-4.0416 -34.4149,-9.1058 -49.3315,-15.1886 -14.1973,-5.81 -26.6769,-12.6461 -36.7636,-20.2496 -10.4455,-7.8887 -18.0926,-16.5593 -22.9185,-25.3599 -5.2911,-9.694 -7.1282,-19.3997 -6.5712,-28.4519 0.3388,-5.3879 1.4814,-10.5263 3.1521,-15.3774 1.6705,-4.851 3.8695,-9.4148 6.3738,-13.6735 3.0761,-5.2116 6.5491,-9.9711 10.1692,-14.3158 3.6201,-4.3448 7.3878,-8.2747 11.1149,-11.8252 7.4539,-7.1009 14.7046,-12.6883 20.8329,-17.0007 6.1284,-4.3123 11.1531,-7.3512 14.6834,-9.2735 3.5304,-1.9223 5.5774,-2.7284 6.053,-2.4812 z"
       style="fill:#000000;fill-opacity:1;stroke:none" />
    <path
       inkscape:connector-curvature="0"
       id="path3055"
       d="m 1272.8396,-1460.1455 c -8.3206,1.3183 -18.9514,6.4456 -21.5097,25.1829 l -8.517,53.8806 -12.4579,1.9737 -0.8988,5.2475 12.5199,-1.9836 -11.1912,70.8798 c -13.7815,2.7998 -22.1604,8.5399 -20.3785,22.4512 1.0442,8.1524 8.1105,12.5805 15.8007,11.3621 8.1945,-1.2983 18.4205,-6.393 21.1048,-25.1503 l 0.5659,-3.6821 457.1921,-72.4344 1.2305,-7.7579 -457.1921,72.4344 11.0588,-70.9849 4.2766,-0.6775 7.1586,-1.1342 -5.5196,39.3512 c -0.3417,2.4898 -0.4366,4.6693 -0.3083,6.5719 0.6419,9.513 6.8456,12.9069 16.553,11.369 5.3412,-0.8463 11.662,-6.8633 17.1763,-13.278 2.7971,7.6357 8.7864,9.9209 18.9153,8.3161 12.6069,-1.9973 25.5168,-16.7205 26.1918,-42.5948 4.036,-1.7932 7.7814,-4.245 10.9269,-7.0252 l -3.1795,22.9721 c -0.3416,2.4898 -0.4366,4.6693 -0.3082,6.5719 0.6418,9.513 6.9695,12.8873 16.6768,11.3493 5.295,-0.8389 11.7677,-7.0032 17.325,-13.396 1.7485,7.0301 7.5093,9.4614 16.082,8.1032 25.4661,-4.0346 33.1079,-40.362 31.7728,-60.149 -0.445,-6.5957 -3.4394,-11.0202 -8.8604,-10.1613 -4.1603,0.6591 -6.9486,4.7112 -6.7689,7.3749 0.2396,3.5515 2.1229,6.8485 5.7789,6.2692 0.7564,-0.1198 1.8901,-0.5787 2.6294,-0.9522 0.9328,13.8255 -5.6618,42.966 -18.0166,44.9234 -3.656,0.5793 -4.8854,-0.9184 -5.048,-3.3283 -0.094,-1.3952 0.046,-2.9394 0.3042,-4.7751 l 6.1705,-44.5592 -18.16,2.8771 -6.1705,44.5593 c -0.2755,1.582 -0.4151,3.1325 -0.3295,4.4009 -2.8545,3.0162 -5.8838,5.4385 -8.5312,5.8579 -5.0428,0.7989 -6.4287,-1.0456 -6.617,-3.8361 -0.077,-1.1415 0.073,-2.5719 0.2307,-4.0071 l 6.1705,-44.5593 -18.16,2.8772 -2.1695,15.6587 c -2.2864,2.0829 -4.5811,4.1292 -8.233,4.7078 -1.765,0.2796 -2.9269,0.067 -3.7346,-0.5743 -0.8769,-9.2194 -4.5594,-18.1221 -16.5361,-16.2246 -17.3975,2.7564 -32.2208,18.6945 -30.1154,49.8971 0.1132,1.6774 0.2888,3.215 0.5325,4.6425 -2.6482,2.6061 -5.3375,4.7216 -7.7676,5.1066 -4.9167,0.779 -6.4203,-0.9208 -6.6086,-3.7113 -0.069,-1.0147 0.096,-2.189 0.3463,-4.1515 l 9.8812,-70.7983 -18.4854,5.4813 -3.3233,23.6251 -8.2123,1.3011 -3.254,0.5155 8.641,-53.9002 c 1.1916,-8.7779 6.1923,-14.657 11.3637,-14.9411 1.6111,-0.089 3.0173,0.1561 4.2389,0.6205 -0.8306,1.2076 -1.2903,2.6936 -1.1872,4.2216 0.2253,3.3402 3.0091,5.6367 6.2342,5.1257 3.2251,-0.5109 5.6743,-3.6365 5.4489,-6.9767 0,-0.042 -0.01,-0.083 -0.01,-0.1247 -0.011,-0.165 -0.046,-0.3324 -0.065,-0.4939 -0.9349,-7.9061 -11.3031,-11.539 -22.6757,-9.7372 z m 375.8282,-12.4326 c -5.5471,0.8788 -9.6385,6.1595 -9.2619,11.7404 0.3766,5.581 5.076,9.3113 10.623,8.4325 5.5471,-0.8789 9.8039,-6.0282 9.4274,-11.6091 -0.3766,-5.581 -5.2415,-9.4426 -10.7885,-8.5638 z m -24.8558,10.8707 -18.5165,5.4861 -2.5984,18.1217 -4.1526,0.6579 -0.6509,5.2081 4.1526,-0.6579 c -1.2794,10.227 -5.2947,34.2071 -5.6757,43.5355 -2.9539,3.0357 -5.9537,5.6387 -8.6736,6.0696 -5.0428,0.7989 -6.4287,-1.0456 -6.617,-3.8361 -0.077,-1.1416 0.073,-2.5719 0.2308,-4.0071 l 6.1704,-44.5593 -18.16,2.8772 -0.5207,3.4228 c -2.3977,-1.5431 -5.6492,-2.3193 -8.6748,-1.8399 -25.2139,3.9947 -31.2715,31.3709 -29.7995,53.1873 0.035,0.5182 0.096,1.0289 0.1672,1.5491 -1.9065,2.3149 -4.0013,4.0373 -6.1567,4.3788 -4.0342,0.6392 -5.2988,-1.4746 -5.4957,-4.3919 -0.1027,-1.5221 0.029,-3.193 0.3043,-4.775 l 3.5406,-25.0461 c 0.058,-1.0347 0.1187,-1.9554 0.05,-2.9702 -0.5819,-8.6251 -8.6465,-14.7644 -15.5803,-13.6659 -6.1774,0.9787 -12.5966,5.9542 -17.8441,11.2725 -3.1073,-4.5074 -8.3882,-7.1164 -13.0527,-6.3774 -5.421,0.8589 -10.9918,4.799 -15.7864,9.2763 l 0.9113,-6.9196 -18.16,2.8772 -9.0775,65.5344 18.16,-2.8772 7.3878,-52.9768 c 2.4016,-2.1753 4.481,-3.3885 7.5066,-3.8679 3.4039,-0.5393 5.9919,1.9986 6.3,6.5649 0.069,1.0147 0.026,2.1824 -0.1489,3.3639 l -6.1704,44.5592 18.2839,-2.8967 6.3238,-46.0017 c 0.066,-0.9078 0.1269,-1.8328 0.067,-2.7206 -0.1028,-1.5221 -0.4377,-2.8671 -0.9186,-4.3293 2.2926,-1.9016 4.3865,-2.9953 7.16,-3.4348 3.4039,-0.5393 5.9919,1.9986 6.3,6.5649 0.069,1.0147 0.026,2.1824 -0.1489,3.3639 l -3.2634,23.5841 c -0.3417,2.4899 -0.4452,4.5425 -0.3083,6.5719 0.6419,9.513 6.7195,12.9269 16.553,11.369 4.9271,-0.7806 9.9518,-5.7639 14.4136,-11.5167 2.0405,5.089 6.6312,8.9388 15.418,7.5467 7.6903,-1.2184 13.0056,-7.2982 16.4368,-13.0978 2.0839,6.336 7.8265,8.4974 16.021,7.1991 5.3899,-0.854 11.771,-6.9786 17.3208,-13.4584 1.726,7.0645 7.5572,9.5169 16.0862,8.1656 5.9166,-0.9374 12.9863,-8.2401 18.8827,-15.376 1.2102,8.314 7.3838,11.2145 16.5386,9.7641 5.8483,-0.9266 12.8249,-8.067 18.6805,-15.1234 3.1703,8.1217 10.0927,10.5648 18.1973,9.2807 15.8848,-2.5167 24.7065,-11.2276 23.9619,-22.2626 -4.6258,5.0915 -10.3205,9.1981 -17.1283,10.2767 -7.6902,1.2183 -9.5758,-5.9092 -9.9952,-12.1244 -0.9243,-13.6987 4.475,-35.4672 15.0648,-37.1449 2.7736,-0.4395 4.7665,0.5483 4.9719,3.5925 0.069,1.0147 -0.129,2.1712 -0.413,3.6263 l 7.1896,-1.1391 c 0.393,-1.7288 0.463,-2.8858 0.3689,-4.2811 -0.4707,-6.9762 -7.6647,-7.6091 -14.4725,-6.5305 -24.4575,3.8749 -30.7327,29.6081 -29.4832,48.1267 0.099,1.4636 0.2584,2.8129 0.4946,4.0813 -3.1371,3.2933 -6.392,6.2122 -9.2907,6.6715 -5.0427,0.7989 -6.4287,-1.0456 -6.617,-3.8361 -0.077,-1.1415 0.073,-2.5719 0.2308,-4.0071 l 6.1705,-44.5593 -18.1601,2.8772 -6.1394,44.5543 c -0.1202,0.8757 -0.2078,1.6978 -0.2698,2.5007 -3.5416,3.8504 -7.3231,7.5573 -10.6363,8.0822 -5.0428,0.799 -6.4201,-0.9188 -6.617,-3.8361 -0.043,-0.6342 -0.244,-1.8987 5.7504,-43.3582 l 7.5615,-1.198 0.6508,-5.2082 -7.5615,1.198 c 1.6251,-11.795 2.9549,-20.7306 2.9549,-20.7306 z m -294.9247,73.2593 c 3.5299,-0.5592 5.0846,1.6446 5.7452,5.7704 -3.3183,1.8077 -5.1979,6.0554 -4.9497,9.7338 0.2054,3.0441 1.9973,5.4503 5.6533,4.8711 -0.6827,12.5431 -4.1367,25.4241 -11.827,26.6425 -4.9167,0.779 -8.5679,-0.7197 -9.0814,-8.3301 -0.6847,-10.1471 2.609,-36.8101 14.4596,-38.6877 z m 232.7406,-35.8339 c 1.765,-0.2796 4.1836,-0.1572 6.3205,1.299 l -4.7977,34.7305 c -0.2756,1.582 -0.4214,3.0075 -0.4619,4.2959 -2.1557,3.931 -4.7596,7.1826 -7.6592,7.642 -3.1517,0.4993 -7.408,-0.2417 -7.9215,-7.8521 -1.164,-17.2502 5.0646,-38.6173 14.5198,-40.1153 z m -333.1891,127.2521 c 0.4301,-0.071 0.8552,-0.1217 1.2726,-0.1702 -1.9187,13.1082 -4.5314,14.804 -7.1789,15.2234 -2.7735,0.4394 -4.693,-1.3797 -5.308,-3.0035 -2.7576,-7.2815 4.7625,-10.978 11.2143,-12.0498 z"
       style="font-size:127.12830353px;font-style:normal;font-variant:normal;font-weight:normal;font-stretch:normal;text-align:start;line-height:125%;letter-spacing:0px;word-spacing:0px;writing-mode:lr-tb;text-anchor:start;fill:#000000;stroke:none;font-family:'Lobster 1.3';-inkscape-font-specification:'Lobster 1.3,'" />
    <path
       style="font-size:127.12830353px;font-style:normal;font-variant:normal;font-weight:normal;font-stretch:normal;text-align:start;line-height:125%;letter-spacing:0px;word-spacing:0px;writing-mode:lr-tb;text-anchor:start;fill:#000000;stroke:none;font-family:'Lobster 1.3';-inkscape-font-specification:'Lobster 1.3,'"
       d="m 86.507694,-1446.8732 c -16.4411,1.5651 -37.7337,9.4646 -42.0154,41.2213 0,0 -14.8478,92.1983 -14.8478,92.1983 0,0 -26.3964005,4.4283 -26.3964005,4.4283 0,0 -1.6505,9.2017 -1.6505,9.2017 0,0 26.5726005,-4.5902 26.5726005,-4.5902 0,0 -19.8911005,123.6832 -19.8911005,123.6832 -29.9009995,8.2685 -48.3369995,20.5842 -43.5000995,44.6669 2.8218,14.0501 18.7893,19.5582 35.51319952,15.0043 17.48380048,-4.7609 38.64600048,-16.455 43.20340048,-48.9041 0,0 0.9723,-6.3612 0.9723,-6.3612 0,0 610.338406,-151.108 610.338406,-151.108 0,0 0.9403,-8.6115 0.9403,-8.6115 0,0 -609.154806,146.3294 -609.154806,146.3294 0,0 18.8129,-121.1309 18.8129,-121.1309 0,0 8.5267,-1.4729 8.5267,-1.4729 0,0 14.0861,-2.4332 14.0861,-2.4332 0,0 -8.9138,65.86 -8.9138,65.86 -0.5519,4.1868 -0.6308,7.821 -0.2816,10.9589 1.7443,15.6681 14.0768,20.1317 32.692796,15.8455 10.0701,-2.3186 21.6008,-13.0857 31.4793,-24.222 5.4583,11.7469 16.39751,14.4025 34.33191,10.26 21.7796,-5.0306 42.9708,-29.3556 43.0505,-68.8826 6.6252,-3.0444 12.6926,-7.0394 17.7239,-11.4592 0,0 -4.2885,34.9709 -4.2885,34.9709 -0.4611,3.8004 -0.5306,7.106 -0.245,9.9677 1.4259,14.2905 11.833,18.5391 27.2751,14.9836 8.2939,-1.9096 18.1231,-11.7542 26.4228,-21.7129 2.9183,10.0603 11.7156,12.9318 24.4439,10.0012 36.5638,-8.4185 46.0645,-59.7392 43.5738,-87.3006 -0.8324,-9.2117 -5.1642,-15.3745 -12.7828,-14.1156 -5.9017,0.9752 -9.7631,6.7592 -9.4158,10.5365 0.4627,5.0331 3.2706,9.6525 8.4602,8.7267 1.0691,-0.1906 2.6593,-0.8693 3.6921,-1.4154 1.7674,19.3981 -6.6173,60.8466 -24.367,64.7317 -5.3357,1.168 -7.1972,-0.8649 -7.5203,-4.3078 -0.1869,-1.994 -0.034,-4.2221 0.2834,-6.8778 0,0 7.5214,-64.1544 7.5214,-64.1544 0,0 -26.8987,4.5126 -26.8987,4.5126 0,0 -7.7835,65.3525 -7.7835,65.3525 -0.364,2.3365 -0.5213,4.6152 -0.3444,6.4606 -4.2683,4.6922 -8.8529,8.5567 -12.945,9.4524 -7.8562,1.7196 -10.1073,-0.8658 -10.5094,-4.9857 -0.1645,-1.6861 0.018,-3.8235 0.2129,-5.9682 0,0 8.0148,-66.3936 8.0148,-66.3936 0,0 -28.784,4.8288 -28.784,4.8288 0,0 -2.9111,23.7095 -2.9111,23.7095 -3.6467,3.2807 -7.3254,6.5217 -13.3227,7.6373 -2.9151,0.5422 -4.856,0.2948 -6.2281,-0.6311 -1.838,-14.0428 -8.385,-27.5355 -28.7634,-24.1425 -30.5548,5.0874 -56.89531,31.4741 -51.56891,81.378 0.2852,2.6725 0.6789,5.1115 1.1926,7.3633 -4.7659,4.5573 -9.6582,8.3571 -14.175,9.3457 -9.2139,2.0168 -12.1442,-0.513 -12.6344,-5.0231 -0.1793,-1.6407 0.078,-3.575 0.4604,-6.803 0,0 15.2721,-115.5933 15.2721,-115.5933 0,0 -34.958396,9.2236 -34.958396,9.2236 0,0 -5.3236,39.1963 -5.3236,39.1963 0,0 -16.1586,2.7108 -16.1586,2.7108 0,0 -6.4876,1.0884 -6.4876,1.0884 0,0 14.5049,-90.2676 14.5049,-90.2676 1.9158,-14.58 11.4361,-24.0659 21.452596,-24.214 3.0964,-0.046 5.8052,0.4428 8.1634,1.2791 -1.5296,1.9318 -2.3381,4.3451 -2.0674,6.859 0.5912,5.4923 6.0081,9.3759 12.0904,8.6776 6.0384,-0.6933 10.4681,-5.6487 9.8929,-11.0702 0,-0.067 -0.023,-0.1356 -0.024,-0.2026 -0.028,-0.268 -0.1012,-0.5412 -0.1442,-0.8039 -2.1136,-12.8801 -21.903,-19.5841 -43.873996,-17.4926 0,0 0,10e-5 0,10e-5 m 514.962506,5.8477 c -5.3146,0.7505 -9.1732,6.7284 -8.6969,13.2709 0.4758,6.5363 5.0898,11.0348 10.3878,10.1812 5.2514,-0.8461 9.1654,-6.6353 8.706,-13.0691 -0.4598,-6.4397 -5.1293,-11.1269 -10.3969,-10.383 0,0 0,0 0,0 m -24.0473,11.6272 c 0,0 -18.6073,5.8302 -18.6073,5.8302 0,0 -2.2836,21.7235 -2.2836,21.7235 0,0 -4.2784,0.7178 -4.2784,0.7178 0,0 -0.5624,6.2795 -0.5624,6.2795 0,0 4.282,-0.7397 4.282,-0.7397 -1.0998,12.3017 -4.7388,41.2412 -4.9317,52.5038 -3.0093,3.7612 -6.0907,7.0178 -8.9403,7.6415 -5.318,1.164 -6.8339,-1.0348 -7.0974,-4.4364 -0.1078,-1.392 0.02,-3.1443 0.1557,-4.9025 0,0 5.5498,-54.4096 5.5498,-54.4096 0,0 -19.4221,3.2583 -19.4221,3.2583 0,0 -0.4882,4.2297 -0.4882,4.2297 -2.6562,-1.9384 -6.2453,-2.9428 -9.5749,-2.3838 -28.436,4.774 -34.7829,39.7748 -32.5128,67.594 0.054,0.6594 0.1378,1.3079 0.2338,1.968 -2.1618,3.0509 -4.5661,5.3638 -7.0858,5.9181 -4.7422,1.0432 -6.2959,-1.6092 -6.6056,-5.358 -0.1617,-1.9567 -0.049,-4.1168 0.2368,-6.1683 0,0 3.5415,-32.3609 3.5415,-32.3609 0.042,-1.3323 0.09,-2.518 -0.018,-3.823 -0.9111,-11.1027 -10.6813,-19.0546 -19.0274,-17.6544 -7.5241,1.2622 -15.3228,7.8186 -21.7295,14.8941 -4.0384,-5.9679 -10.8131,-9.4348 -16.7655,-8.4362 -6.9827,1.1714 -14.1413,6.5373 -20.3287,12.6799 0,0 0.9979,-9.4369 0.9979,-9.4369 0,0 -24.3454,4.0842 -24.3454,4.0842 0,0 -10.4338,91.4888 -10.4338,91.4888 0,0 24.6795,-5.6823 24.6795,-5.6823 0,0 8.2402,-72.7552 8.2402,-72.7552 3.1116,-3.0103 5.8147,-4.6962 9.7674,-5.3964 4.4203,-0.783 7.8483,2.5941 8.3795,8.7329 0.1186,1.3634 0.097,2.9353 -0.094,4.5296 0,0 -6.7006,60.3782 -6.7006,60.3782 0,0 23.3493,-5.3761 23.3493,-5.3761 0,0 6.6427,-61.2588 6.6427,-61.2588 0.057,-1.2025 0.1074,-2.4274 0.01,-3.6009 -0.1708,-2.0122 -0.6267,-3.7869 -1.2688,-5.7161 2.8093,-2.5452 5.3828,-4.0122 8.8046,-4.6184 4.1759,-0.7397 7.4135,2.5598 7.9131,8.5303 0.1117,1.3261 0.091,2.8542 -0.091,4.4031 0,0 -3.3528,30.9848 -3.3528,30.9848 -0.3514,3.2789 -0.4225,5.9734 -0.1993,8.6238 1.0452,12.4105 8.5375,16.437 20.2983,13.7292 5.8156,-1.339 11.5874,-8.0444 16.6375,-15.6418 2.491,6.3596 7.8708,10.9605 17.8305,8.66 8.5931,-1.9848 14.3422,-9.8482 17.9827,-17.2111 2.4312,7.7427 8.7292,10.1067 17.5094,8.0851 5.7092,-1.3146 12.2894,-9.0438 17.9321,-17.0911 1.941,8.4375 7.9949,11.1215 16.6396,9.1312 5.926,-1.3645 12.8067,-10.2508 18.4662,-18.8115 1.3507,9.6944 7.4117,12.8532 16.1761,10.8353 5.5322,-1.2737 11.9516,-9.681 17.2671,-17.8797 3.078,9.1602 9.4639,11.7251 16.778,10.0411 14.072,-3.24 21.6169,-13.0627 20.7852,-25.22 -3.9414,5.6774 -8.868,10.3178 -14.8802,11.6382 -6.868,1.5084 -8.6975,-6.4793 -9.1883,-13.4757 -1.0833,-15.4457 3.4056,-39.8985 12.8304,-41.5231 2.4432,-0.4211 4.2146,0.7268 4.4474,4.1156 0.078,1.1292 -0.076,2.4106 -0.3006,4.0227 0,0 6.2655,-1.1286 6.2655,-1.1286 0.3124,-1.9033 0.3536,-3.1808 0.2483,-4.7252 -0.5274,-7.7273 -6.8313,-8.6384 -12.8325,-7.6339 -22.0894,3.6976 -27.432,32.984 -25.9244,54.1357 0.1192,1.6689 0.2924,3.2061 0.5352,4.6491 -2.8571,3.8192 -5.8455,7.2305 -8.56,7.8247 -4.7521,1.0402 -6.1047,-1.0556 -6.3376,-4.274 -0.095,-1.3171 0.02,-2.9721 0.1425,-4.6325 0,0 4.996,-51.3824 4.996,-51.3824 0,0 -17.342,2.9093 -17.342,2.9093 0,0 -5.1031,52.1418 -5.1031,52.1418 -0.1002,1.0286 -0.1696,1.9939 -0.2142,2.9363 -3.4034,4.6034 -7.0664,9.0705 -10.3497,9.7891 -5.0316,1.1014 -6.4535,-0.8959 -6.7128,-4.3565 -0.056,-0.7525 -0.2856,-2.2503 4.8753,-51.5019 0,0 7.4947,-1.2946 7.4947,-1.2946 0,0 0.5373,-6.1251 0.5373,-6.1251 0,0 -7.4886,1.2563 -7.4886,1.2563 1.3802,-13.9366 2.5222,-24.4722 2.5222,-24.4722 0,0 2e-4,0 2e-4,0 m -384.4363,98.3345 c 6.0441,-1.051 8.7937,2.2755 10.0915,8.6096 -5.5974,3.0054 -8.6497,9.7199 -8.0677,15.4072 0.4812,4.7031 3.6572,8.2761 9.8704,7.0661 -0.6411,19.39 -5.9979,39.6646 -19.2191,42.5585 -8.5683,1.8755 -15.0812,0.016 -16.325,-11.8881 -1.6618,-15.9048 3.0193,-58.1661 23.6499,-61.7533 0,0 0,0 0,0 m 320.0626,-54.353 c 1.9388,-0.3391 4.5977,-0.1747 6.9691,1.6389 0,0 -4.4433,43.1151 -4.4433,43.1151 -0.2657,1.9722 -0.3925,3.746 -0.4068,5.3461 -2.2819,4.9684 -5.0844,9.1293 -8.2951,9.8377 -3.508,0.774 -8.3104,0.048 -9.0755,-9.4961 -1.7384,-21.6819 4.765,-48.6077 15.2516,-50.4417 0,0 0,0 0,0 M 3.6715935,-1166.4442 c 0.9229,-0.2341 1.8352,-0.4301 2.7301,-0.6209 -3.4052,23.1596 -8.9644,26.8455 -14.7061,28.3452 -6.0543995,1.5814 -10.3897995,-1.0311 -11.8429995,-3.6929 -6.5454,-11.9905 9.8603,-20.4903 23.8189995,-24.0315 0,0 0,1e-4 0,1e-4"
       id="path3160"
       inkscape:connector-curvature="0" />
    <path
       sodipodi:nodetypes="ccccc"
       style="fill:none;stroke:#ff1e1e;stroke-width:6.68932104px;stroke-linecap:butt;stroke-linejoin:miter;stroke-opacity:1"
       d="m 3348.1455,-438.77437 -892.7163,-1671.43283 5742.2672,-766.0869 2442.2596,645.2669 -7291.8105,1792.25283"
       id="path3058"
       inkscape:path-effect="#path-effect3060"
       inkscape:original-d="m 3348.1455,-438.77437 -892.7163,-1671.43283 5742.2672,-766.0869 2442.2596,645.2669 z"
       inkscape:connector-curvature="0" />
    <g
       id="g8912"
       style="filter:url(#filter8914);fill:#00c808;fill-opacity:1;opacity:1">
      <path
         sodipodi:nodetypes="ccsccccccccscscscscscsccccccscccccccscscscscscsccccccccscc"
         style="fill:#00c808;fill-opacity:1;stroke:#ceff1e;stroke-width:3;stroke-miterlimit:4;stroke-opacity:1;stroke-dasharray:none"
         d="m 1123.9899,-126.44527 c 0.632,0.19262 -0.6823,1.48912 -3.7743,3.90316 -3.0922,2.41406 -7.9749,5.94812 -14.093,10.65594 -6.118,4.70785 -13.4942,10.59304 -20.9036,17.703346 -3.7045,3.55512 -7.4048,7.41612 -10.8542,11.58387 -3.4497,4.16778 -6.6498,8.64242 -9.2758,13.41922 -2.148,3.88882 -3.9074,7.97037 -5.0208,12.19438 -1.1136,4.22398 -1.5812,8.59055 -1.0832,13.02523 0.8192,7.43015 4.3457,15.11119 11.5821,22.34684 6.547,6.57754 16.2385,12.8270296 28.817,18.2380996 12.1605,5.24413 27.1451,9.71512 44.0897,13.32683 17.8666,3.8283004 37.8077,6.6539504 59.3146,8.5568304 21.5071,1.90283 44.5793,2.88312 68.4349,3.13657 26.2313,0.25291 53.4403,-0.44528 81.2843,-2.01712 27.8444,-1.57186 56.3225,-4.01673 85.0156,-7.18381 31.0759,-3.4388104 62.3756,-7.7605204 93.5486,-12.89806038 31.173,-5.13755002 62.2178,-11.09035962 92.7751,-17.74719962 30.0009,-6.54281 59.5173,-13.76079 88.1104,-21.63458 28.5931,-7.87376 56.2608,-16.40332 82.6039,-25.54365 23.3992,-8.12862 45.7843,-16.71081 66.6014,-25.72653 20.8168,-9.015706 40.0628,-18.465036 57.2849,-28.311146 14.9413,-8.58071 28.4651,-17.42853 39.6708,-26.4192 11.2058,-8.99071 20.0908,-18.12397 25.9748,-27.28693 5.3856,-8.32167 8.318,-16.60783 8.111,-24.4856 -0.1828,-7.85658 -3.4199,-15.37739 -9.4382,-22.08998 -6.2864,-7.05627 -14.8695,-14.11896 -26.1046,-19.33858 -12.4652,-5.80577 -25.6851,-12.02692 -41.2329,-15.65382 -20.8995,-5.21968 -27.6606,-5.99049 -39.0024,-7.6706 -28.4696,-5.14869 -51.4718,-6.79245 -51.1034,-8.50533 0.5544,-2.57754 23.6983,-1.65453 30.2282,-1.55864 23.4854,1.80667 47.8948,4.80242 71.772,9.81605 0,3e-5 0,3e-5 0,3e-5 17.7636,3.74656 35.0632,8.71752 50.2024,15.27092 13.6619,5.92758 25.2667,13.15511 33.3859,21.52817 7.7005,7.98033 12.1032,16.88449 12.7647,26.23357 0.6379,9.3387 -2.265,18.99314 -8.1084,28.53582 -6.4322,10.431 -15.9789,20.72395 -27.9564,30.71675 -11.9776,9.99282 -26.3836,19.68509 -42.3107,28.9112 -18.2614,10.62248 -38.5816,20.777916 -60.4822,30.407266 -21.9006,9.62928 -45.3786,18.73243 -69.8569,27.27371 -27.5581,9.62709 -56.4779,18.5848 -86.3338,26.81814 -29.8557,8.23333 -60.6454,15.74229 -91.9057,22.5023796 -31.8278,6.89024 -64.2386,13.02374 -96.8378,18.2865204 -32.5991,5.2628 -65.3848,9.6543 -97.9656,13.1077 -30.0517,3.19335 -60.0311,5.59154 -89.4579,7.05101 -29.4268,1.45946 -58.2998,1.97965 -86.2089,1.49334 -25.3889,-0.41894 -50.175,-1.73262 -73.4748,-4.0938 -23.3,-2.36117 -45.1122,-5.7699 -64.8257,-10.2599 -18.7646,-4.29246 -35.3888,-9.67574 -48.9813,-15.9620004 -14.0773,-6.52354 -24.6006,-13.99551 -31.4918,-21.8106296 -7.5587,-8.61036 -10.6595,-17.50363 -10.6203,-25.97681 0.033,-5.04377 1.1216,-9.91861 2.914,-14.56737 1.7921,-4.64874 4.2881,-9.07162 7.2011,-13.23443 3.5796,-5.09514 7.7055,-9.80059 12.0526,-14.13135 4.3469,-4.33078 8.9157,-8.28695 13.4605,-11.88651 9.0892,-7.199076 18.0297,-12.972796 25.6172,-17.470916 7.5875,-4.4981 13.8458,-7.72342 18.259,-9.79138 4.413,-2.06799 6.9952,-2.97971 7.6279,-2.78702 z"
         id="path8910"
         inkscape:connector-curvature="0" />
      <path
         style="font-size:127.12830352999999661px;font-style:normal;font-variant:normal;font-weight:normal;font-stretch:normal;text-align:start;line-height:125%;letter-spacing:0px;word-spacing:0px;writing-mode:lr-tb;text-anchor:start;fill:#00c808;fill-opacity:1;stroke:#ceff1e;stroke-width:3;stroke-miterlimit:4;stroke-opacity:1;stroke-dasharray:none;font-family:'Lobster 1.3';-inkscape-font-specification:'Lobster 1.3,'"
         d="m 1231.6141,-352.98734 c -16.4411,1.56506 -37.7337,9.46454 -42.0154,41.22133 0,0 -14.8478,92.19828 -14.8478,92.19828 0,0 -26.3964,4.42826 -26.3964,4.42826 0,0 -1.6505,9.20172 -1.6505,9.20172 0,0 26.5726,-4.59019 26.5726,-4.59019 0,0 -19.8911,123.683209 -19.8911,123.683209 -29.901,8.26844 -48.337,20.58418 -43.5001,44.66689 2.8218,14.05011 18.7893,19.55816 35.5132,15.00424 17.4838,-4.76084 38.646,-16.455 43.2034,-48.90406 0,0 0.9723,-6.36119 0.9723,-6.36119 0,0 610.3384,-151.108049 610.3384,-151.108049 0,0 0.9403,-8.61149 0.9403,-8.61149 0,0 -609.1548,146.329419 -609.1548,146.329419 0,0 18.8129,-121.130889 18.8129,-121.130889 0,0 8.5267,-1.4729 8.5267,-1.4729 0,0 14.0861,-2.43324 14.0861,-2.43324 0,0 -8.9138,65.86002 -8.9138,65.86002 -0.5519,4.18686 -0.6308,7.82101 -0.2816,10.95893 1.7443,15.66806 14.0768,20.13172 32.6928,15.84552 10.0701,-2.31859 21.6008,-13.08569 31.4793,-24.22206 5.4583,11.74693 16.3975,14.40254 34.3319,10.26006 21.7796,-5.03065 42.9708,-29.35565 43.0505,-68.88267 6.6252,-3.04431 12.6926,-7.03935 17.7239,-11.4592 0,0 -4.2885,34.97095 -4.2885,34.97095 -0.4611,3.80037 -0.5306,7.10599 -0.245,9.96765 1.4259,14.29052 11.833,18.53913 27.2751,14.98368 8.2939,-1.90961 18.1231,-11.75424 26.4228,-21.71295 2.9183,10.06036 11.7156,12.93185 24.4439,10.00124 36.5638,-8.41856 46.0645,-59.73921 43.5738,-87.30066 -0.8324,-9.21166 -5.1642,-15.37442 -12.7828,-14.11553 -5.9017,0.97517 -9.7631,6.75916 -9.4158,10.53643 0.4627,5.03315 3.2706,9.65257 8.4602,8.72675 1.0691,-0.19065 2.6593,-0.86928 3.6921,-1.41542 1.7674,19.39807 -6.6173,60.84662 -24.367,64.73175 -5.3357,1.16794 -7.1972,-0.86495 -7.5203,-4.30784 -0.1869,-1.99405 -0.034,-4.22214 0.2834,-6.87785 0,0 7.5214,-64.15433 7.5214,-64.15433 0,0 -26.8987,4.51254 -26.8987,4.51254 0,0 -7.7835,65.35253 -7.7835,65.35253 -0.364,2.33646 -0.5213,4.61522 -0.3444,6.4606 -4.2683,4.69221 -8.8529,8.55667 -12.945,9.45238 -7.8562,1.71958 -10.1073,-0.86576 -10.5094,-4.98564 -0.1645,-1.68615 0.018,-3.82349 0.2129,-5.96826 0,0 8.0148,-66.39361 8.0148,-66.39361 0,0 -28.784,4.82883 -28.784,4.82883 0,0 -2.9111,23.70954 -2.9111,23.70954 -3.6467,3.28071 -7.3254,6.52165 -13.3227,7.63724 -2.9151,0.54226 -4.856,0.29479 -6.2281,-0.63104 -1.838,-14.0428 -8.385,-27.53549 -28.7634,-24.14251 -30.5548,5.0874 -56.8953,31.47406 -51.5689,81.37801 0.2852,2.67249 0.6789,5.11144 1.1926,7.36329 -4.7659,4.55726 -9.6582,8.35706 -14.175,9.34569 -9.2139,2.01683 -12.1442,-0.51302 -12.6344,-5.02311 -0.1793,-1.64067 0.078,-3.57497 0.4604,-6.803 0,0 15.2721,-115.59328 15.2721,-115.59328 0,0 -34.9584,9.22362 -34.9584,9.22362 0,0 -5.3236,39.1963 -5.3236,39.1963 0,0 -16.1586,2.71076 -16.1586,2.71076 0,0 -6.4876,1.08837 -6.4876,1.08837 0,0 14.5049,-90.26761 14.5049,-90.26761 1.9158,-14.57998 11.4361,-24.06582 21.4526,-24.21398 3.0964,-0.0458 5.8052,0.44286 8.1634,1.27911 -1.5296,1.93185 -2.3381,4.34508 -2.0674,6.85903 0.5912,5.49223 6.0081,9.37591 12.0904,8.67758 6.0384,-0.69328 10.4681,-5.64866 9.8929,-11.07019 0,-0.0674 -0.023,-0.13566 -0.024,-0.20259 -0.028,-0.26801 -0.1012,-0.54118 -0.1442,-0.8039 -2.1136,-12.88008 -21.903,-19.58415 -43.874,-17.49266 0,0 0,1.5e-4 0,1.5e-4 m 514.9625,5.84769 c -5.3146,0.7505 -9.1732,6.72842 -8.6969,13.2709 0.4758,6.53632 5.0898,11.03478 10.3878,10.18117 5.2514,-0.8461 9.1654,-6.63528 8.706,-13.06906 -0.4598,-6.43974 -5.1293,-11.12692 -10.3969,-10.38301 0,0 0,0 0,0 m -24.0473,11.62718 c 0,0 -18.6073,5.83019 -18.6073,5.83019 0,0 -2.2836,21.72355 -2.2836,21.72355 0,0 -4.2784,0.71774 -4.2784,0.71774 0,0 -0.5624,6.27949 -0.5624,6.27949 0,0 4.282,-0.73969 4.282,-0.73969 -1.0998,12.30171 -4.7388,41.24128 -4.9317,52.5038 -3.0093,3.76123 -6.0907,7.01779 -8.9403,7.64155 -5.318,1.16401 -6.8339,-1.03483 -7.0974,-4.4364 -0.1078,-1.39205 0.02,-3.14436 0.1557,-4.9025 0,0 5.5498,-54.40958 5.5498,-54.40958 0,0 -19.4221,3.25827 -19.4221,3.25827 0,0 -0.4882,4.22974 -0.4882,4.22974 -2.6562,-1.93848 -6.2453,-2.94282 -9.5749,-2.38383 -28.436,4.77394 -34.7829,39.77481 -32.5128,67.59395 0.054,0.65939 0.1378,1.30792 0.2338,1.96805 -2.1618,3.05088 -4.5661,5.36376 -7.0858,5.91808 -4.7422,1.04323 -6.2959,-1.60917 -6.6056,-5.35796 -0.1617,-1.95671 -0.049,-4.11681 0.2368,-6.16836 0,0 3.5415,-32.36088 3.5415,-32.36088 0.042,-1.33234 0.09,-2.518 -0.018,-3.82302 -0.9111,-11.10266 -10.6813,-19.05455 -19.0274,-17.65438 -7.5241,1.26225 -15.3228,7.8186 -21.7295,14.89406 -4.0384,-5.96788 -10.8131,-9.43471 -16.7655,-8.43613 -6.9827,1.17142 -14.1413,6.53725 -20.3287,12.67986 0,0 0.9979,-9.43691 0.9979,-9.43691 0,0 -24.3454,4.08421 -24.3454,4.08421 0,0 -10.4338,91.48879 -10.4338,91.48879 0,0 24.6795,-5.68228 24.6795,-5.68228 0,0 8.2402,-72.75519 8.2402,-72.75519 3.1116,-3.01032 5.8147,-4.6962 9.7674,-5.39639 4.4203,-0.78297 7.8483,2.59404 8.3795,8.73284 0.1186,1.36342 0.097,2.93536 -0.094,4.52963 0,0 -6.7006,60.37817 -6.7006,60.37817 0,0 23.3493,-5.37603 23.3493,-5.37603 0,0 6.6427,-61.25886 6.6427,-61.25886 0.057,-1.20244 0.1074,-2.42735 0.01,-3.60085 -0.1708,-2.01219 -0.6267,-3.78695 -1.2688,-5.71616 2.8093,-2.54515 5.3828,-4.0122 8.8046,-4.61833 4.1759,-0.7397 7.4135,2.55982 7.9131,8.53031 0.1117,1.32607 0.091,2.85414 -0.091,4.40306 0,0 -3.3528,30.98478 -3.3528,30.98478 -0.3514,3.2789 -0.4225,5.97338 -0.1993,8.62385 1.0452,12.4105 8.5375,16.43702 20.2983,13.72918 5.8156,-1.33901 11.5874,-8.04442 16.6375,-15.64184 2.491,6.3596 7.8708,10.9605 17.8305,8.66001 8.5931,-1.9848 14.3422,-9.84817 17.9827,-17.21112 2.4312,7.74278 8.7292,10.1067 17.5094,8.0851 5.7092,-1.31451 12.2894,-9.04379 17.9321,-17.0911 1.941,8.43757 7.9949,11.12159 16.6396,9.13123 5.926,-1.36444 12.8067,-10.25082 18.4662,-18.81151 1.3507,9.69443 7.4117,12.85325 16.1761,10.83533 5.5322,-1.27375 11.9516,-9.68101 17.2671,-17.87974 3.078,9.16026 9.4639,11.7251 16.778,10.0411 14.072,-3.23998 21.6169,-13.06267 20.7852,-25.21994 -3.9414,5.67737 -8.868,10.3178 -14.8802,11.63821 -6.868,1.50837 -8.6975,-6.47937 -9.1883,-13.47577 -1.0833,-15.44567 3.4056,-39.8985 12.8304,-41.52308 2.4432,-0.42112 4.2146,0.72678 4.4474,4.11558 0.078,1.12923 -0.076,2.41061 -0.3006,4.02272 0,0 6.2655,-1.12854 6.2655,-1.12854 0.3124,-1.90334 0.3536,-3.18082 0.2483,-4.72524 -0.5274,-7.72726 -6.8313,-8.63839 -12.8325,-7.63386 -22.0894,3.69758 -27.432,32.98394 -25.9244,54.13564 0.1192,1.66888 0.2924,3.2061 0.5352,4.64913 -2.8571,3.81921 -5.8455,7.23049 -8.56,7.82466 -4.7521,1.0402 -6.1047,-1.05559 -6.3376,-4.274 -0.095,-1.31707 0.02,-2.97209 0.1425,-4.63252 0,0 4.996,-51.38238 4.996,-51.38238 0,0 -17.342,2.90929 -17.342,2.90929 0,0 -5.1031,52.14188 -5.1031,52.14188 -0.1002,1.02856 -0.1696,1.99385 -0.2142,2.93626 -3.4034,4.60342 -7.0664,9.07046 -10.3497,9.78913 -5.0316,1.10134 -6.4535,-0.8959 -6.7128,-4.35649 -0.056,-0.75253 -0.2856,-2.25038 4.8753,-51.50196 0,0 7.4947,-1.29462 7.4947,-1.29462 0,0 0.5373,-6.1251 0.5373,-6.1251 0,0 -7.4886,1.2563 -7.4886,1.2563 1.3802,-13.93655 2.5222,-24.47219 2.5222,-24.47219 0,0 2e-4,10e-6 2e-4,10e-6 m -384.4363,98.3345 c 6.0441,-1.05094 8.7937,2.27548 10.0915,8.60961 -5.5974,3.00537 -8.6497,9.71988 -8.0677,15.40717 0.4812,4.70315 3.6572,8.27611 9.8704,7.06611 -0.6411,19.38998 -5.9979,39.66461 -19.2191,42.55851 -8.5683,1.87547 -15.0812,0.0164 -16.325,-11.88808 -1.6618,-15.90481 3.0193,-58.1661 23.6499,-61.75332 0,0 0,0 0,0 m 320.0626,-54.35298 c 1.9388,-0.33908 4.5977,-0.17475 6.9691,1.63892 0,0 -4.4433,43.11506 -4.4433,43.11506 -0.2657,1.97218 -0.3925,3.74606 -0.4068,5.34609 -2.2819,4.96846 -5.0844,9.12931 -8.2951,9.83768 -3.508,0.774 -8.3104,0.0478 -9.0755,-9.4961 -1.7384,-21.6819 4.765,-48.60762 15.2516,-50.44165 0,0 0,0 0,0 M 1148.778,-72.558391 c 0.9229,-0.23405 1.8352,-0.43004 2.7301,-0.62085 -3.4052,23.15963 -8.9644,26.84548 -14.7061,28.34518 -6.0544,1.5814 -10.3898,-1.03113 -11.843,-3.69293 -6.5454,-11.99047 9.8603,-20.49022 23.819,-24.03147 0,0 0,7e-5 0,7e-5"
         id="path8908"
         inkscape:connector-curvature="0" />
    </g>
    <g
       inkscape:label="dodec:x0.00:x0.00:x0.00:x0.00:x0.00:x0.00"
       transform="translate(5388.0107,92.1010447)"
       id="g4891" />
  </g>
  <path
     style="fill:#474747;fill-opacity:1;stroke:#ffffff;stroke-width:5;stroke-miterlimit:4;stroke-opacity:1;stroke-dasharray:none"
     d="m -555.617,-1197.5415 0,1980.9917 4241.7984,0 0,-1980.9917 -4241.7984,0 z m 1355.89891,694.58827 1432.78989,0 0,710.79781 -1432.78989,0 0,-710.79781 z"
     id="rect8683"
     inkscape:connector-curvature="0" />
</svg>
